<svg xmlns:svg="http://www.w3.org/2000/svg" xmlns="http://www.w3.org/2000/svg" version="1.1">

	<rect x="520.000000" y="386.670000" width="468.000000" height="348.000000" fill=#AB37C8 stroke=#AA0044 stroke-opacity="0.500000"/>
	<rect x="500.000000" y="95.000000" width="120.000000" height="80.000000" fill="Olive" stroke="darkblue" stroke-width="1.000000"/>
	<rect x="230.000000" y="95.000000" width="120.000000" height="80.000000" fill="Olive" stroke="darkblue" stroke-width="1.000000"/>
	<rect x="95.000000" y="380.000000" width="120.000000" height="80.000000" fill="Olive" stroke="darkblue" stroke-width="1.000000"/>
	<rect x="95.000000" y="190.000000" width="120.000000" height="80.000000" fill="Olive" stroke="darkblue" stroke-width="1.000000"/>
	<rect x="95.000000" y="95.000000" width="120.000000" height="80.000000" fill="Olive" stroke="darkblue" stroke-width="1.000000"/>
	<rect x="95.000000" y="285.000000" width="120.000000" height="80.000000" fill="Olive" stroke="darkblue" stroke-width="1.000000"/>
	<rect x="95.000000" y="570.000000" width="120.000000" height="80.000000" fill="Olive" stroke="darkblue" stroke-width="1.000000"/>
	<rect x="95.000000" y="475.000000" width="120.000000" height="80.000000" fill="Olive" stroke="darkblue" stroke-width="1.000000"/>
	<rect x="95.000000" y="760.000000" width="120.000000" height="80.000000" fill="Olive" stroke="darkblue" stroke-width="1.000000"/>
	<rect x="95.000000" y="665.000000" width="120.000000" height="80.000000" fill="Olive" stroke="darkblue" stroke-width="1.000000"/>
	<rect x="95.000000" y="855.000000" width="120.000000" height="80.000000" fill="Olive" stroke="darkblue" stroke-width="1.000000"/>
	<rect x="95.000000" y="950.000000" width="120.000000" height="80.000000" fill="Olive" stroke="darkblue" stroke-width="1.000000"/>
	<rect x="365.000000" y="95.000000" width="120.000000" height="80.000000" fill="Olive" stroke="darkblue" stroke-width="1.000000"/>
	<rect x="230.000000" y="475.000000" width="120.000000" height="80.000000" fill="Olive" stroke="darkblue" stroke-width="1.000000"/>
	<rect x="230.000000" y="285.000000" width="120.000000" height="80.000000" fill="Olive" stroke="darkblue" stroke-width="1.000000"/>
	<rect x="230.000000" y="190.000000" width="120.000000" height="80.000000" fill="Olive" stroke="darkblue" stroke-width="1.000000"/>
	<rect x="230.000000" y="380.000000" width="120.000000" height="80.000000" fill="Olive" stroke="darkblue" stroke-width="1.000000"/>
	<rect x="230.000000" y="665.000000" width="120.000000" height="80.000000" fill="Olive" stroke="darkblue" stroke-width="1.000000"/>
	<rect x="230.000000" y="570.000000" width="120.000000" height="80.000000" fill="Olive" stroke="darkblue" stroke-width="1.000000"/>
	<rect x="230.000000" y="855.000000" width="120.000000" height="80.000000" fill="Olive" stroke="darkblue" stroke-width="1.000000"/>
	<rect x="230.000000" y="760.000000" width="120.000000" height="80.000000" fill="Olive" stroke="darkblue" stroke-width="1.000000"/>
	<rect x="230.000000" y="950.000000" width="120.000000" height="80.000000" fill="Olive" stroke="darkblue" stroke-width="1.000000"/>
	<rect x="365.000000" y="475.000000" width="120.000000" height="80.000000" fill="Olive" stroke="darkblue" stroke-width="1.000000"/>
	<rect x="365.000000" y="285.000000" width="120.000000" height="80.000000" fill="Olive" stroke="darkblue" stroke-width="1.000000"/>
	<rect x="365.000000" y="190.000000" width="120.000000" height="80.000000" fill="Olive" stroke="darkblue" stroke-width="1.000000"/>
	<rect x="365.000000" y="380.000000" width="120.000000" height="80.000000" fill="Olive" stroke="darkblue" stroke-width="1.000000"/>
	<rect x="365.000000" y="665.000000" width="120.000000" height="80.000000" fill="Olive" stroke="darkblue" stroke-width="1.000000"/>
	<rect x="365.000000" y="570.000000" width="120.000000" height="80.000000" fill="Olive" stroke="darkblue" stroke-width="1.000000"/>
	<rect x="365.000000" y="855.000000" width="120.000000" height="80.000000" fill="Olive" stroke="darkblue" stroke-width="1.000000"/>
	<rect x="365.000000" y="760.000000" width="120.000000" height="80.000000" fill="Olive" stroke="darkblue" stroke-width="1.000000"/>
	<rect x="365.000000" y="950.000000" width="120.000000" height="80.000000" fill="Olive" stroke="darkblue" stroke-width="1.000000"/>
	<rect x="1040.000000" y="95.000000" width="120.000000" height="80.000000" fill="Olive" stroke="darkblue" stroke-width="1.000000"/>
	<rect x="770.000000" y="95.000000" width="120.000000" height="80.000000" fill="Olive" stroke="darkblue" stroke-width="1.000000"/>
	<rect x="635.000000" y="95.000000" width="120.000000" height="80.000000" fill="Olive" stroke="darkblue" stroke-width="1.000000"/>
	<rect x="500.000000" y="475.000000" width="120.000000" height="80.000000" fill="Olive" stroke="darkblue" stroke-width="1.000000"/>
	<rect x="500.000000" y="285.000000" width="120.000000" height="80.000000" fill="Olive" stroke="darkblue" stroke-width="1.000000"/>
	<rect x="500.000000" y="190.000000" width="120.000000" height="80.000000" fill="Olive" stroke="darkblue" stroke-width="1.000000"/>
	<rect x="500.000000" y="380.000000" width="120.000000" height="80.000000" fill="Olive" stroke="darkblue" stroke-width="1.000000"/>
	<rect x="500.000000" y="665.000000" width="120.000000" height="80.000000" fill="Olive" stroke="darkblue" stroke-width="1.000000"/>
	<rect x="500.000000" y="570.000000" width="120.000000" height="80.000000" fill="Olive" stroke="darkblue" stroke-width="1.000000"/>
	<rect x="500.000000" y="855.000000" width="120.000000" height="80.000000" fill="Olive" stroke="darkblue" stroke-width="1.000000"/>
	<rect x="500.000000" y="760.000000" width="120.000000" height="80.000000" fill="Olive" stroke="darkblue" stroke-width="1.000000"/>
	<rect x="500.000000" y="950.000000" width="120.000000" height="80.000000" fill="Olive" stroke="darkblue" stroke-width="1.000000"/>
	<rect x="635.000000" y="570.000000" width="120.000000" height="80.000000" fill="Olive" stroke="darkblue" stroke-width="1.000000"/>
	<rect x="635.000000" y="285.000000" width="120.000000" height="80.000000" fill="Olive" stroke="darkblue" stroke-width="1.000000"/>
	<rect x="635.000000" y="190.000000" width="120.000000" height="80.000000" fill="Olive" stroke="darkblue" stroke-width="1.000000"/>
	<rect x="635.000000" y="380.000000" width="120.000000" height="80.000000" fill="Olive" stroke="darkblue" stroke-width="1.000000"/>
	<rect x="635.000000" y="665.000000" width="120.000000" height="80.000000" fill="Olive" stroke="darkblue" stroke-width="1.000000"/>
	<rect x="635.000000" y="855.000000" width="120.000000" height="80.000000" fill="Olive" stroke="darkblue" stroke-width="1.000000"/>
	<rect x="635.000000" y="760.000000" width="120.000000" height="80.000000" fill="Olive" stroke="darkblue" stroke-width="1.000000"/>
	<rect x="635.000000" y="950.000000" width="120.000000" height="80.000000" fill="Olive" stroke="darkblue" stroke-width="1.000000"/>
	<rect x="905.000000" y="95.000000" width="120.000000" height="80.000000" fill="Olive" stroke="darkblue" stroke-width="1.000000"/>
	<rect x="770.000000" y="570.000000" width="120.000000" height="80.000000" fill="Olive" stroke="darkblue" stroke-width="1.000000"/>
	<rect x="770.000000" y="285.000000" width="120.000000" height="80.000000" fill="Olive" stroke="darkblue" stroke-width="1.000000"/>
	<rect x="770.000000" y="190.000000" width="120.000000" height="80.000000" fill="Olive" stroke="darkblue" stroke-width="1.000000"/>
	<rect x="770.000000" y="380.000000" width="120.000000" height="80.000000" fill="Olive" stroke="darkblue" stroke-width="1.000000"/>
	<rect x="770.000000" y="665.000000" width="120.000000" height="80.000000" fill="Olive" stroke="darkblue" stroke-width="1.000000"/>
	<rect x="770.000000" y="855.000000" width="120.000000" height="80.000000" fill="Olive" stroke="darkblue" stroke-width="1.000000"/>
	<rect x="770.000000" y="760.000000" width="120.000000" height="80.000000" fill="Olive" stroke="darkblue" stroke-width="1.000000"/>
	<rect x="770.000000" y="950.000000" width="120.000000" height="80.000000" fill="Olive" stroke="darkblue" stroke-width="1.000000"/>
	<rect x="905.000000" y="475.000000" width="120.000000" height="80.000000" fill="Olive" stroke="darkblue" stroke-width="1.000000"/>
	<rect x="905.000000" y="285.000000" width="120.000000" height="80.000000" fill="Olive" stroke="darkblue" stroke-width="1.000000"/>
	<rect x="905.000000" y="190.000000" width="120.000000" height="80.000000" fill="Olive" stroke="darkblue" stroke-width="1.000000"/>
	<rect x="905.000000" y="380.000000" width="120.000000" height="80.000000" fill="Olive" stroke="darkblue" stroke-width="1.000000"/>
	<rect x="905.000000" y="665.000000" width="120.000000" height="80.000000" fill="Olive" stroke="darkblue" stroke-width="1.000000"/>
	<rect x="905.000000" y="570.000000" width="120.000000" height="80.000000" fill="Olive" stroke="darkblue" stroke-width="1.000000"/>
	<rect x="905.000000" y="855.000000" width="120.000000" height="80.000000" fill="Olive" stroke="darkblue" stroke-width="1.000000"/>
	<rect x="905.000000" y="760.000000" width="120.000000" height="80.000000" fill="Olive" stroke="darkblue" stroke-width="1.000000"/>
	<rect x="905.000000" y="950.000000" width="120.000000" height="80.000000" fill="Olive" stroke="darkblue" stroke-width="1.000000"/>
	<rect x="1175.000000" y="95.000000" width="120.000000" height="80.000000" fill="Olive" stroke="darkblue" stroke-width="1.000000"/>
	<rect x="1040.000000" y="475.000000" width="120.000000" height="80.000000" fill="Olive" stroke="darkblue" stroke-width="1.000000"/>
	<rect x="1040.000000" y="285.000000" width="120.000000" height="80.000000" fill="Olive" stroke="darkblue" stroke-width="1.000000"/>
	<rect x="1040.000000" y="190.000000" width="120.000000" height="80.000000" fill="Olive" stroke="darkblue" stroke-width="1.000000"/>
	<rect x="1040.000000" y="380.000000" width="120.000000" height="80.000000" fill="Olive" stroke="darkblue" stroke-width="1.000000"/>
	<rect x="1040.000000" y="665.000000" width="120.000000" height="80.000000" fill="Olive" stroke="darkblue" stroke-width="1.000000"/>
	<rect x="1040.000000" y="570.000000" width="120.000000" height="80.000000" fill="Olive" stroke="darkblue" stroke-width="1.000000"/>
	<rect x="1040.000000" y="855.000000" width="120.000000" height="80.000000" fill="Olive" stroke="darkblue" stroke-width="1.000000"/>
	<rect x="1040.000000" y="760.000000" width="120.000000" height="80.000000" fill="Olive" stroke="darkblue" stroke-width="1.000000"/>
	<rect x="1040.000000" y="950.000000" width="120.000000" height="80.000000" fill="Olive" stroke="darkblue" stroke-width="1.000000"/>
	<rect x="1310.000000" y="95.000000" width="120.000000" height="80.000000" fill="Olive" stroke="darkblue" stroke-width="1.000000"/>
	<rect x="1175.000000" y="475.000000" width="120.000000" height="80.000000" fill="Olive" stroke="darkblue" stroke-width="1.000000"/>
	<rect x="1175.000000" y="285.000000" width="120.000000" height="80.000000" fill="Olive" stroke="darkblue" stroke-width="1.000000"/>
	<rect x="1175.000000" y="190.000000" width="120.000000" height="80.000000" fill="Olive" stroke="darkblue" stroke-width="1.000000"/>
	<rect x="1175.000000" y="380.000000" width="120.000000" height="80.000000" fill="Olive" stroke="darkblue" stroke-width="1.000000"/>
	<rect x="1175.000000" y="665.000000" width="120.000000" height="80.000000" fill="Olive" stroke="darkblue" stroke-width="1.000000"/>
	<rect x="1175.000000" y="570.000000" width="120.000000" height="80.000000" fill="Olive" stroke="darkblue" stroke-width="1.000000"/>
	<rect x="1175.000000" y="855.000000" width="120.000000" height="80.000000" fill="Olive" stroke="darkblue" stroke-width="1.000000"/>
	<rect x="1175.000000" y="760.000000" width="120.000000" height="80.000000" fill="Olive" stroke="darkblue" stroke-width="1.000000"/>
	<rect x="1175.000000" y="950.000000" width="120.000000" height="80.000000" fill="Olive" stroke="darkblue" stroke-width="1.000000"/>
	<rect x="1310.000000" y="475.000000" width="120.000000" height="80.000000" fill="Olive" stroke="darkblue" stroke-width="1.000000"/>
	<rect x="1310.000000" y="285.000000" width="120.000000" height="80.000000" fill="Olive" stroke="darkblue" stroke-width="1.000000"/>
	<rect x="1310.000000" y="190.000000" width="120.000000" height="80.000000" fill="Olive" stroke="darkblue" stroke-width="1.000000"/>
	<rect x="1310.000000" y="380.000000" width="120.000000" height="80.000000" fill="Olive" stroke="darkblue" stroke-width="1.000000"/>
	<rect x="1310.000000" y="665.000000" width="120.000000" height="80.000000" fill="Olive" stroke="darkblue" stroke-width="1.000000"/>
	<rect x="1310.000000" y="570.000000" width="120.000000" height="80.000000" fill="Olive" stroke="darkblue" stroke-width="1.000000"/>
	<rect x="1310.000000" y="855.000000" width="120.000000" height="80.000000" fill="Olive" stroke="darkblue" stroke-width="1.000000"/>
	<rect x="1310.000000" y="760.000000" width="120.000000" height="80.000000" fill="Olive" stroke="darkblue" stroke-width="1.000000"/>
	<rect x="1310.000000" y="950.000000" width="120.000000" height="80.000000" fill="Olive" stroke="darkblue" stroke-width="1.000000"/>
</svg>