<svg xmlns="http://www.w3.org/2000/svg">
<rect x="225.400000" y="279.300000" width="108.000000" height="72.000000" fill="#AB37C8" stroke="#AA0044" fill-opacity="50%" />
	<line x1="1281.000000" y1="750.000000" x2="1281.000000" y2="770.000000" stroke="purple" stroke-width="1.2%" />
	<line x1="1281.000000" y1="760.000000" x2="635.000000" y2="208.000000" stroke="red" stroke-width="1.2%" />
	<line x1="1281.000000" y1="760.000000" x2="1175.000000" y2="382.000000" stroke="red" stroke-width="1.2%" />
	<line x1="1281.000000" y1="760.000000" x2="259.000000" y2="760.000000" stroke="red" stroke-width="1.2%" />
	<rect cep="b01.4" x="500.000000" y="95.000000" width="120.000000" height="80.000000" stroke="darkblue" fill="Olive" fill-opacity="45%" stroke-width="1.0px" />
	<rect cep="b01.2" x="230.000000" y="95.000000" width="120.000000" height="80.000000" stroke="darkblue" fill="Olive" fill-opacity="45%" stroke-width="1.0px" />
	<rect cep="b04.1" x="95.000000" y="380.000000" width="120.000000" height="80.000000" stroke="darkblue" fill="Olive" fill-opacity="45%" stroke-width="1.0px" />
	<rect cep="b02.1" x="95.000000" y="190.000000" width="120.000000" height="80.000000" stroke="darkblue" fill="Olive" fill-opacity="45%" stroke-width="1.0px" />
	<rect cep="b01.1" x="95.000000" y="95.000000" width="120.000000" height="80.000000" stroke="darkblue" fill="Olive" fill-opacity="45%" stroke-width="1.0px" />
	<rect cep="b03.1" x="95.000000" y="285.000000" width="120.000000" height="80.000000" stroke="darkblue" fill="Olive" fill-opacity="45%" stroke-width="1.0px" />
	<rect cep="b06.1" x="95.000000" y="570.000000" width="120.000000" height="80.000000" stroke="darkblue" fill="Olive" fill-opacity="45%" stroke-width="1.0px" />
	<rect cep="b05.1" x="95.000000" y="475.000000" width="120.000000" height="80.000000" stroke="darkblue" fill="Olive" fill-opacity="45%" stroke-width="1.0px" />
	<rect cep="b08.1" x="95.000000" y="760.000000" width="120.000000" height="80.000000" stroke="darkblue" fill="Olive" fill-opacity="45%" stroke-width="1.0px" />
	<rect cep="b07.1" x="95.000000" y="665.000000" width="120.000000" height="80.000000" stroke="darkblue" fill="Olive" fill-opacity="45%" stroke-width="1.0px" />
	<rect cep="b09.1" x="95.000000" y="855.000000" width="120.000000" height="80.000000" stroke="darkblue" fill="Olive" fill-opacity="45%" stroke-width="1.0px" />
	<rect cep="b010.1" x="95.000000" y="950.000000" width="120.000000" height="80.000000" stroke="darkblue" fill="Olive" fill-opacity="45%" stroke-width="1.0px" />
	<rect cep="b01.3" x="365.000000" y="95.000000" width="120.000000" height="80.000000" stroke="darkblue" fill="Olive" fill-opacity="45%" stroke-width="1.0px" />
	<rect cep="b05.2" x="230.000000" y="475.000000" width="120.000000" height="80.000000" stroke="darkblue" fill="Olive" fill-opacity="45%" stroke-width="1.0px" />
	<rect cep="b03.2" x="230.000000" y="285.000000" width="120.000000" height="80.000000" stroke="darkblue" fill="Olive" fill-opacity="45%" stroke-width="1.0px" />
	<rect cep="b02.2" x="230.000000" y="190.000000" width="120.000000" height="80.000000" stroke="darkblue" fill="Olive" fill-opacity="45%" stroke-width="1.0px" />
	<rect cep="b04.2" x="230.000000" y="380.000000" width="120.000000" height="80.000000" stroke="darkblue" fill="Olive" fill-opacity="45%" stroke-width="1.0px" />
	<rect cep="b07.2" x="230.000000" y="665.000000" width="120.000000" height="80.000000" stroke="darkblue" fill="Olive" fill-opacity="45%" stroke-width="1.0px" />
	<rect cep="b06.2" x="230.000000" y="570.000000" width="120.000000" height="80.000000" stroke="darkblue" fill="Olive" fill-opacity="45%" stroke-width="1.0px" />
	<rect cep="b09.2" x="230.000000" y="855.000000" width="120.000000" height="80.000000" stroke="darkblue" fill="Olive" fill-opacity="45%" stroke-width="1.0px" />
	<rect cep="b08.2" x="230.000000" y="760.000000" width="120.000000" height="80.000000" stroke="darkblue" fill="Olive" fill-opacity="45%" stroke-width="1.0px" />
	<rect cep="b010.2" x="230.000000" y="950.000000" width="120.000000" height="80.000000" stroke="darkblue" fill="Olive" fill-opacity="45%" stroke-width="1.0px" />
	<rect cep="b05.3" x="365.000000" y="475.000000" width="120.000000" height="80.000000" stroke="darkblue" fill="Olive" fill-opacity="45%" stroke-width="1.0px" />
	<rect cep="b03.3" x="365.000000" y="285.000000" width="120.000000" height="80.000000" stroke="darkblue" fill="Olive" fill-opacity="45%" stroke-width="1.0px" />
	<rect cep="b02.3" x="365.000000" y="190.000000" width="120.000000" height="80.000000" stroke="darkblue" fill="Olive" fill-opacity="45%" stroke-width="1.0px" />
	<rect cep="b04.3" x="365.000000" y="380.000000" width="120.000000" height="80.000000" stroke="darkblue" fill="Olive" fill-opacity="45%" stroke-width="1.0px" />
	<rect cep="b07.3" x="365.000000" y="665.000000" width="120.000000" height="80.000000" stroke="darkblue" fill="Olive" fill-opacity="45%" stroke-width="1.0px" />
	<rect cep="b06.3" x="365.000000" y="570.000000" width="120.000000" height="80.000000" stroke="darkblue" fill="Olive" fill-opacity="45%" stroke-width="1.0px" />
	<rect cep="b09.3" x="365.000000" y="855.000000" width="120.000000" height="80.000000" stroke="darkblue" fill="Olive" fill-opacity="45%" stroke-width="1.0px" />
	<rect cep="b08.3" x="365.000000" y="760.000000" width="120.000000" height="80.000000" stroke="darkblue" fill="Olive" fill-opacity="45%" stroke-width="1.0px" />
	<rect cep="b010.3" x="365.000000" y="950.000000" width="120.000000" height="80.000000" stroke="darkblue" fill="Olive" fill-opacity="45%" stroke-width="1.0px" />
	<rect cep="b01.8" x="1040.000000" y="95.000000" width="120.000000" height="80.000000" stroke="darkblue" fill="Olive" fill-opacity="45%" stroke-width="1.0px" />
	<rect cep="b01.6" x="770.000000" y="95.000000" width="120.000000" height="80.000000" stroke="darkblue" fill="Olive" fill-opacity="45%" stroke-width="1.0px" />
	<rect cep="b01.5" x="635.000000" y="95.000000" width="120.000000" height="80.000000" stroke="darkblue" fill="Olive" fill-opacity="45%" stroke-width="1.0px" />
	<rect cep="b05.4" x="500.000000" y="475.000000" width="120.000000" height="80.000000" stroke="darkblue" fill="Olive" fill-opacity="45%" stroke-width="1.0px" />
	<rect cep="b03.4" x="500.000000" y="285.000000" width="120.000000" height="80.000000" stroke="darkblue" fill="Olive" fill-opacity="45%" stroke-width="1.0px" />
	<rect cep="b02.4" x="500.000000" y="190.000000" width="120.000000" height="80.000000" stroke="darkblue" fill="Olive" fill-opacity="45%" stroke-width="1.0px" />
	<rect cep="b04.4" x="500.000000" y="380.000000" width="120.000000" height="80.000000" stroke="darkblue" fill="Olive" fill-opacity="45%" stroke-width="1.0px" />
	<rect cep="b07.4" x="500.000000" y="665.000000" width="120.000000" height="80.000000" stroke="darkblue" fill="Olive" fill-opacity="45%" stroke-width="1.0px" />
	<rect cep="b06.4" x="500.000000" y="570.000000" width="120.000000" height="80.000000" stroke="darkblue" fill="Olive" fill-opacity="45%" stroke-width="1.0px" />
	<rect cep="b09.4" x="500.000000" y="855.000000" width="120.000000" height="80.000000" stroke="darkblue" fill="Olive" fill-opacity="45%" stroke-width="1.0px" />
	<rect cep="b08.4" x="500.000000" y="760.000000" width="120.000000" height="80.000000" stroke="darkblue" fill="Olive" fill-opacity="45%" stroke-width="1.0px" />
	<rect cep="b010.4" x="500.000000" y="950.000000" width="120.000000" height="80.000000" stroke="darkblue" fill="Olive" fill-opacity="45%" stroke-width="1.0px" />
	<rect cep="b05.5" x="635.000000" y="475.000000" width="120.000000" height="80.000000" stroke="darkblue" fill="Olive" fill-opacity="45%" stroke-width="1.0px" />
	<rect cep="b03.5" x="635.000000" y="285.000000" width="120.000000" height="80.000000" stroke="darkblue" fill="Olive" fill-opacity="45%" stroke-width="1.0px" />
	<rect cep="b02.5" x="635.000000" y="190.000000" width="120.000000" height="80.000000" stroke="darkblue" fill="Olive" fill-opacity="45%" stroke-width="1.0px" />
	<rect cep="b04.5" x="635.000000" y="380.000000" width="120.000000" height="80.000000" stroke="darkblue" fill="Olive" fill-opacity="45%" stroke-width="1.0px" />
	<rect cep="b07.5" x="635.000000" y="665.000000" width="120.000000" height="80.000000" stroke="darkblue" fill="Olive" fill-opacity="45%" stroke-width="1.0px" />
	<rect cep="b06.5" x="635.000000" y="570.000000" width="120.000000" height="80.000000" stroke="darkblue" fill="Olive" fill-opacity="45%" stroke-width="1.0px" />
	<rect cep="b09.5" x="635.000000" y="855.000000" width="120.000000" height="80.000000" stroke="darkblue" fill="Olive" fill-opacity="45%" stroke-width="1.0px" />
	<rect cep="b08.5" x="635.000000" y="760.000000" width="120.000000" height="80.000000" stroke="darkblue" fill="Olive" fill-opacity="45%" stroke-width="1.0px" />
	<rect cep="b010.5" x="635.000000" y="950.000000" width="120.000000" height="80.000000" stroke="darkblue" fill="Olive" fill-opacity="45%" stroke-width="1.0px" />
	<rect cep="b01.7" x="905.000000" y="95.000000" width="120.000000" height="80.000000" stroke="darkblue" fill="Olive" fill-opacity="45%" stroke-width="1.0px" />
	<rect cep="b05.6" x="770.000000" y="475.000000" width="120.000000" height="80.000000" stroke="darkblue" fill="Olive" fill-opacity="45%" stroke-width="1.0px" />
	<rect cep="b03.6" x="770.000000" y="285.000000" width="120.000000" height="80.000000" stroke="darkblue" fill="Olive" fill-opacity="45%" stroke-width="1.0px" />
	<rect cep="b02.6" x="770.000000" y="190.000000" width="120.000000" height="80.000000" stroke="darkblue" fill="Olive" fill-opacity="45%" stroke-width="1.0px" />
	<rect cep="b04.6" x="770.000000" y="380.000000" width="120.000000" height="80.000000" stroke="darkblue" fill="Olive" fill-opacity="45%" stroke-width="1.0px" />
	<rect cep="b07.6" x="770.000000" y="665.000000" width="120.000000" height="80.000000" stroke="darkblue" fill="Olive" fill-opacity="45%" stroke-width="1.0px" />
	<rect cep="b06.6" x="770.000000" y="570.000000" width="120.000000" height="80.000000" stroke="darkblue" fill="Olive" fill-opacity="45%" stroke-width="1.0px" />
	<rect cep="b09.6" x="770.000000" y="855.000000" width="120.000000" height="80.000000" stroke="darkblue" fill="Olive" fill-opacity="45%" stroke-width="1.0px" />
	<rect cep="b08.6" x="770.000000" y="760.000000" width="120.000000" height="80.000000" stroke="darkblue" fill="Olive" fill-opacity="45%" stroke-width="1.0px" />
	<rect cep="b010.6" x="770.000000" y="950.000000" width="120.000000" height="80.000000" stroke="darkblue" fill="Olive" fill-opacity="45%" stroke-width="1.0px" />
	<rect cep="b05.7" x="905.000000" y="475.000000" width="120.000000" height="80.000000" stroke="darkblue" fill="Olive" fill-opacity="45%" stroke-width="1.0px" />
	<rect cep="b03.7" x="905.000000" y="285.000000" width="120.000000" height="80.000000" stroke="darkblue" fill="Olive" fill-opacity="45%" stroke-width="1.0px" />
	<rect cep="b02.7" x="905.000000" y="190.000000" width="120.000000" height="80.000000" stroke="darkblue" fill="Olive" fill-opacity="45%" stroke-width="1.0px" />
	<rect cep="b04.7" x="905.000000" y="380.000000" width="120.000000" height="80.000000" stroke="darkblue" fill="Olive" fill-opacity="45%" stroke-width="1.0px" />
	<rect cep="b07.7" x="905.000000" y="665.000000" width="120.000000" height="80.000000" stroke="darkblue" fill="Olive" fill-opacity="45%" stroke-width="1.0px" />
	<rect cep="b06.7" x="905.000000" y="570.000000" width="120.000000" height="80.000000" stroke="darkblue" fill="Olive" fill-opacity="45%" stroke-width="1.0px" />
	<rect cep="b09.7" x="905.000000" y="855.000000" width="120.000000" height="80.000000" stroke="darkblue" fill="Olive" fill-opacity="45%" stroke-width="1.0px" />
	<rect cep="b08.7" x="905.000000" y="760.000000" width="120.000000" height="80.000000" stroke="darkblue" fill="Olive" fill-opacity="45%" stroke-width="1.0px" />
	<rect cep="b010.7" x="905.000000" y="950.000000" width="120.000000" height="80.000000" stroke="darkblue" fill="Olive" fill-opacity="45%" stroke-width="1.0px" />
	<rect cep="b01.9" x="1175.000000" y="95.000000" width="120.000000" height="80.000000" stroke="darkblue" fill="Olive" fill-opacity="45%" stroke-width="1.0px" />
	<rect cep="b05.8" x="1040.000000" y="475.000000" width="120.000000" height="80.000000" stroke="darkblue" fill="Olive" fill-opacity="45%" stroke-width="1.0px" />
	<rect cep="b03.8" x="1040.000000" y="285.000000" width="120.000000" height="80.000000" stroke="darkblue" fill="Olive" fill-opacity="45%" stroke-width="1.0px" />
	<rect cep="b02.8" x="1040.000000" y="190.000000" width="120.000000" height="80.000000" stroke="darkblue" fill="Olive" fill-opacity="45%" stroke-width="1.0px" />
	<rect cep="b04.8" x="1040.000000" y="380.000000" width="120.000000" height="80.000000" stroke="darkblue" fill="Olive" fill-opacity="45%" stroke-width="1.0px" />
	<rect cep="b07.8" x="1040.000000" y="665.000000" width="120.000000" height="80.000000" stroke="darkblue" fill="Olive" fill-opacity="45%" stroke-width="1.0px" />
	<rect cep="b06.8" x="1040.000000" y="570.000000" width="120.000000" height="80.000000" stroke="darkblue" fill="Olive" fill-opacity="45%" stroke-width="1.0px" />
	<rect cep="b09.8" x="1040.000000" y="855.000000" width="120.000000" height="80.000000" stroke="darkblue" fill="Olive" fill-opacity="45%" stroke-width="1.0px" />
	<rect cep="b08.8" x="1040.000000" y="760.000000" width="120.000000" height="80.000000" stroke="darkblue" fill="Olive" fill-opacity="45%" stroke-width="1.0px" />
	<rect cep="b010.8" x="1040.000000" y="950.000000" width="120.000000" height="80.000000" stroke="darkblue" fill="Olive" fill-opacity="45%" stroke-width="1.0px" />
	<rect cep="b01.10" x="1310.000000" y="95.000000" width="120.000000" height="80.000000" stroke="darkblue" fill="Olive" fill-opacity="45%" stroke-width="1.0px" />
	<rect cep="b05.9" x="1175.000000" y="475.000000" width="120.000000" height="80.000000" stroke="darkblue" fill="Olive" fill-opacity="45%" stroke-width="1.0px" />
	<rect cep="b03.9" x="1175.000000" y="285.000000" width="120.000000" height="80.000000" stroke="darkblue" fill="Olive" fill-opacity="45%" stroke-width="1.0px" />
	<rect cep="b02.9" x="1175.000000" y="190.000000" width="120.000000" height="80.000000" stroke="darkblue" fill="Olive" fill-opacity="45%" stroke-width="1.0px" />
	<rect cep="b04.9" x="1175.000000" y="380.000000" width="120.000000" height="80.000000" stroke="darkblue" fill="Olive" fill-opacity="45%" stroke-width="1.0px" />
	<rect cep="b07.9" x="1175.000000" y="665.000000" width="120.000000" height="80.000000" stroke="darkblue" fill="Olive" fill-opacity="45%" stroke-width="1.0px" />
	<rect cep="b06.9" x="1175.000000" y="570.000000" width="120.000000" height="80.000000" stroke="darkblue" fill="Olive" fill-opacity="45%" stroke-width="1.0px" />
	<rect cep="b09.9" x="1175.000000" y="855.000000" width="120.000000" height="80.000000" stroke="darkblue" fill="Olive" fill-opacity="45%" stroke-width="1.0px" />
	<rect cep="b08.9" x="1175.000000" y="760.000000" width="120.000000" height="80.000000" stroke="darkblue" fill="Olive" fill-opacity="45%" stroke-width="1.0px" />
	<rect cep="b010.9" x="1175.000000" y="950.000000" width="120.000000" height="80.000000" stroke="darkblue" fill="Olive" fill-opacity="45%" stroke-width="1.0px" />
	<rect cep="b05.10" x="1310.000000" y="475.000000" width="120.000000" height="80.000000" stroke="darkblue" fill="Olive" fill-opacity="45%" stroke-width="1.0px" />
	<rect cep="b03.10" x="1310.000000" y="285.000000" width="120.000000" height="80.000000" stroke="darkblue" fill="Olive" fill-opacity="45%" stroke-width="1.0px" />
	<rect cep="b02.10" x="1310.000000" y="190.000000" width="120.000000" height="80.000000" stroke="darkblue" fill="Olive" fill-opacity="45%" stroke-width="1.0px" />
	<rect cep="b04.10" x="1310.000000" y="380.000000" width="120.000000" height="80.000000" stroke="darkblue" fill="Olive" fill-opacity="45%" stroke-width="1.0px" />
	<rect cep="b07.10" x="1310.000000" y="665.000000" width="120.000000" height="80.000000" stroke="darkblue" fill="Olive" fill-opacity="45%" stroke-width="1.0px" />
	<rect cep="b06.10" x="1310.000000" y="570.000000" width="120.000000" height="80.000000" stroke="darkblue" fill="Olive" fill-opacity="45%" stroke-width="1.0px" />
	<rect cep="b09.10" x="1310.000000" y="855.000000" width="120.000000" height="80.000000" stroke="darkblue" fill="Olive" fill-opacity="45%" stroke-width="1.0px" />
	<rect cep="b08.10" x="1310.000000" y="760.000000" width="120.000000" height="80.000000" stroke="darkblue" fill="Olive" fill-opacity="45%" stroke-width="1.0px" />
	<rect cep="b010.10" x="1310.000000" y="950.000000" width="120.000000" height="80.000000" stroke="darkblue" fill="Olive" fill-opacity="45%" stroke-width="1.0px" />
</svg>