<svg xmlns="http://www.w3.org/2000/svg">
	<line id="1" x1="174.000000" y1="10.000000" x2="166.000000" y2="6.000000" stroke="blue" fill-opacity="50%" />
	<line id="2" x1="21.000000" y1="42.000000" x2="23.000000" y2="76.000000" stroke="blue" fill-opacity="50%" />
	<line id="3" x1="66.000000" y1="42.000000" x2="64.000000" y2="79.000000" stroke="blue" fill-opacity="50%" />
	<line id="4" x1="21.000000" y1="83.000000" x2="63.000000" y2="83.000000" stroke="blue" fill-opacity="50%" />
	<line id="5" x1="24.000000" y1="38.000000" x2="60.000000" y2="39.000000" stroke="blue" fill-opacity="50%" />
	<line id="6" x1="22.000000" y1="37.000000" x2="40.000000" y2="28.000000" stroke="blue" fill-opacity="50%" />
	<line id="7" x1="43.000000" y1="27.000000" x2="82.000000" y2="27.000000" stroke="blue" fill-opacity="50%" />
	<line id="8" x1="83.000000" y1="70.000000" x2="82.000000" y2="29.000000" stroke="blue" fill-opacity="50%" />
	<line id="9" x1="65.000000" y1="38.000000" x2="83.000000" y2="27.000000" stroke="blue" fill-opacity="50%" />
	<line id="10" x1="65.000000" y1="82.000000" x2="81.000000" y2="72.000000" stroke="blue" fill-opacity="50%" />
	<line id="11" x1="42.000000" y1="27.000000" x2="41.000000" y2="72.000000" stroke="blue" fill-opacity="50%" />
	<line id="12" x1="83.000000" y1="72.000000" x2="41.000000" y2="71.000000" stroke="blue" fill-opacity="50%" />
	<line id="13" x1="26.000000" y1="46.000000" x2="26.000000" y2="57.000000" stroke="blue" fill-opacity="50%" />
	<line id="14" x1="37.000000" y1="57.000000" x2="27.000000" y2="56.000000" stroke="blue" fill-opacity="50%" />
	<line id="15" x1="37.000000" y1="55.000000" x2="37.000000" y2="46.000000" stroke="blue" fill-opacity="50%" />
	<line id="16" x1="25.000000" y1="45.000000" x2="37.000000" y2="45.000000" stroke="blue" fill-opacity="50%" />
	<line id="17" x1="45.000000" y1="80.000000" x2="45.000000" y2="58.000000" stroke="blue" fill-opacity="50%" />
	<line id="18" x1="45.000000" y1="55.000000" x2="57.000000" y2="55.000000" stroke="blue" fill-opacity="50%" />
	<line id="19" x1="57.000000" y1="58.000000" x2="57.000000" y2="80.000000" stroke="blue" fill-opacity="50%" />
	<line id="20" x1="144.000000" y1="71.000000" x2="166.000000" y2="82.000000" stroke="blue" fill-opacity="50%" />
	<line id="21" x1="161.000000" y1="74.000000" x2="174.000000" y2="105.000000" stroke="blue" fill-opacity="50%" />
	<line id="22" x1="172.000000" y1="92.000000" x2="158.000000" y2="118.000000" stroke="blue" fill-opacity="50%" />
	<line id="23" x1="169.000000" y1="113.000000" x2="127.000000" y2="116.000000" stroke="blue" fill-opacity="50%" />
	<line id="24" x1="127.000000" y1="123.000000" x2="107.000000" y2="91.000000" stroke="blue" fill-opacity="50%" />
	<line id="25" x1="104.000000" y1="104.000000" x2="135.000000" y2="69.000000" stroke="blue" fill-opacity="50%" />
	<line id="26" x1="116.000000" y1="37.000000" x2="116.000000" y2="70.000000" stroke="blue" fill-opacity="50%" />
	<line id="27" x1="119.000000" y1="35.000000" x2="137.000000" y2="22.000000" stroke="blue" fill-opacity="50%" />
	<line id="28" x1="117.000000" y1="35.000000" x2="116.000000" y2="16.000000" stroke="blue" fill-opacity="50%" />
	<line id="29" x1="114.000000" y1="35.000000" x2="101.000000" y2="24.000000" stroke="blue" fill-opacity="50%" />
	<line id="30" x1="117.000000" y1="25.000000" x2="105.000000" y2="17.000000" stroke="blue" fill-opacity="50%" />
	<line id="31" x1="121.000000" y1="26.000000" x2="128.000000" y2="18.000000" stroke="blue" fill-opacity="50%" />
	<line id="32" x1="121.000000" y1="18.000000" x2="129.000000" y2="7.000000" stroke="blue" fill-opacity="50%" />
	<line id="33" x1="176.000000" y1="30.000000" x2="176.000000" y2="64.000000" stroke="blue" fill-opacity="50%" />
	<line id="34" x1="179.000000" y1="28.000000" x2="197.000000" y2="16.000000" stroke="blue" fill-opacity="50%" />
	<line id="35" x1="176.000000" y1="29.000000" x2="179.000000" y2="9.000000" stroke="blue" fill-opacity="50%" />
	<line id="36" x1="173.000000" y1="28.000000" x2="161.000000" y2="17.000000" stroke="blue" fill-opacity="50%" />
	<line id="37" x1="177.000000" y1="19.000000" x2="165.000000" y2="10.000000" stroke="blue" fill-opacity="50%" />
	<line id="38" x1="180.000000" y1="12.000000" x2="187.000000" y2="5.000000" stroke="blue" fill-opacity="50%" />
	<line id="39" x1="44.000000" y1="85.000000" x2="29.000000" y2="96.000000" stroke="blue" fill-opacity="50%" />
	<line id="40" x1="26.000000" y1="96.000000" x2="8.000000" y2="124.000000" stroke="blue" fill-opacity="50%" />
	<line id="41" x1="57.000000" y1="86.000000" x2="41.000000" y2="98.000000" stroke="blue" fill-opacity="50%" />
	<line id="42" x1="39.000000" y1="98.000000" x2="21.000000" y2="126.000000" stroke="blue" fill-opacity="50%" />
	<line id="43" x1="23.000000" y1="81.000000" x2="39.000000" y2="72.000000" stroke="blue" fill-opacity="50%" />
	<line id="44" x1="182.000000" y1="18.000000" x2="190.000000" y2="7.000000" stroke="blue" fill-opacity="50%" />
	<line id="45" x1="21.000000" y1="38.000000" x2="40.000000" y2="13.000000" stroke="blue" fill-opacity="50%" />
	<line id="46" x1="38.000000" y1="10.000000" x2="73.000000" y2="45.000000" stroke="blue" fill-opacity="50%" />
	<line id="47" x1="70.000000" y1="6.000000" x2="33.000000" y2="13.000000" stroke="blue" fill-opacity="50%" />
	<line id="48" x1="87.000000" y1="28.000000" x2="59.000000" y2="1.000000" stroke="blue" fill-opacity="50%" />
	<rect x="8.000000" y="1.000000" width="94.500000" height="62.500000" stroke="red" fill="white" fill-opacity="3%" />
	<circle cx="24.000000" cy="38.000000" r="1.750000" stroke="red" fill="white" fill-opacity="25%" />
	<circle cx="22.000000" cy="37.000000" r="1.750000" stroke="red" fill="white" fill-opacity="25%" />
	<circle cx="43.000000" cy="27.000000" r="1.750000" stroke="red" fill="white" fill-opacity="25%" />
	<circle cx="65.000000" cy="38.000000" r="1.750000" stroke="red" fill="white" fill-opacity="25%" />
	<circle cx="26.000000" cy="46.000000" r="1.750000" stroke="red" fill="white" fill-opacity="25%" />
	<circle cx="37.000000" cy="57.000000" r="1.750000" stroke="red" fill="white" fill-opacity="25%" />
	<circle cx="37.000000" cy="55.000000" r="1.750000" stroke="red" fill="white" fill-opacity="25%" />
	<circle cx="25.000000" cy="45.000000" r="1.750000" stroke="red" fill="white" fill-opacity="25%" />
	<circle cx="45.000000" cy="55.000000" r="1.750000" stroke="red" fill="white" fill-opacity="25%" />
	<circle cx="21.000000" cy="38.000000" r="1.750000" stroke="red" fill="white" fill-opacity="25%" />
	<circle cx="38.000000" cy="10.000000" r="1.750000" stroke="red" fill="white" fill-opacity="25%" />
	<circle cx="70.000000" cy="6.000000" r="1.750000" stroke="red" fill="white" fill-opacity="25%" />
	<circle cx="87.000000" cy="28.000000" r="1.750000" stroke="red" fill="white" fill-opacity="25%" />
	<line id="58" x1="213.000000" y1="163.000000" x2="249.000000" y2="164.000000" stroke="#800080" fill-opacity="50%" />
	<line id="59" x1="211.000000" y1="162.000000" x2="229.000000" y2="153.000000" stroke="#800080" fill-opacity="50%" />
	<line id="60" x1="232.000000" y1="152.000000" x2="271.000000" y2="152.000000" stroke="#800080" fill-opacity="50%" />
	<line id="61" x1="254.000000" y1="163.000000" x2="272.000000" y2="152.000000" stroke="#800080" fill-opacity="50%" />
	<line id="62" x1="215.000000" y1="171.000000" x2="215.000000" y2="182.000000" stroke="#800080" fill-opacity="50%" />
	<line id="63" x1="226.000000" y1="182.000000" x2="216.000000" y2="181.000000" stroke="#800080" fill-opacity="50%" />
	<line id="64" x1="226.000000" y1="180.000000" x2="226.000000" y2="171.000000" stroke="#800080" fill-opacity="50%" />
	<line id="65" x1="214.000000" y1="170.000000" x2="226.000000" y2="170.000000" stroke="#800080" fill-opacity="50%" />
	<line id="66" x1="234.000000" y1="180.000000" x2="246.000000" y2="180.000000" stroke="#800080" fill-opacity="50%" />
	<line id="67" x1="210.000000" y1="163.000000" x2="229.000000" y2="138.000000" stroke="#800080" fill-opacity="50%" />
	<line id="68" x1="227.000000" y1="135.000000" x2="262.000000" y2="170.000000" stroke="#800080" fill-opacity="50%" />
	<line id="69" x1="259.000000" y1="131.000000" x2="222.000000" y2="138.000000" stroke="#800080" fill-opacity="50%" />
	<line id="70" x1="276.000000" y1="153.000000" x2="248.000000" y2="126.000000" stroke="#800080" fill-opacity="50%" />
</svg>