<svg xmlns="http://www.w3.org/2000/svg">
	<line id="50" x1="820.000000" y1="300.000000" x2="840.000000" y2="301.000000" stroke="#002255" />
	<line id="51" x1="794.960569" y1="400.158898" x2="814.960569" y2="401.158898" stroke="#002255" />
	<line id="52" x1="732.264172" y1="480.212620" x2="752.264172" y2="481.212620" stroke="#002255" />
	<line id="53" x1="643.777807" y1="527.064743" x2="663.777807" y2="528.064743" stroke="#002255" />
	<line id="54" x1="545.435811" y1="533.712645" x2="565.435811" y2="534.712645" stroke="#002255" />
	<line id="55" x1="454.375000" y1="500.268375" x2="474.375000" y2="501.268375" stroke="#002255" />
	<line id="56" x1="385.948634" y1="433.721145" x2="405.948634" y2="434.721145" stroke="#002255" />
	<line id="57" x1="351.139474" y1="346.520241" x2="371.139474" y2="347.520241" stroke="#002255" />
	<line id="58" x1="354.807528" y1="254.259428" x2="374.807528" y2="255.259428" stroke="#002255" />
	<line id="59" x1="395.050075" y1="172.891439" x2="415.050075" y2="173.891439" stroke="#002255" />
	<line id="60" x1="463.750000" y1="115.969602" x2="483.750000" y2="116.969602" stroke="#002255" />
	<line id="61" x1="548.179683" y1="92.393554" x2="568.179683" y2="93.393554" stroke="#002255" />
	<line id="62" x1="633.348484" y1="105.033414" x2="653.348484" y2="106.033414" stroke="#002255" />
	<line id="63" x1="704.662535" y1="150.442104" x2="724.662535" y2="151.442104" stroke="#002255" />
	<line id="64" x1="750.425228" y1="219.669513" x2="770.425228" y2="220.669513" stroke="#002255" />
	<line id="65" x1="763.750000" y1="300.000000" x2="783.750000" y2="301.000000" stroke="#002255" />
	<line id="66" x1="743.573637" y1="377.279962" x2="763.573637" y2="378.279962" stroke="#002255" />
	<line id="67" x1="694.625575" y1="438.410724" x2="714.625575" y2="439.410724" stroke="#002255" />
	<line id="68" x1="626.395601" y1="473.567814" x2="646.395601" y2="474.567814" stroke="#002255" />
	<line id="69" x1="551.315537" y1="477.770789" x2="571.315537" y2="478.770789" stroke="#002255" />
	<line id="70" x1="482.500000" y1="451.554446" x2="502.500000" y2="452.554446" stroke="#002255" />
	<line id="71" x1="431.455840" y1="400.658224" x2="451.455840" y2="401.658224" stroke="#002255" />
	<line id="72" x1="406.160277" y1="334.825208" x2="426.160277" y2="335.825208" stroke="#002255" />
	<line id="73" x1="409.828330" y1="265.954461" x2="429.828330" y2="266.954461" stroke="#002255" />
	<line id="74" x1="440.557281" y1="205.954360" x2="460.557281" y2="206.954360" stroke="#002255" />
	<line id="75" x1="491.875000" y1="164.683531" x2="511.875000" y2="165.683531" stroke="#002255" />
	<line id="76" x1="554.059409" y1="148.335411" x2="574.059409" y2="149.335411" stroke="#002255" />
	<line id="77" x1="615.966278" y1="158.530343" x2="635.966278" y2="159.530343" stroke="#002255" />
	<line id="78" x1="667.023938" y1="192.244000" x2="687.023938" y2="193.244000" stroke="#002255" />
	<line id="79" x1="699.038296" y1="242.548449" x2="719.038296" y2="243.548449" stroke="#002255" />
	<line id="80" x1="676.199659" y1="252.716865" x2="696.199659" y2="253.716865" stroke="#002255" />
	<line id="81" x1="650.295673" y1="210.822621" x2="670.295673" y2="211.822621" stroke="#002255" />
	<line id="82" x1="608.240853" y1="182.306756" x2="628.240853" y2="183.306756" stroke="#002255" />
	<line id="83" x1="556.672621" y1="173.198458" x2="576.672621" y2="174.198458" stroke="#002255" />
	<line id="84" x1="504.375000" y1="186.334166" x2="524.375000" y2="187.334166" stroke="#002255" />
	<line id="85" x1="460.782706" y1="220.648991" x2="480.782706" y2="221.648991" stroke="#002255" />
	<line id="86" x1="434.282020" y1="271.152253" x2="454.282020" y2="272.152253" stroke="#002255" />
	<line id="87" x1="430.613967" y1="329.627416" x2="450.613967" y2="330.627416" stroke="#002255" />
	<line id="88" x1="451.681265" y1="385.963593" x2="471.681265" y2="386.963593" stroke="#002255" />
	<line id="89" x1="495.000000" y1="429.903811" x2="515.000000" y2="430.903811" stroke="#002255" />
	<line id="90" x1="553.928749" y1="452.907741" x2="573.928749" y2="453.907741" stroke="#002255" />
	<line id="91" x1="618.670177" y1="449.791401" x2="638.670177" y2="450.791401" stroke="#002255" />
	<line id="92" x1="677.897310" y1="419.832103" x2="697.897310" y2="420.832103" stroke="#002255" />
	<line id="93" x1="720.735001" y1="367.111546" x2="740.735001" y2="368.111546" stroke="#002255" />
	<line id="94" x1="738.750000" y1="300.000000" x2="758.750000" y2="301.000000" stroke="#002255" />
	<line id="95" x1="727.586591" y1="229.837929" x2="747.586591" y2="230.837929" stroke="#002255" />
	<line id="96" x1="687.934269" y1="169.020725" x2="707.934269" y2="170.020725" stroke="#002255" />
	<line id="97" x1="625.623059" y1="128.809827" x2="645.623059" y2="129.809827" stroke="#002255" />
	<line id="98" x1="550.792895" y1="117.256602" x2="570.792895" y2="118.256602" stroke="#002255" />
	<line id="99" x1="476.250000" y1="137.620237" x2="496.250000" y2="138.620237" stroke="#002255" />
	<line id="100" x1="415.275500" y1="187.586070" x2="435.275500" y2="188.586070" stroke="#002255" />
	<line id="101" x1="379.261218" y1="259.457220" x2="399.261218" y2="260.457220" stroke="#002255" />
	<line id="102" x1="375.593164" y1="341.322449" x2="395.593164" y2="342.322449" stroke="#002255" />
	<line id="103" x1="406.174059" y1="419.026514" x2="426.174059" y2="420.026514" stroke="#002255" />
	<line id="104" x1="466.875000" y1="478.617740" x2="486.875000" y2="479.617740" stroke="#002255" />
	<line id="105" x1="548.049023" y1="508.849598" x2="568.049023" y2="509.849598" stroke="#002255" />
	<line id="106" x1="636.052383" y1="503.288330" x2="656.052383" y2="504.288330" stroke="#002255" />
	<line id="107" x1="715.535907" y1="461.634000" x2="735.535907" y2="462.634000" stroke="#002255" />
	<line id="108" x1="772.121933" y1="389.990482" x2="792.121933" y2="390.990482" stroke="#002255" />
	<line id="109" x1="795.000000" y1="300.000000" x2="815.000000" y2="301.000000" stroke="#002255" />
</svg>