<svg xmlns="http://www.w3.org/2000/svg">
	<circle cx="820.000000" cy="300.000000" r="1.000000" stroke="red" fill="black" fill-opacity="30%" />
	<circle cx="794.960569" cy="400.158898" r="1.000000" stroke="red" fill="black" fill-opacity="30%" />
	<circle cx="732.264172" cy="480.212620" r="1.000000" stroke="red" fill="black" fill-opacity="30%" />
	<circle cx="643.777807" cy="527.064743" r="1.000000" stroke="red" fill="black" fill-opacity="30%" />
	<circle cx="545.435811" cy="533.712645" r="1.000000" stroke="red" fill="black" fill-opacity="30%" />
	<circle cx="454.375000" cy="500.268375" r="1.000000" stroke="red" fill="black" fill-opacity="30%" />
	<circle cx="385.948634" cy="433.721145" r="1.000000" stroke="red" fill="black" fill-opacity="30%" />
	<circle cx="351.139474" cy="346.520241" r="1.000000" stroke="red" fill="black" fill-opacity="30%" />
	<circle cx="354.807528" cy="254.259428" r="1.000000" stroke="red" fill="black" fill-opacity="30%" />
	<circle cx="395.050075" cy="172.891439" r="1.000000" stroke="red" fill="black" fill-opacity="30%" />
	<circle cx="463.750000" cy="115.969602" r="1.000000" stroke="red" fill="black" fill-opacity="30%" />
	<circle cx="548.179683" cy="92.393554" r="1.000000" stroke="red" fill="black" fill-opacity="30%" />
	<circle cx="633.348484" cy="105.033414" r="1.000000" stroke="red" fill="black" fill-opacity="30%" />
	<circle cx="704.662535" cy="150.442104" r="1.000000" stroke="red" fill="black" fill-opacity="30%" />
	<circle cx="750.425228" cy="219.669513" r="1.000000" stroke="red" fill="black" fill-opacity="30%" />
	<circle cx="763.750000" cy="300.000000" r="1.000000" stroke="red" fill="black" fill-opacity="30%" />
	<circle cx="743.573637" cy="377.279962" r="1.000000" stroke="red" fill="black" fill-opacity="30%" />
	<circle cx="694.625575" cy="438.410724" r="1.000000" stroke="red" fill="black" fill-opacity="30%" />
	<circle cx="626.395601" cy="473.567814" r="1.000000" stroke="red" fill="black" fill-opacity="30%" />
	<circle cx="551.315537" cy="477.770789" r="1.000000" stroke="red" fill="black" fill-opacity="30%" />
	<circle cx="482.500000" cy="451.554446" r="1.000000" stroke="red" fill="black" fill-opacity="30%" />
	<circle cx="431.455840" cy="400.658224" r="1.000000" stroke="red" fill="black" fill-opacity="30%" />
	<circle cx="406.160277" cy="334.825208" r="1.000000" stroke="red" fill="black" fill-opacity="30%" />
	<circle cx="409.828330" cy="265.954461" r="1.000000" stroke="red" fill="black" fill-opacity="30%" />
	<circle cx="440.557281" cy="205.954360" r="1.000000" stroke="red" fill="black" fill-opacity="30%" />
	<circle cx="491.875000" cy="164.683531" r="1.000000" stroke="red" fill="black" fill-opacity="30%" />
	<circle cx="554.059409" cy="148.335411" r="1.000000" stroke="red" fill="black" fill-opacity="30%" />
	<circle cx="615.966278" cy="158.530343" r="1.000000" stroke="red" fill="black" fill-opacity="30%" />
	<circle cx="667.023938" cy="192.244000" r="1.000000" stroke="red" fill="black" fill-opacity="30%" />
	<circle cx="699.038296" cy="242.548449" r="1.000000" stroke="red" fill="black" fill-opacity="30%" />
	<circle cx="676.199659" cy="252.716865" r="1.000000" stroke="red" fill="black" fill-opacity="30%" />
	<circle cx="650.295673" cy="210.822621" r="1.000000" stroke="red" fill="black" fill-opacity="30%" />
	<circle cx="608.240853" cy="182.306756" r="1.000000" stroke="red" fill="black" fill-opacity="30%" />
	<circle cx="556.672621" cy="173.198458" r="1.000000" stroke="red" fill="black" fill-opacity="30%" />
	<circle cx="504.375000" cy="186.334166" r="1.000000" stroke="red" fill="black" fill-opacity="30%" />
	<circle cx="460.782706" cy="220.648991" r="1.000000" stroke="red" fill="black" fill-opacity="30%" />
	<circle cx="434.282020" cy="271.152253" r="1.000000" stroke="red" fill="black" fill-opacity="30%" />
	<circle cx="430.613967" cy="329.627416" r="1.000000" stroke="red" fill="black" fill-opacity="30%" />
	<circle cx="451.681265" cy="385.963593" r="1.000000" stroke="red" fill="black" fill-opacity="30%" />
	<circle cx="495.000000" cy="429.903811" r="1.000000" stroke="red" fill="black" fill-opacity="30%" />
	<circle cx="553.928749" cy="452.907741" r="1.000000" stroke="red" fill="black" fill-opacity="30%" />
	<circle cx="618.670177" cy="449.791401" r="1.000000" stroke="red" fill="black" fill-opacity="30%" />
	<circle cx="677.897310" cy="419.832103" r="1.000000" stroke="red" fill="black" fill-opacity="30%" />
	<circle cx="720.735001" cy="367.111546" r="1.000000" stroke="red" fill="black" fill-opacity="30%" />
	<circle cx="738.750000" cy="300.000000" r="1.000000" stroke="red" fill="black" fill-opacity="30%" />
	<circle cx="727.586591" cy="229.837929" r="1.000000" stroke="red" fill="black" fill-opacity="30%" />
	<circle cx="687.934269" cy="169.020725" r="1.000000" stroke="red" fill="black" fill-opacity="30%" />
	<circle cx="625.623059" cy="128.809827" r="1.000000" stroke="red" fill="black" fill-opacity="30%" />
	<circle cx="550.792895" cy="117.256602" r="1.000000" stroke="red" fill="black" fill-opacity="30%" />
	<circle cx="476.250000" cy="137.620237" r="1.000000" stroke="red" fill="black" fill-opacity="30%" />
	<circle cx="415.275500" cy="187.586070" r="1.000000" stroke="red" fill="black" fill-opacity="30%" />
	<circle cx="379.261218" cy="259.457220" r="1.000000" stroke="red" fill="black" fill-opacity="30%" />
	<circle cx="375.593164" cy="341.322449" r="1.000000" stroke="red" fill="black" fill-opacity="30%" />
	<circle cx="406.174059" cy="419.026514" r="1.000000" stroke="red" fill="black" fill-opacity="30%" />
	<circle cx="466.875000" cy="478.617740" r="1.000000" stroke="red" fill="black" fill-opacity="30%" />
	<circle cx="548.049023" cy="508.849598" r="1.000000" stroke="red" fill="black" fill-opacity="30%" />
	<circle cx="636.052383" cy="503.288330" r="1.000000" stroke="red" fill="black" fill-opacity="30%" />
	<circle cx="715.535907" cy="461.634000" r="1.000000" stroke="red" fill="black" fill-opacity="30%" />
	<circle cx="772.121933" cy="389.990482" r="1.000000" stroke="red" fill="black" fill-opacity="30%" />
	<circle cx="795.000000" cy="300.000000" r="1.000000" stroke="red" fill="black" fill-opacity="30%" />
	<line id="119" x1="820.000000" y1="300.000000" x2="794.960569" y2="400.158898" stroke="#002255" />
	<line id="120" x1="794.960569" y1="400.158898" x2="732.264172" y2="480.212620" stroke="#002255" />
	<line id="121" x1="732.264172" y1="480.212620" x2="643.777807" y2="527.064743" stroke="#002255" />
	<line id="122" x1="643.777807" y1="527.064743" x2="545.435811" y2="533.712645" stroke="#002255" />
	<line id="123" x1="545.435811" y1="533.712645" x2="454.375000" y2="500.268375" stroke="#002255" />
	<line id="124" x1="454.375000" y1="500.268375" x2="385.948634" y2="433.721145" stroke="#002255" />
	<line id="125" x1="385.948634" y1="433.721145" x2="351.139474" y2="346.520241" stroke="#002255" />
	<line id="126" x1="351.139474" y1="346.520241" x2="354.807528" y2="254.259428" stroke="#002255" />
	<line id="127" x1="354.807528" y1="254.259428" x2="395.050075" y2="172.891439" stroke="#002255" />
	<line id="128" x1="395.050075" y1="172.891439" x2="463.750000" y2="115.969602" stroke="#002255" />
	<line id="129" x1="463.750000" y1="115.969602" x2="548.179683" y2="92.393554" stroke="#002255" />
	<line id="130" x1="548.179683" y1="92.393554" x2="633.348484" y2="105.033414" stroke="#002255" />
	<line id="131" x1="633.348484" y1="105.033414" x2="704.662535" y2="150.442104" stroke="#002255" />
	<line id="132" x1="704.662535" y1="150.442104" x2="750.425228" y2="219.669513" stroke="#002255" />
	<line id="133" x1="750.425228" y1="219.669513" x2="763.750000" y2="300.000000" stroke="#002255" />
	<line id="134" x1="763.750000" y1="300.000000" x2="743.573637" y2="377.279962" stroke="#002255" />
	<line id="135" x1="743.573637" y1="377.279962" x2="694.625575" y2="438.410724" stroke="#002255" />
	<line id="136" x1="694.625575" y1="438.410724" x2="626.395601" y2="473.567814" stroke="#002255" />
	<line id="137" x1="626.395601" y1="473.567814" x2="551.315537" y2="477.770789" stroke="#002255" />
	<line id="138" x1="551.315537" y1="477.770789" x2="482.500000" y2="451.554446" stroke="#002255" />
	<line id="139" x1="482.500000" y1="451.554446" x2="431.455840" y2="400.658224" stroke="#002255" />
	<line id="140" x1="431.455840" y1="400.658224" x2="406.160277" y2="334.825208" stroke="#002255" />
	<line id="141" x1="406.160277" y1="334.825208" x2="409.828330" y2="265.954461" stroke="#002255" />
	<line id="142" x1="409.828330" y1="265.954461" x2="440.557281" y2="205.954360" stroke="#002255" />
	<line id="143" x1="440.557281" y1="205.954360" x2="491.875000" y2="164.683531" stroke="#002255" />
	<line id="144" x1="491.875000" y1="164.683531" x2="554.059409" y2="148.335411" stroke="#002255" />
	<line id="145" x1="554.059409" y1="148.335411" x2="615.966278" y2="158.530343" stroke="#002255" />
	<line id="146" x1="615.966278" y1="158.530343" x2="667.023938" y2="192.244000" stroke="#002255" />
	<line id="147" x1="667.023938" y1="192.244000" x2="699.038296" y2="242.548449" stroke="#002255" />
	<line id="148" x1="699.038296" y1="242.548449" x2="676.199659" y2="252.716865" stroke="#002255" />
	<line id="149" x1="676.199659" y1="252.716865" x2="650.295673" y2="210.822621" stroke="#002255" />
	<line id="150" x1="650.295673" y1="210.822621" x2="608.240853" y2="182.306756" stroke="#002255" />
	<line id="151" x1="608.240853" y1="182.306756" x2="556.672621" y2="173.198458" stroke="#002255" />
	<line id="152" x1="556.672621" y1="173.198458" x2="504.375000" y2="186.334166" stroke="#002255" />
	<line id="153" x1="504.375000" y1="186.334166" x2="460.782706" y2="220.648991" stroke="#002255" />
	<line id="154" x1="460.782706" y1="220.648991" x2="434.282020" y2="271.152253" stroke="#002255" />
	<line id="155" x1="434.282020" y1="271.152253" x2="430.613967" y2="329.627416" stroke="#002255" />
	<line id="156" x1="430.613967" y1="329.627416" x2="451.681265" y2="385.963593" stroke="#002255" />
	<line id="157" x1="451.681265" y1="385.963593" x2="495.000000" y2="429.903811" stroke="#002255" />
	<line id="158" x1="495.000000" y1="429.903811" x2="553.928749" y2="452.907741" stroke="#002255" />
	<line id="159" x1="553.928749" y1="452.907741" x2="618.670177" y2="449.791401" stroke="#002255" />
	<line id="160" x1="618.670177" y1="449.791401" x2="677.897310" y2="419.832103" stroke="#002255" />
	<line id="161" x1="677.897310" y1="419.832103" x2="720.735001" y2="367.111546" stroke="#002255" />
	<line id="162" x1="720.735001" y1="367.111546" x2="738.750000" y2="300.000000" stroke="#002255" />
	<line id="163" x1="738.750000" y1="300.000000" x2="727.586591" y2="229.837929" stroke="#002255" />
	<line id="164" x1="727.586591" y1="229.837929" x2="687.934269" y2="169.020725" stroke="#002255" />
	<line id="165" x1="687.934269" y1="169.020725" x2="625.623059" y2="128.809827" stroke="#002255" />
	<line id="166" x1="625.623059" y1="128.809827" x2="550.792895" y2="117.256602" stroke="#002255" />
	<line id="167" x1="550.792895" y1="117.256602" x2="476.250000" y2="137.620237" stroke="#002255" />
	<line id="168" x1="476.250000" y1="137.620237" x2="415.275500" y2="187.586070" stroke="#002255" />
	<line id="169" x1="415.275500" y1="187.586070" x2="379.261218" y2="259.457220" stroke="#002255" />
	<line id="170" x1="379.261218" y1="259.457220" x2="375.593164" y2="341.322449" stroke="#002255" />
	<line id="171" x1="375.593164" y1="341.322449" x2="406.174059" y2="419.026514" stroke="#002255" />
	<line id="172" x1="406.174059" y1="419.026514" x2="466.875000" y2="478.617740" stroke="#002255" />
	<line id="173" x1="466.875000" y1="478.617740" x2="548.049023" y2="508.849598" stroke="#002255" />
	<line id="174" x1="548.049023" y1="508.849598" x2="636.052383" y2="503.288330" stroke="#002255" />
	<line id="175" x1="636.052383" y1="503.288330" x2="715.535907" y2="461.634000" stroke="#002255" />
	<line id="176" x1="715.535907" y1="461.634000" x2="772.121933" y2="389.990482" stroke="#002255" />
	<line id="177" x1="772.121933" y1="389.990482" x2="795.000000" y2="300.000000" stroke="#002255" />
	<line id="178" x1="795.000000" y1="300.000000" x2="820.000000" y2="300.000000" stroke="#002255" />
	<line id="178" x1="351.139474" y1="100.393554" x2="820.000000" y2="100.393554" stroke="#FFCCAA" stroke-width="1.500000" />
	<line id="179" x1="351.139474" y1="108.393554" x2="820.000000" y2="108.393554" stroke="#FFCCAA" stroke-width="1.500000" />
	<line id="180" x1="351.139474" y1="116.393554" x2="820.000000" y2="116.393554" stroke="#FFCCAA" stroke-width="1.500000" />
	<line id="181" x1="351.139474" y1="124.393554" x2="820.000000" y2="124.393554" stroke="#FFCCAA" stroke-width="1.500000" />
	<line id="182" x1="351.139474" y1="132.393554" x2="820.000000" y2="132.393554" stroke="#FFCCAA" stroke-width="1.500000" />
	<line id="183" x1="351.139474" y1="140.393554" x2="820.000000" y2="140.393554" stroke="#FFCCAA" stroke-width="1.500000" />
	<line id="184" x1="351.139474" y1="148.393554" x2="820.000000" y2="148.393554" stroke="#FFCCAA" stroke-width="1.500000" />
	<line id="185" x1="351.139474" y1="156.393554" x2="820.000000" y2="156.393554" stroke="#FFCCAA" stroke-width="1.500000" />
	<line id="186" x1="351.139474" y1="164.393554" x2="820.000000" y2="164.393554" stroke="#FFCCAA" stroke-width="1.500000" />
	<line id="187" x1="351.139474" y1="172.393554" x2="820.000000" y2="172.393554" stroke="#FFCCAA" stroke-width="1.500000" />
	<line id="188" x1="351.139474" y1="180.393554" x2="820.000000" y2="180.393554" stroke="#FFCCAA" stroke-width="1.500000" />
	<line id="189" x1="351.139474" y1="188.393554" x2="820.000000" y2="188.393554" stroke="#FFCCAA" stroke-width="1.500000" />
	<line id="190" x1="351.139474" y1="196.393554" x2="820.000000" y2="196.393554" stroke="#FFCCAA" stroke-width="1.500000" />
	<line id="191" x1="351.139474" y1="204.393554" x2="820.000000" y2="204.393554" stroke="#FFCCAA" stroke-width="1.500000" />
	<line id="192" x1="351.139474" y1="212.393554" x2="820.000000" y2="212.393554" stroke="#FFCCAA" stroke-width="1.500000" />
	<line id="193" x1="351.139474" y1="220.393554" x2="820.000000" y2="220.393554" stroke="#FFCCAA" stroke-width="1.500000" />
	<line id="194" x1="351.139474" y1="228.393554" x2="820.000000" y2="228.393554" stroke="#FFCCAA" stroke-width="1.500000" />
	<line id="195" x1="351.139474" y1="236.393554" x2="820.000000" y2="236.393554" stroke="#FFCCAA" stroke-width="1.500000" />
	<line id="196" x1="351.139474" y1="244.393554" x2="820.000000" y2="244.393554" stroke="#FFCCAA" stroke-width="1.500000" />
	<line id="197" x1="351.139474" y1="252.393554" x2="820.000000" y2="252.393554" stroke="#FFCCAA" stroke-width="1.500000" />
	<line id="198" x1="351.139474" y1="260.393554" x2="820.000000" y2="260.393554" stroke="#FFCCAA" stroke-width="1.500000" />
	<line id="199" x1="351.139474" y1="268.393554" x2="820.000000" y2="268.393554" stroke="#FFCCAA" stroke-width="1.500000" />
	<line id="200" x1="351.139474" y1="276.393554" x2="820.000000" y2="276.393554" stroke="#FFCCAA" stroke-width="1.500000" />
	<line id="201" x1="351.139474" y1="284.393554" x2="820.000000" y2="284.393554" stroke="#FFCCAA" stroke-width="1.500000" />
	<line id="202" x1="351.139474" y1="292.393554" x2="820.000000" y2="292.393554" stroke="#FFCCAA" stroke-width="1.500000" />
	<line id="203" x1="351.139474" y1="300.393554" x2="820.000000" y2="300.393554" stroke="#FFCCAA" stroke-width="1.500000" />
	<line id="204" x1="351.139474" y1="308.393554" x2="820.000000" y2="308.393554" stroke="#FFCCAA" stroke-width="1.500000" />
	<line id="205" x1="351.139474" y1="316.393554" x2="820.000000" y2="316.393554" stroke="#FFCCAA" stroke-width="1.500000" />
	<line id="206" x1="351.139474" y1="324.393554" x2="820.000000" y2="324.393554" stroke="#FFCCAA" stroke-width="1.500000" />
	<line id="207" x1="351.139474" y1="332.393554" x2="820.000000" y2="332.393554" stroke="#FFCCAA" stroke-width="1.500000" />
	<line id="208" x1="351.139474" y1="340.393554" x2="820.000000" y2="340.393554" stroke="#FFCCAA" stroke-width="1.500000" />
	<line id="209" x1="351.139474" y1="348.393554" x2="820.000000" y2="348.393554" stroke="#FFCCAA" stroke-width="1.500000" />
	<line id="210" x1="351.139474" y1="356.393554" x2="820.000000" y2="356.393554" stroke="#FFCCAA" stroke-width="1.500000" />
	<line id="211" x1="351.139474" y1="364.393554" x2="820.000000" y2="364.393554" stroke="#FFCCAA" stroke-width="1.500000" />
	<line id="212" x1="351.139474" y1="372.393554" x2="820.000000" y2="372.393554" stroke="#FFCCAA" stroke-width="1.500000" />
	<line id="213" x1="351.139474" y1="380.393554" x2="820.000000" y2="380.393554" stroke="#FFCCAA" stroke-width="1.500000" />
	<line id="214" x1="351.139474" y1="388.393554" x2="820.000000" y2="388.393554" stroke="#FFCCAA" stroke-width="1.500000" />
	<line id="215" x1="351.139474" y1="396.393554" x2="820.000000" y2="396.393554" stroke="#FFCCAA" stroke-width="1.500000" />
	<line id="216" x1="351.139474" y1="404.393554" x2="820.000000" y2="404.393554" stroke="#FFCCAA" stroke-width="1.500000" />
	<line id="217" x1="351.139474" y1="412.393554" x2="820.000000" y2="412.393554" stroke="#FFCCAA" stroke-width="1.500000" />
	<line id="218" x1="351.139474" y1="420.393554" x2="820.000000" y2="420.393554" stroke="#FFCCAA" stroke-width="1.500000" />
	<line id="219" x1="351.139474" y1="428.393554" x2="820.000000" y2="428.393554" stroke="#FFCCAA" stroke-width="1.500000" />
	<line id="220" x1="351.139474" y1="436.393554" x2="820.000000" y2="436.393554" stroke="#FFCCAA" stroke-width="1.500000" />
	<line id="221" x1="351.139474" y1="444.393554" x2="820.000000" y2="444.393554" stroke="#FFCCAA" stroke-width="1.500000" />
	<line id="222" x1="351.139474" y1="452.393554" x2="820.000000" y2="452.393554" stroke="#FFCCAA" stroke-width="1.500000" />
	<line id="223" x1="351.139474" y1="460.393554" x2="820.000000" y2="460.393554" stroke="#FFCCAA" stroke-width="1.500000" />
	<line id="224" x1="351.139474" y1="468.393554" x2="820.000000" y2="468.393554" stroke="#FFCCAA" stroke-width="1.500000" />
	<line id="225" x1="351.139474" y1="476.393554" x2="820.000000" y2="476.393554" stroke="#FFCCAA" stroke-width="1.500000" />
	<line id="226" x1="351.139474" y1="484.393554" x2="820.000000" y2="484.393554" stroke="#FFCCAA" stroke-width="1.500000" />
	<line id="227" x1="351.139474" y1="492.393554" x2="820.000000" y2="492.393554" stroke="#FFCCAA" stroke-width="1.500000" />
	<line id="228" x1="351.139474" y1="500.393554" x2="820.000000" y2="500.393554" stroke="#FFCCAA" stroke-width="1.500000" />
	<line id="229" x1="351.139474" y1="508.393554" x2="820.000000" y2="508.393554" stroke="#FFCCAA" stroke-width="1.500000" />
	<line id="230" x1="351.139474" y1="516.393554" x2="820.000000" y2="516.393554" stroke="#FFCCAA" stroke-width="1.500000" />
	<line id="231" x1="351.139474" y1="524.393554" x2="820.000000" y2="524.393554" stroke="#FFCCAA" stroke-width="1.500000" />
	<line id="232" x1="351.139474" y1="532.393554" x2="820.000000" y2="532.393554" stroke="#FFCCAA" stroke-width="1.500000" />
	<line id="119" x1="820.000000" y1="300.000000" x2="794.960569" y2="400.158898" stroke="#FFCCAA" />
	<line id="120" x1="794.960569" y1="400.158898" x2="732.264172" y2="480.212620" stroke="#FFCCAA" />
	<line id="121" x1="732.264172" y1="480.212620" x2="643.777807" y2="527.064743" stroke="#FFCCAA" />
	<line id="122" x1="643.777807" y1="527.064743" x2="545.435811" y2="533.712645" stroke="#FFCCAA" />
	<line id="123" x1="545.435811" y1="533.712645" x2="454.375000" y2="500.268375" stroke="#FFCCAA" />
	<line id="124" x1="454.375000" y1="500.268375" x2="385.948634" y2="433.721145" stroke="#FFCCAA" />
	<line id="125" x1="385.948634" y1="433.721145" x2="351.139474" y2="346.520241" stroke="#FFCCAA" />
	<line id="126" x1="351.139474" y1="346.520241" x2="354.807528" y2="254.259428" stroke="#FFCCAA" />
	<line id="127" x1="354.807528" y1="254.259428" x2="395.050075" y2="172.891439" stroke="#FFCCAA" />
	<line id="128" x1="395.050075" y1="172.891439" x2="463.750000" y2="115.969602" stroke="#FFCCAA" />
	<line id="129" x1="463.750000" y1="115.969602" x2="548.179683" y2="92.393554" stroke="#FFCCAA" />
	<line id="130" x1="548.179683" y1="92.393554" x2="633.348484" y2="105.033414" stroke="#FFCCAA" />
	<line id="131" x1="633.348484" y1="105.033414" x2="704.662535" y2="150.442104" stroke="#FFCCAA" />
	<line id="132" x1="704.662535" y1="150.442104" x2="750.425228" y2="219.669513" stroke="#FFCCAA" />
	<line id="133" x1="750.425228" y1="219.669513" x2="763.750000" y2="300.000000" stroke="#FFCCAA" />
	<line id="134" x1="763.750000" y1="300.000000" x2="743.573637" y2="377.279962" stroke="#FFCCAA" />
	<line id="135" x1="743.573637" y1="377.279962" x2="694.625575" y2="438.410724" stroke="#FFCCAA" />
	<line id="136" x1="694.625575" y1="438.410724" x2="820.000000" y2="300.000000" stroke="#FFCCAA" />
	<line id="136" x1="351.139474" y1="97.393554" x2="820.000000" y2="97.393554" stroke="#002255" stroke-width="1.000000" />
	<line id="137" x1="351.139474" y1="102.393554" x2="820.000000" y2="102.393554" stroke="#002255" stroke-width="1.000000" />
	<line id="138" x1="351.139474" y1="107.393554" x2="820.000000" y2="107.393554" stroke="#002255" stroke-width="1.000000" />
	<line id="139" x1="351.139474" y1="112.393554" x2="820.000000" y2="112.393554" stroke="#002255" stroke-width="1.000000" />
	<line id="140" x1="351.139474" y1="117.393554" x2="820.000000" y2="117.393554" stroke="#002255" stroke-width="1.000000" />
	<line id="141" x1="351.139474" y1="122.393554" x2="820.000000" y2="122.393554" stroke="#002255" stroke-width="1.000000" />
	<line id="142" x1="351.139474" y1="127.393554" x2="820.000000" y2="127.393554" stroke="#002255" stroke-width="1.000000" />
	<line id="143" x1="351.139474" y1="132.393554" x2="820.000000" y2="132.393554" stroke="#002255" stroke-width="1.000000" />
	<line id="144" x1="351.139474" y1="137.393554" x2="820.000000" y2="137.393554" stroke="#002255" stroke-width="1.000000" />
	<line id="145" x1="351.139474" y1="142.393554" x2="820.000000" y2="142.393554" stroke="#002255" stroke-width="1.000000" />
	<line id="146" x1="351.139474" y1="147.393554" x2="820.000000" y2="147.393554" stroke="#002255" stroke-width="1.000000" />
	<line id="147" x1="351.139474" y1="152.393554" x2="820.000000" y2="152.393554" stroke="#002255" stroke-width="1.000000" />
	<line id="148" x1="351.139474" y1="157.393554" x2="820.000000" y2="157.393554" stroke="#002255" stroke-width="1.000000" />
	<line id="149" x1="351.139474" y1="162.393554" x2="820.000000" y2="162.393554" stroke="#002255" stroke-width="1.000000" />
	<line id="150" x1="351.139474" y1="167.393554" x2="820.000000" y2="167.393554" stroke="#002255" stroke-width="1.000000" />
	<line id="151" x1="351.139474" y1="172.393554" x2="820.000000" y2="172.393554" stroke="#002255" stroke-width="1.000000" />
	<line id="152" x1="351.139474" y1="177.393554" x2="820.000000" y2="177.393554" stroke="#002255" stroke-width="1.000000" />
	<line id="153" x1="351.139474" y1="182.393554" x2="820.000000" y2="182.393554" stroke="#002255" stroke-width="1.000000" />
	<line id="154" x1="351.139474" y1="187.393554" x2="820.000000" y2="187.393554" stroke="#002255" stroke-width="1.000000" />
	<line id="155" x1="351.139474" y1="192.393554" x2="820.000000" y2="192.393554" stroke="#002255" stroke-width="1.000000" />
	<line id="156" x1="351.139474" y1="197.393554" x2="820.000000" y2="197.393554" stroke="#002255" stroke-width="1.000000" />
	<line id="157" x1="351.139474" y1="202.393554" x2="820.000000" y2="202.393554" stroke="#002255" stroke-width="1.000000" />
	<line id="158" x1="351.139474" y1="207.393554" x2="820.000000" y2="207.393554" stroke="#002255" stroke-width="1.000000" />
	<line id="159" x1="351.139474" y1="212.393554" x2="820.000000" y2="212.393554" stroke="#002255" stroke-width="1.000000" />
	<line id="160" x1="351.139474" y1="217.393554" x2="820.000000" y2="217.393554" stroke="#002255" stroke-width="1.000000" />
	<line id="161" x1="351.139474" y1="222.393554" x2="820.000000" y2="222.393554" stroke="#002255" stroke-width="1.000000" />
	<line id="162" x1="351.139474" y1="227.393554" x2="820.000000" y2="227.393554" stroke="#002255" stroke-width="1.000000" />
	<line id="163" x1="351.139474" y1="232.393554" x2="820.000000" y2="232.393554" stroke="#002255" stroke-width="1.000000" />
	<line id="164" x1="351.139474" y1="237.393554" x2="820.000000" y2="237.393554" stroke="#002255" stroke-width="1.000000" />
	<line id="165" x1="351.139474" y1="242.393554" x2="820.000000" y2="242.393554" stroke="#002255" stroke-width="1.000000" />
	<line id="166" x1="351.139474" y1="247.393554" x2="820.000000" y2="247.393554" stroke="#002255" stroke-width="1.000000" />
	<line id="167" x1="351.139474" y1="252.393554" x2="820.000000" y2="252.393554" stroke="#002255" stroke-width="1.000000" />
	<line id="168" x1="351.139474" y1="257.393554" x2="820.000000" y2="257.393554" stroke="#002255" stroke-width="1.000000" />
	<line id="169" x1="351.139474" y1="262.393554" x2="820.000000" y2="262.393554" stroke="#002255" stroke-width="1.000000" />
	<line id="170" x1="351.139474" y1="267.393554" x2="820.000000" y2="267.393554" stroke="#002255" stroke-width="1.000000" />
	<line id="171" x1="351.139474" y1="272.393554" x2="820.000000" y2="272.393554" stroke="#002255" stroke-width="1.000000" />
	<line id="172" x1="351.139474" y1="277.393554" x2="820.000000" y2="277.393554" stroke="#002255" stroke-width="1.000000" />
	<line id="173" x1="351.139474" y1="282.393554" x2="820.000000" y2="282.393554" stroke="#002255" stroke-width="1.000000" />
	<line id="174" x1="351.139474" y1="287.393554" x2="820.000000" y2="287.393554" stroke="#002255" stroke-width="1.000000" />
	<line id="175" x1="351.139474" y1="292.393554" x2="820.000000" y2="292.393554" stroke="#002255" stroke-width="1.000000" />
	<line id="176" x1="351.139474" y1="297.393554" x2="820.000000" y2="297.393554" stroke="#002255" stroke-width="1.000000" />
	<line id="177" x1="351.139474" y1="302.393554" x2="820.000000" y2="302.393554" stroke="#002255" stroke-width="1.000000" />
	<line id="178" x1="351.139474" y1="307.393554" x2="820.000000" y2="307.393554" stroke="#002255" stroke-width="1.000000" />
	<line id="179" x1="351.139474" y1="312.393554" x2="820.000000" y2="312.393554" stroke="#002255" stroke-width="1.000000" />
	<line id="180" x1="351.139474" y1="317.393554" x2="820.000000" y2="317.393554" stroke="#002255" stroke-width="1.000000" />
	<line id="181" x1="351.139474" y1="322.393554" x2="820.000000" y2="322.393554" stroke="#002255" stroke-width="1.000000" />
	<line id="182" x1="351.139474" y1="327.393554" x2="820.000000" y2="327.393554" stroke="#002255" stroke-width="1.000000" />
	<line id="183" x1="351.139474" y1="332.393554" x2="820.000000" y2="332.393554" stroke="#002255" stroke-width="1.000000" />
	<line id="184" x1="351.139474" y1="337.393554" x2="820.000000" y2="337.393554" stroke="#002255" stroke-width="1.000000" />
	<line id="185" x1="351.139474" y1="342.393554" x2="820.000000" y2="342.393554" stroke="#002255" stroke-width="1.000000" />
	<line id="186" x1="351.139474" y1="347.393554" x2="820.000000" y2="347.393554" stroke="#002255" stroke-width="1.000000" />
	<line id="187" x1="351.139474" y1="352.393554" x2="820.000000" y2="352.393554" stroke="#002255" stroke-width="1.000000" />
	<line id="188" x1="351.139474" y1="357.393554" x2="820.000000" y2="357.393554" stroke="#002255" stroke-width="1.000000" />
	<line id="189" x1="351.139474" y1="362.393554" x2="820.000000" y2="362.393554" stroke="#002255" stroke-width="1.000000" />
	<line id="190" x1="351.139474" y1="367.393554" x2="820.000000" y2="367.393554" stroke="#002255" stroke-width="1.000000" />
	<line id="191" x1="351.139474" y1="372.393554" x2="820.000000" y2="372.393554" stroke="#002255" stroke-width="1.000000" />
	<line id="192" x1="351.139474" y1="377.393554" x2="820.000000" y2="377.393554" stroke="#002255" stroke-width="1.000000" />
	<line id="193" x1="351.139474" y1="382.393554" x2="820.000000" y2="382.393554" stroke="#002255" stroke-width="1.000000" />
	<line id="194" x1="351.139474" y1="387.393554" x2="820.000000" y2="387.393554" stroke="#002255" stroke-width="1.000000" />
	<line id="195" x1="351.139474" y1="392.393554" x2="820.000000" y2="392.393554" stroke="#002255" stroke-width="1.000000" />
	<line id="196" x1="351.139474" y1="397.393554" x2="820.000000" y2="397.393554" stroke="#002255" stroke-width="1.000000" />
	<line id="197" x1="351.139474" y1="402.393554" x2="820.000000" y2="402.393554" stroke="#002255" stroke-width="1.000000" />
	<line id="198" x1="351.139474" y1="407.393554" x2="820.000000" y2="407.393554" stroke="#002255" stroke-width="1.000000" />
	<line id="199" x1="351.139474" y1="412.393554" x2="820.000000" y2="412.393554" stroke="#002255" stroke-width="1.000000" />
	<line id="200" x1="351.139474" y1="417.393554" x2="820.000000" y2="417.393554" stroke="#002255" stroke-width="1.000000" />
	<line id="201" x1="351.139474" y1="422.393554" x2="820.000000" y2="422.393554" stroke="#002255" stroke-width="1.000000" />
	<line id="202" x1="351.139474" y1="427.393554" x2="820.000000" y2="427.393554" stroke="#002255" stroke-width="1.000000" />
	<line id="203" x1="351.139474" y1="432.393554" x2="820.000000" y2="432.393554" stroke="#002255" stroke-width="1.000000" />
	<line id="204" x1="351.139474" y1="437.393554" x2="820.000000" y2="437.393554" stroke="#002255" stroke-width="1.000000" />
	<line id="205" x1="351.139474" y1="442.393554" x2="820.000000" y2="442.393554" stroke="#002255" stroke-width="1.000000" />
	<line id="206" x1="351.139474" y1="447.393554" x2="820.000000" y2="447.393554" stroke="#002255" stroke-width="1.000000" />
	<line id="207" x1="351.139474" y1="452.393554" x2="820.000000" y2="452.393554" stroke="#002255" stroke-width="1.000000" />
	<line id="208" x1="351.139474" y1="457.393554" x2="820.000000" y2="457.393554" stroke="#002255" stroke-width="1.000000" />
	<line id="209" x1="351.139474" y1="462.393554" x2="820.000000" y2="462.393554" stroke="#002255" stroke-width="1.000000" />
	<line id="210" x1="351.139474" y1="467.393554" x2="820.000000" y2="467.393554" stroke="#002255" stroke-width="1.000000" />
	<line id="211" x1="351.139474" y1="472.393554" x2="820.000000" y2="472.393554" stroke="#002255" stroke-width="1.000000" />
	<line id="212" x1="351.139474" y1="477.393554" x2="820.000000" y2="477.393554" stroke="#002255" stroke-width="1.000000" />
	<line id="213" x1="351.139474" y1="482.393554" x2="820.000000" y2="482.393554" stroke="#002255" stroke-width="1.000000" />
	<line id="214" x1="351.139474" y1="487.393554" x2="820.000000" y2="487.393554" stroke="#002255" stroke-width="1.000000" />
	<line id="215" x1="351.139474" y1="492.393554" x2="820.000000" y2="492.393554" stroke="#002255" stroke-width="1.000000" />
	<line id="216" x1="351.139474" y1="497.393554" x2="820.000000" y2="497.393554" stroke="#002255" stroke-width="1.000000" />
	<line id="217" x1="351.139474" y1="502.393554" x2="820.000000" y2="502.393554" stroke="#002255" stroke-width="1.000000" />
	<line id="218" x1="351.139474" y1="507.393554" x2="820.000000" y2="507.393554" stroke="#002255" stroke-width="1.000000" />
	<line id="219" x1="351.139474" y1="512.393554" x2="820.000000" y2="512.393554" stroke="#002255" stroke-width="1.000000" />
	<line id="220" x1="351.139474" y1="517.393554" x2="820.000000" y2="517.393554" stroke="#002255" stroke-width="1.000000" />
	<line id="221" x1="351.139474" y1="522.393554" x2="820.000000" y2="522.393554" stroke="#002255" stroke-width="1.000000" />
	<line id="222" x1="351.139474" y1="527.393554" x2="820.000000" y2="527.393554" stroke="#002255" stroke-width="1.000000" />
	<line id="223" x1="351.139474" y1="532.393554" x2="820.000000" y2="532.393554" stroke="#002255" stroke-width="1.000000" />
	<text id="50" x="820.000000" y="300.000000" text-anchor="start" stroke="#CC2200" fill="#08001A" fill-opacity="60%" > Dentre os grandes es o primeiro</text>
	<text id="51" x="794.960569" y="400.158898" text-anchor="start" stroke="#08001A" fill="#B30000" fill-opacity="60%" > De Sao Paulo tens o nome</text>
	<text id="52" x="732.264172" y="480.212620" text-anchor="start" stroke="#CC2200" fill="#CC2200" fill-opacity="60%" > As tuas gloriasVem do passado</text>
	<text id="53" x="643.777807" y="527.064743" text-anchor="start" stroke="#08001A" fill="#000000" fill-opacity="60%" > Amado clube brasileiro</text>
	<text id="54" x="545.435811" y="533.712645" text-anchor="start" stroke="#000000" fill="#08001A" fill-opacity="60%" > Que ostentas dignamente</text>
	<text id="55" x="454.375000" y="500.268375" text-anchor="start" stroke="#FFFFFF" fill="#000000" fill-opacity="60%" > Salve o tricolor paulista</text>
	<text id="56" x="385.948634" y="433.721145" text-anchor="start" stroke="#000000" fill="#FFFFFF" fill-opacity="60%" > Que ostentas dignamente</text>
	<text id="57" x="351.139474" y="346.520241" text-anchor="start" stroke="#08001A" fill="#000000" fill-opacity="60%" > De Sao Paulo tens o nome</text>
	<text id="58" x="354.807528" y="254.259428" text-anchor="start" stroke="#FFFFFF" fill="#FFFFFF" fill-opacity="60%" > De Sao Paulo tens o nome</text>
	<text id="59" x="395.050075" y="172.891439" text-anchor="start" stroke="#CC2200" fill="#FFFFFF" fill-opacity="60%" > Que te amam eternamente</text>
	<text id="60" x="463.750000" y="115.969602" text-anchor="start" stroke="#B30000" fill="#FFFFFF" fill-opacity="60%" > Salve o tricolor paulista</text>
	<text id="61" x="548.179683" y="92.393554" text-anchor="start" stroke="#FFFFFF" fill="#000000" fill-opacity="60%" > Sao teus guias brasileiros</text>
	<text id="62" x="633.348484" y="105.033414" text-anchor="start" stroke="#000000" fill="#CC2200" fill-opacity="60%" > Que te amam eternamente</text>
	<text id="63" x="704.662535" y="150.442104" text-anchor="start" stroke="#B30000" fill="#08001A" fill-opacity="60%" > Tu es forte, tu es grande</text>
	<text id="64" x="750.425228" y="219.669513" text-anchor="start" stroke="#B30000" fill="#08001A" fill-opacity="60%" > De Sao Paulo tens o nome</text>
	<text id="65" x="763.750000" y="300.000000" text-anchor="start" stroke="#000000" fill="#B30000" fill-opacity="60%" > Clube bem amado</text>
	<text id="66" x="743.573637" y="377.279962" text-anchor="start" stroke="#FFFFFF" fill="#000000" fill-opacity="60%" > Amado clube brasileiro</text>
	<text id="67" x="694.625575" y="438.410724" text-anchor="start" stroke="#CC2200" fill="#08001A" fill-opacity="60%" > Tu es forte, tu es grande</text>
	<text id="68" x="626.395601" y="473.567814" text-anchor="start" stroke="#B30000" fill="#CC2200" fill-opacity="60%" > Que ostentas dignamente</text>
	<text id="69" x="551.315537" y="477.770789" text-anchor="start" stroke="#B30000" fill="#CC2200" fill-opacity="60%" > Que te amam eternamente</text>
	<text id="70" x="482.500000" y="451.554446" text-anchor="start" stroke="#000000" fill="#000000" fill-opacity="60%" > De Sao Paulo tens o nome</text>
	<text id="71" x="431.455840" y="400.658224" text-anchor="start" stroke="#000000" fill="#CC2200" fill-opacity="60%" > Amado clube brasileiro</text>
	<text id="72" x="406.160277" y="334.825208" text-anchor="start" stroke="#000000" fill="#000000" fill-opacity="60%" > Salve o tricolor paulista</text>
	<text id="73" x="409.828330" y="265.954461" text-anchor="start" stroke="#000000" fill="#B30000" fill-opacity="60%" > De Sao Paulo tens o nome</text>
	<text id="74" x="440.557281" y="205.954360" text-anchor="start" stroke="#FFFFFF" fill="#CC2200" fill-opacity="60%" > Dentre os grandes es o primeiro</text>
	<text id="75" x="491.875000" y="164.683531" text-anchor="start" stroke="#FFFFFF" fill="#FFFFFF" fill-opacity="60%" > Salve o tricolor paulista</text>
	<text id="76" x="554.059409" y="148.335411" text-anchor="start" stroke="#000000" fill="#CC2200" fill-opacity="60%" > Que ostentas dignamente</text>
	<text id="77" x="615.966278" y="158.530343" text-anchor="start" stroke="#08001A" fill="#08001A" fill-opacity="60%" > Que ostentas dignamente</text>
	<text id="78" x="667.023938" y="192.244000" text-anchor="start" stroke="#B30000" fill="#FFFFFF" fill-opacity="60%" > Dentre os grandes es o primeiro</text>
	<text id="79" x="699.038296" y="242.548449" text-anchor="start" stroke="#08001A" fill="#000000" fill-opacity="60%" > Sao teus guias brasileiros</text>
	<text id="80" x="676.199659" y="252.716865" text-anchor="start" stroke="#B30000" fill="#B30000" fill-opacity="60%" > Oh, Tricolor</text>
	<text id="81" x="650.295673" y="210.822621" text-anchor="start" stroke="#FFFFFF" fill="#B30000" fill-opacity="60%" > Clube bem amado</text>
	<text id="82" x="608.240853" y="182.306756" text-anchor="start" stroke="#FFFFFF" fill="#08001A" fill-opacity="60%" > De Sao Paulo tens o nome</text>
	<text id="83" x="556.672621" y="173.198458" text-anchor="start" stroke="#000000" fill="#FFFFFF" fill-opacity="60%" > Amado clube brasileiro</text>
	<text id="84" x="504.375000" y="186.334166" text-anchor="start" stroke="#B30000" fill="#B30000" fill-opacity="60%" > Que ostentas dignamente</text>
	<text id="85" x="460.782706" y="220.648991" text-anchor="start" stroke="#B30000" fill="#B30000" fill-opacity="60%" > As tuas gloriasVem do passado</text>
	<text id="86" x="434.282020" y="271.152253" text-anchor="start" stroke="#FFFFFF" fill="#000000" fill-opacity="60%" > Tu es forte, tu es grande</text>
	<text id="87" x="430.613967" y="329.627416" text-anchor="start" stroke="#B30000" fill="#FFFFFF" fill-opacity="60%" > Que te amam eternamente</text>
	<text id="88" x="451.681265" y="385.963593" text-anchor="start" stroke="#FFFFFF" fill="#08001A" fill-opacity="60%" > Que ostentas dignamente</text>
	<text id="89" x="495.000000" y="429.903811" text-anchor="start" stroke="#08001A" fill="#B30000" fill-opacity="60%" > Salve o tricolor paulista</text>
	<text id="90" x="553.928749" y="452.907741" text-anchor="start" stroke="#FFFFFF" fill="#FFFFFF" fill-opacity="60%" > Dentre os grandes es o primeiro</text>
	<text id="91" x="618.670177" y="449.791401" text-anchor="start" stroke="#000000" fill="#FFFFFF" fill-opacity="60%" > Sao teus guias brasileiros</text>
	<text id="92" x="677.897310" y="419.832103" text-anchor="start" stroke="#FFFFFF" fill="#08001A" fill-opacity="60%" > Amado clube brasileiro</text>
	<text id="93" x="720.735001" y="367.111546" text-anchor="start" stroke="#08001A" fill="#08001A" fill-opacity="60%" > De Sao Paulo tens o nome</text>
	<text id="94" x="738.750000" y="300.000000" text-anchor="start" stroke="#FFFFFF" fill="#B30000" fill-opacity="60%" > Salve o tricolor paulista</text>
	<text id="95" x="727.586591" y="229.837929" text-anchor="start" stroke="#08001A" fill="#FFFFFF" fill-opacity="60%" > Sao teus guias brasileiros</text>
	<text id="96" x="687.934269" y="169.020725" text-anchor="start" stroke="#000000" fill="#B30000" fill-opacity="60%" > Clube bem amado</text>
	<text id="97" x="625.623059" y="128.809827" text-anchor="start" stroke="#08001A" fill="#FFFFFF" fill-opacity="60%" > Oh, Tricolor</text>
	<text id="98" x="550.792895" y="117.256602" text-anchor="start" stroke="#08001A" fill="#FFFFFF" fill-opacity="60%" > Clube bem amado</text>
	<text id="99" x="476.250000" y="137.620237" text-anchor="start" stroke="#B30000" fill="#000000" fill-opacity="60%" > Tu es forte, tu es grande</text>
	<text id="100" x="415.275500" y="187.586070" text-anchor="start" stroke="#CC2200" fill="#000000" fill-opacity="60%" > Salve o tricolor paulista</text>
	<text id="101" x="379.261218" y="259.457220" text-anchor="start" stroke="#000000" fill="#B30000" fill-opacity="60%" > Que ostentas dignamente</text>
	<text id="102" x="375.593164" y="341.322449" text-anchor="start" stroke="#000000" fill="#FFFFFF" fill-opacity="60%" > Clube bem amado</text>
	<text id="103" x="406.174059" y="419.026514" text-anchor="start" stroke="#B30000" fill="#FFFFFF" fill-opacity="60%" > De Sao Paulo tens o nome</text>
	<text id="104" x="466.875000" y="478.617740" text-anchor="start" stroke="#000000" fill="#FFFFFF" fill-opacity="60%" > Sao teus guias brasileiros</text>
	<text id="105" x="548.049023" y="508.849598" text-anchor="start" stroke="#B30000" fill="#08001A" fill-opacity="60%" > Tu es forte, tu es grande</text>
	<text id="106" x="636.052383" y="503.288330" text-anchor="start" stroke="#08001A" fill="#B30000" fill-opacity="60%" > Dentre os grandes es o primeiro</text>
	<text id="107" x="715.535907" y="461.634000" text-anchor="start" stroke="#08001A" fill="#CC2200" fill-opacity="60%" > Que te amam eternamente</text>
	<text id="108" x="772.121933" y="389.990482" text-anchor="start" stroke="#08001A" fill="#CC2200" fill-opacity="60%" > Tu es forte, tu es grande</text>
	<text id="109" x="795.000000" y="300.000000" text-anchor="start" stroke="#B30000" fill="#FFFFFF" fill-opacity="60%" > De Sao Paulo tens o nome</text>
</svg>