<svg xmlns="http://www.w3.org/2000/svg">
	<rect id="10" x="140.000000" y="65.000000" width="5.000000" height="6.000000" stroke="blue" fill="white" fill-opacity="50%" />
	<rect id="11" x="130.309230" y="93.181460" width="5.000000" height="6.000000" stroke="blue" fill="white" fill-opacity="50%" />
	<rect id="12" x="109.767498" y="112.853355" width="5.000000" height="6.000000" stroke="blue" fill="white" fill-opacity="50%" />
	<rect id="13" x="83.795528" y="120.532777" width="5.000000" height="6.000000" stroke="blue" fill="white" fill-opacity="50%" />
	<rect id="14" x="58.529394" y="115.691312" width="5.000000" height="6.000000" stroke="blue" fill="white" fill-opacity="50%" />
	<rect id="15" x="39.379496" y="100.620504" width="5.000000" height="6.000000" stroke="blue" fill="white" fill-opacity="50%" />
	<rect id="16" x="29.872368" y="79.662856" width="5.000000" height="6.000000" stroke="blue" fill="white" fill-opacity="50%" />
	<rect id="17" x="31.023177" y="58.034755" width="5.000000" height="6.000000" stroke="blue" fill="white" fill-opacity="50%" />
	<rect id="18" x="41.344893" y="40.548134" width="5.000000" height="6.000000" stroke="blue" fill="white" fill-opacity="50%" />
	<rect id="19" x="57.441917" y="30.540323" width="5.000000" height="6.000000" stroke="blue" fill="white" fill-opacity="50%" />
	<rect id="20" x="60.392856" y="36.331865" width="5.000000" height="6.000000" stroke="blue" fill="white" fill-opacity="50%" />
	<rect id="21" x="46.603503" y="44.368738" width="5.000000" height="6.000000" stroke="blue" fill="white" fill-opacity="50%" />
	<rect id="22" x="37.443151" y="59.051579" width="5.000000" height="6.000000" stroke="blue" fill="white" fill-opacity="50%" />
	<rect id="23" x="36.054236" y="77.654246" width="5.000000" height="6.000000" stroke="blue" fill="white" fill-opacity="50%" />
	<rect id="24" x="43.975690" y="96.024310" width="5.000000" height="6.000000" stroke="blue" fill="white" fill-opacity="50%" />
	<rect id="25" x="60.538005" y="109.509445" width="5.000000" height="6.000000" stroke="blue" fill="white" fill-opacity="50%" />
	<rect id="26" x="82.778704" y="114.112803" width="5.000000" height="6.000000" stroke="blue" fill="white" fill-opacity="50%" />
	<rect id="27" x="105.946894" y="107.594745" width="5.000000" height="6.000000" stroke="blue" fill="white" fill-opacity="50%" />
	<rect id="28" x="124.517688" y="90.230522" width="5.000000" height="6.000000" stroke="blue" fill="white" fill-opacity="50%" />
	<rect id="29" x="133.500000" y="65.000000" width="5.000000" height="6.000000" stroke="blue" fill="white" fill-opacity="50%" />
	<rect id="30" x="310.000000" y="95.000000" width="5.000000" height="6.000000" stroke="blue" fill="white" fill-opacity="50%" />
	<rect id="31" x="300.309230" y="123.181460" width="5.000000" height="6.000000" stroke="blue" fill="white" fill-opacity="50%" />
	<rect id="32" x="279.767498" y="142.853355" width="5.000000" height="6.000000" stroke="blue" fill="white" fill-opacity="50%" />
	<rect id="33" x="253.795528" y="150.532777" width="5.000000" height="6.000000" stroke="blue" fill="white" fill-opacity="50%" />
	<rect id="34" x="228.529394" y="145.691312" width="5.000000" height="6.000000" stroke="blue" fill="white" fill-opacity="50%" />
	<rect id="35" x="209.379496" y="130.620504" width="5.000000" height="6.000000" stroke="blue" fill="white" fill-opacity="50%" />
	<rect id="36" x="199.872368" y="109.662856" width="5.000000" height="6.000000" stroke="blue" fill="white" fill-opacity="50%" />
	<rect id="37" x="201.023177" y="88.034755" width="5.000000" height="6.000000" stroke="blue" fill="white" fill-opacity="50%" />
	<rect id="38" x="211.344893" y="70.548134" width="5.000000" height="6.000000" stroke="blue" fill="white" fill-opacity="50%" />
	<rect id="39" x="227.441917" y="60.540323" width="5.000000" height="6.000000" stroke="blue" fill="white" fill-opacity="50%" />
	<rect id="40" x="230.392856" y="66.331865" width="5.000000" height="6.000000" stroke="blue" fill="white" fill-opacity="50%" />
	<rect id="41" x="216.603503" y="74.368738" width="5.000000" height="6.000000" stroke="blue" fill="white" fill-opacity="50%" />
	<rect id="42" x="207.443151" y="89.051579" width="5.000000" height="6.000000" stroke="blue" fill="white" fill-opacity="50%" />
	<rect id="43" x="206.054236" y="107.654246" width="5.000000" height="6.000000" stroke="blue" fill="white" fill-opacity="50%" />
	<rect id="44" x="213.975690" y="126.024310" width="5.000000" height="6.000000" stroke="blue" fill="white" fill-opacity="50%" />
	<rect id="45" x="230.538005" y="139.509445" width="5.000000" height="6.000000" stroke="blue" fill="white" fill-opacity="50%" />
	<rect id="46" x="252.778704" y="144.112803" width="5.000000" height="6.000000" stroke="blue" fill="white" fill-opacity="50%" />
	<rect id="47" x="275.946894" y="137.594745" width="5.000000" height="6.000000" stroke="blue" fill="white" fill-opacity="50%" />
	<rect id="48" x="294.517688" y="120.230522" width="5.000000" height="6.000000" stroke="blue" fill="white" fill-opacity="50%" />
	<rect id="49" x="303.500000" y="95.000000" width="5.000000" height="6.000000" stroke="blue" fill="white" fill-opacity="50%" />
	<rect id="50" x="820.000000" y="300.000000" width="5.000000" height="6.000000" stroke="blue" fill="white" fill-opacity="50%" />
	<rect id="51" x="794.960569" y="400.158898" width="5.000000" height="6.000000" stroke="blue" fill="white" fill-opacity="50%" />
	<rect id="52" x="732.264172" y="480.212620" width="5.000000" height="6.000000" stroke="blue" fill="white" fill-opacity="50%" />
	<rect id="53" x="643.777807" y="527.064743" width="5.000000" height="6.000000" stroke="blue" fill="white" fill-opacity="50%" />
	<rect id="54" x="545.435811" y="533.712645" width="5.000000" height="6.000000" stroke="blue" fill="white" fill-opacity="50%" />
	<rect id="55" x="454.375000" y="500.268375" width="5.000000" height="6.000000" stroke="blue" fill="white" fill-opacity="50%" />
	<rect id="56" x="385.948634" y="433.721145" width="5.000000" height="6.000000" stroke="blue" fill="white" fill-opacity="50%" />
	<rect id="57" x="351.139474" y="346.520241" width="5.000000" height="6.000000" stroke="blue" fill="white" fill-opacity="50%" />
	<rect id="58" x="354.807528" y="254.259428" width="5.000000" height="6.000000" stroke="blue" fill="white" fill-opacity="50%" />
	<rect id="59" x="395.050075" y="172.891439" width="5.000000" height="6.000000" stroke="blue" fill="white" fill-opacity="50%" />
	<rect id="60" x="463.750000" y="115.969602" width="5.000000" height="6.000000" stroke="blue" fill="white" fill-opacity="50%" />
	<rect id="61" x="548.179683" y="92.393554" width="5.000000" height="6.000000" stroke="blue" fill="white" fill-opacity="50%" />
	<rect id="62" x="633.348484" y="105.033414" width="5.000000" height="6.000000" stroke="blue" fill="white" fill-opacity="50%" />
	<rect id="63" x="704.662535" y="150.442104" width="5.000000" height="6.000000" stroke="blue" fill="white" fill-opacity="50%" />
	<rect id="64" x="750.425228" y="219.669513" width="5.000000" height="6.000000" stroke="blue" fill="white" fill-opacity="50%" />
	<rect id="65" x="763.750000" y="300.000000" width="5.000000" height="6.000000" stroke="blue" fill="white" fill-opacity="50%" />
	<rect id="66" x="743.573637" y="377.279962" width="5.000000" height="6.000000" stroke="blue" fill="white" fill-opacity="50%" />
	<rect id="67" x="694.625575" y="438.410724" width="5.000000" height="6.000000" stroke="blue" fill="white" fill-opacity="50%" />
	<rect id="68" x="626.395601" y="473.567814" width="5.000000" height="6.000000" stroke="blue" fill="white" fill-opacity="50%" />
	<rect id="69" x="551.315537" y="477.770789" width="5.000000" height="6.000000" stroke="blue" fill="white" fill-opacity="50%" />
	<rect id="70" x="482.500000" y="451.554446" width="5.000000" height="6.000000" stroke="blue" fill="white" fill-opacity="50%" />
	<rect id="71" x="431.455840" y="400.658224" width="5.000000" height="6.000000" stroke="blue" fill="white" fill-opacity="50%" />
	<rect id="72" x="406.160277" y="334.825208" width="5.000000" height="6.000000" stroke="blue" fill="white" fill-opacity="50%" />
	<rect id="73" x="409.828330" y="265.954461" width="5.000000" height="6.000000" stroke="blue" fill="white" fill-opacity="50%" />
	<rect id="74" x="440.557281" y="205.954360" width="5.000000" height="6.000000" stroke="blue" fill="white" fill-opacity="50%" />
	<rect id="75" x="491.875000" y="164.683531" width="5.000000" height="6.000000" stroke="blue" fill="white" fill-opacity="50%" />
	<rect id="76" x="554.059409" y="148.335411" width="5.000000" height="6.000000" stroke="blue" fill="white" fill-opacity="50%" />
	<rect id="77" x="615.966278" y="158.530343" width="5.000000" height="6.000000" stroke="blue" fill="white" fill-opacity="50%" />
	<rect id="78" x="667.023938" y="192.244000" width="5.000000" height="6.000000" stroke="blue" fill="white" fill-opacity="50%" />
	<rect id="79" x="699.038296" y="242.548449" width="5.000000" height="6.000000" stroke="blue" fill="white" fill-opacity="50%" />
	<rect id="80" x="676.199659" y="252.716865" width="5.000000" height="6.000000" stroke="blue" fill="white" fill-opacity="50%" />
	<rect id="81" x="650.295673" y="210.822621" width="5.000000" height="6.000000" stroke="blue" fill="white" fill-opacity="50%" />
	<rect id="82" x="608.240853" y="182.306756" width="5.000000" height="6.000000" stroke="blue" fill="white" fill-opacity="50%" />
	<rect id="83" x="556.672621" y="173.198458" width="5.000000" height="6.000000" stroke="blue" fill="white" fill-opacity="50%" />
	<rect id="84" x="504.375000" y="186.334166" width="5.000000" height="6.000000" stroke="blue" fill="white" fill-opacity="50%" />
	<rect id="85" x="460.782706" y="220.648991" width="5.000000" height="6.000000" stroke="blue" fill="white" fill-opacity="50%" />
	<rect id="86" x="434.282020" y="271.152253" width="5.000000" height="6.000000" stroke="blue" fill="white" fill-opacity="50%" />
	<rect id="87" x="430.613967" y="329.627416" width="5.000000" height="6.000000" stroke="blue" fill="white" fill-opacity="50%" />
	<rect id="88" x="451.681265" y="385.963593" width="5.000000" height="6.000000" stroke="blue" fill="white" fill-opacity="50%" />
	<rect id="89" x="495.000000" y="429.903811" width="5.000000" height="6.000000" stroke="blue" fill="white" fill-opacity="50%" />
	<rect id="90" x="553.928749" y="452.907741" width="5.000000" height="6.000000" stroke="blue" fill="white" fill-opacity="50%" />
	<rect id="91" x="618.670177" y="449.791401" width="5.000000" height="6.000000" stroke="blue" fill="white" fill-opacity="50%" />
	<rect id="92" x="677.897310" y="419.832103" width="5.000000" height="6.000000" stroke="blue" fill="white" fill-opacity="50%" />
	<rect id="93" x="720.735001" y="367.111546" width="5.000000" height="6.000000" stroke="blue" fill="white" fill-opacity="50%" />
	<rect id="94" x="738.750000" y="300.000000" width="5.000000" height="6.000000" stroke="blue" fill="white" fill-opacity="50%" />
	<rect id="95" x="727.586591" y="229.837929" width="5.000000" height="6.000000" stroke="blue" fill="white" fill-opacity="50%" />
	<rect id="96" x="687.934269" y="169.020725" width="5.000000" height="6.000000" stroke="blue" fill="white" fill-opacity="50%" />
	<rect id="97" x="625.623059" y="128.809827" width="5.000000" height="6.000000" stroke="blue" fill="white" fill-opacity="50%" />
	<rect id="98" x="550.792895" y="117.256602" width="5.000000" height="6.000000" stroke="blue" fill="white" fill-opacity="50%" />
	<rect id="99" x="476.250000" y="137.620237" width="5.000000" height="6.000000" stroke="blue" fill="white" fill-opacity="50%" />
	<rect id="100" x="415.275500" y="187.586070" width="5.000000" height="6.000000" stroke="blue" fill="white" fill-opacity="50%" />
	<rect id="101" x="379.261218" y="259.457220" width="5.000000" height="6.000000" stroke="blue" fill="white" fill-opacity="50%" />
	<rect id="102" x="375.593164" y="341.322449" width="5.000000" height="6.000000" stroke="blue" fill="white" fill-opacity="50%" />
	<rect id="103" x="406.174059" y="419.026514" width="5.000000" height="6.000000" stroke="blue" fill="white" fill-opacity="50%" />
	<rect id="104" x="466.875000" y="478.617740" width="5.000000" height="6.000000" stroke="blue" fill="white" fill-opacity="50%" />
	<rect id="105" x="548.049023" y="508.849598" width="5.000000" height="6.000000" stroke="blue" fill="white" fill-opacity="50%" />
	<rect id="106" x="636.052383" y="503.288330" width="5.000000" height="6.000000" stroke="blue" fill="white" fill-opacity="50%" />
	<rect id="107" x="715.535907" y="461.634000" width="5.000000" height="6.000000" stroke="blue" fill="white" fill-opacity="50%" />
	<rect id="108" x="772.121933" y="389.990482" width="5.000000" height="6.000000" stroke="blue" fill="white" fill-opacity="50%" />
	<rect id="109" x="795.000000" y="300.000000" width="5.000000" height="6.000000" stroke="blue" fill="white" fill-opacity="50%" />
</svg>