<svg xmlns="http://www.w3.org/2000/svg">
	<rect id="50" x="820.000000" y="300.000000" width="5.000000" height="6.000000" stroke="blue" fill="white" fill-opacity="50%" />
	<rect id="51" x="794.960569" y="400.158898" width="5.000000" height="6.000000" stroke="blue" fill="white" fill-opacity="50%" />
	<rect id="52" x="732.264172" y="480.212620" width="5.000000" height="6.000000" stroke="blue" fill="white" fill-opacity="50%" />
	<rect id="53" x="643.777807" y="527.064743" width="5.000000" height="6.000000" stroke="blue" fill="white" fill-opacity="50%" />
	<rect id="54" x="545.435811" y="533.712645" width="5.000000" height="6.000000" stroke="blue" fill="white" fill-opacity="50%" />
	<rect id="55" x="454.375000" y="500.268375" width="5.000000" height="6.000000" stroke="blue" fill="white" fill-opacity="50%" />
	<rect id="56" x="385.948634" y="433.721145" width="5.000000" height="6.000000" stroke="blue" fill="white" fill-opacity="50%" />
	<rect id="57" x="351.139474" y="346.520241" width="5.000000" height="6.000000" stroke="blue" fill="white" fill-opacity="50%" />
	<rect id="58" x="354.807528" y="254.259428" width="5.000000" height="6.000000" stroke="blue" fill="white" fill-opacity="50%" />
	<rect id="59" x="395.050075" y="172.891439" width="5.000000" height="6.000000" stroke="blue" fill="white" fill-opacity="50%" />
	<rect id="60" x="463.750000" y="115.969602" width="5.000000" height="6.000000" stroke="blue" fill="white" fill-opacity="50%" />
	<rect id="61" x="548.179683" y="92.393554" width="5.000000" height="6.000000" stroke="blue" fill="white" fill-opacity="50%" />
	<rect id="62" x="633.348484" y="105.033414" width="5.000000" height="6.000000" stroke="blue" fill="white" fill-opacity="50%" />
	<rect id="63" x="704.662535" y="150.442104" width="5.000000" height="6.000000" stroke="blue" fill="white" fill-opacity="50%" />
	<rect id="64" x="750.425228" y="219.669513" width="5.000000" height="6.000000" stroke="blue" fill="white" fill-opacity="50%" />
	<rect id="65" x="763.750000" y="300.000000" width="5.000000" height="6.000000" stroke="blue" fill="white" fill-opacity="50%" />
	<rect id="66" x="743.573637" y="377.279962" width="5.000000" height="6.000000" stroke="blue" fill="white" fill-opacity="50%" />
	<rect id="67" x="694.625575" y="438.410724" width="5.000000" height="6.000000" stroke="blue" fill="white" fill-opacity="50%" />
	<rect id="68" x="626.395601" y="473.567814" width="5.000000" height="6.000000" stroke="blue" fill="white" fill-opacity="50%" />
	<rect id="69" x="551.315537" y="477.770789" width="5.000000" height="6.000000" stroke="blue" fill="white" fill-opacity="50%" />
	<rect id="70" x="482.500000" y="451.554446" width="5.000000" height="6.000000" stroke="blue" fill="white" fill-opacity="50%" />
	<rect id="71" x="431.455840" y="400.658224" width="5.000000" height="6.000000" stroke="blue" fill="white" fill-opacity="50%" />
	<rect id="72" x="406.160277" y="334.825208" width="5.000000" height="6.000000" stroke="blue" fill="white" fill-opacity="50%" />
	<rect id="73" x="409.828330" y="265.954461" width="5.000000" height="6.000000" stroke="blue" fill="white" fill-opacity="50%" />
	<rect id="74" x="440.557281" y="205.954360" width="5.000000" height="6.000000" stroke="blue" fill="white" fill-opacity="50%" />
	<rect id="75" x="491.875000" y="164.683531" width="5.000000" height="6.000000" stroke="blue" fill="white" fill-opacity="50%" />
	<rect id="76" x="554.059409" y="148.335411" width="5.000000" height="6.000000" stroke="blue" fill="white" fill-opacity="50%" />
	<rect id="77" x="615.966278" y="158.530343" width="5.000000" height="6.000000" stroke="blue" fill="white" fill-opacity="50%" />
	<rect id="78" x="667.023938" y="192.244000" width="5.000000" height="6.000000" stroke="blue" fill="white" fill-opacity="50%" />
	<rect id="79" x="699.038296" y="242.548449" width="5.000000" height="6.000000" stroke="blue" fill="white" fill-opacity="50%" />
	<rect id="80" x="676.199659" y="252.716865" width="5.000000" height="6.000000" stroke="blue" fill="white" fill-opacity="50%" />
	<rect id="81" x="650.295673" y="210.822621" width="5.000000" height="6.000000" stroke="blue" fill="white" fill-opacity="50%" />
	<rect id="82" x="608.240853" y="182.306756" width="5.000000" height="6.000000" stroke="blue" fill="white" fill-opacity="50%" />
	<rect id="83" x="556.672621" y="173.198458" width="5.000000" height="6.000000" stroke="blue" fill="white" fill-opacity="50%" />
	<rect id="84" x="504.375000" y="186.334166" width="5.000000" height="6.000000" stroke="blue" fill="white" fill-opacity="50%" />
	<rect id="85" x="460.782706" y="220.648991" width="5.000000" height="6.000000" stroke="blue" fill="white" fill-opacity="50%" />
	<rect id="86" x="434.282020" y="271.152253" width="5.000000" height="6.000000" stroke="blue" fill="white" fill-opacity="50%" />
	<rect id="87" x="430.613967" y="329.627416" width="5.000000" height="6.000000" stroke="blue" fill="white" fill-opacity="50%" />
	<rect id="88" x="451.681265" y="385.963593" width="5.000000" height="6.000000" stroke="blue" fill="white" fill-opacity="50%" />
	<rect id="89" x="495.000000" y="429.903811" width="5.000000" height="6.000000" stroke="blue" fill="white" fill-opacity="50%" />
	<rect id="90" x="553.928749" y="452.907741" width="5.000000" height="6.000000" stroke="blue" fill="white" fill-opacity="50%" />
	<rect id="91" x="618.670177" y="449.791401" width="5.000000" height="6.000000" stroke="blue" fill="white" fill-opacity="50%" />
	<rect id="92" x="677.897310" y="419.832103" width="5.000000" height="6.000000" stroke="blue" fill="white" fill-opacity="50%" />
	<rect id="93" x="720.735001" y="367.111546" width="5.000000" height="6.000000" stroke="blue" fill="white" fill-opacity="50%" />
	<rect id="94" x="738.750000" y="300.000000" width="5.000000" height="6.000000" stroke="blue" fill="white" fill-opacity="50%" />
	<rect id="95" x="727.586591" y="229.837929" width="5.000000" height="6.000000" stroke="blue" fill="white" fill-opacity="50%" />
	<rect id="96" x="687.934269" y="169.020725" width="5.000000" height="6.000000" stroke="blue" fill="white" fill-opacity="50%" />
	<rect id="97" x="625.623059" y="128.809827" width="5.000000" height="6.000000" stroke="blue" fill="white" fill-opacity="50%" />
	<rect id="98" x="550.792895" y="117.256602" width="5.000000" height="6.000000" stroke="blue" fill="white" fill-opacity="50%" />
	<rect id="99" x="476.250000" y="137.620237" width="5.000000" height="6.000000" stroke="blue" fill="white" fill-opacity="50%" />
	<rect id="100" x="415.275500" y="187.586070" width="5.000000" height="6.000000" stroke="blue" fill="white" fill-opacity="50%" />
	<rect id="101" x="379.261218" y="259.457220" width="5.000000" height="6.000000" stroke="blue" fill="white" fill-opacity="50%" />
	<rect id="102" x="375.593164" y="341.322449" width="5.000000" height="6.000000" stroke="blue" fill="white" fill-opacity="50%" />
	<rect id="103" x="406.174059" y="419.026514" width="5.000000" height="6.000000" stroke="blue" fill="white" fill-opacity="50%" />
	<rect id="104" x="466.875000" y="478.617740" width="5.000000" height="6.000000" stroke="blue" fill="white" fill-opacity="50%" />
	<rect id="105" x="548.049023" y="508.849598" width="5.000000" height="6.000000" stroke="blue" fill="white" fill-opacity="50%" />
	<rect id="106" x="636.052383" y="503.288330" width="5.000000" height="6.000000" stroke="blue" fill="white" fill-opacity="50%" />
	<rect id="107" x="715.535907" y="461.634000" width="5.000000" height="6.000000" stroke="blue" fill="white" fill-opacity="50%" />
	<rect id="108" x="772.121933" y="389.990482" width="5.000000" height="6.000000" stroke="blue" fill="white" fill-opacity="50%" />
	<rect id="109" x="795.000000" y="300.000000" width="5.000000" height="6.000000" stroke="blue" fill="white" fill-opacity="50%" />
	<circle cx="820.000000" cy="300.000000" r="1.000000" stroke="red" fill="black" fill-opacity="75%" />
	<circle cx="794.960569" cy="400.158898" r="1.000000" stroke="red" fill="black" fill-opacity="75%" />
	<circle cx="732.264172" cy="480.212620" r="1.000000" stroke="red" fill="black" fill-opacity="75%" />
	<circle cx="643.777807" cy="527.064743" r="1.000000" stroke="red" fill="black" fill-opacity="75%" />
	<circle cx="545.435811" cy="533.712645" r="1.000000" stroke="red" fill="black" fill-opacity="75%" />
	<circle cx="454.375000" cy="500.268375" r="1.000000" stroke="red" fill="black" fill-opacity="75%" />
	<circle cx="385.948634" cy="433.721145" r="1.000000" stroke="red" fill="black" fill-opacity="75%" />
	<circle cx="351.139474" cy="346.520241" r="1.000000" stroke="red" fill="black" fill-opacity="75%" />
	<circle cx="354.807528" cy="254.259428" r="1.000000" stroke="red" fill="black" fill-opacity="75%" />
	<circle cx="395.050075" cy="172.891439" r="1.000000" stroke="red" fill="black" fill-opacity="75%" />
	<circle cx="463.750000" cy="115.969602" r="1.000000" stroke="red" fill="black" fill-opacity="75%" />
	<circle cx="548.179683" cy="92.393554" r="1.000000" stroke="red" fill="black" fill-opacity="75%" />
	<circle cx="633.348484" cy="105.033414" r="1.000000" stroke="red" fill="black" fill-opacity="75%" />
	<circle cx="704.662535" cy="150.442104" r="1.000000" stroke="red" fill="black" fill-opacity="75%" />
	<circle cx="750.425228" cy="219.669513" r="1.000000" stroke="red" fill="black" fill-opacity="75%" />
	<circle cx="763.750000" cy="300.000000" r="1.000000" stroke="red" fill="black" fill-opacity="75%" />
	<circle cx="743.573637" cy="377.279962" r="1.000000" stroke="red" fill="black" fill-opacity="75%" />
	<circle cx="694.625575" cy="438.410724" r="1.000000" stroke="red" fill="black" fill-opacity="75%" />
	<circle cx="626.395601" cy="473.567814" r="1.000000" stroke="red" fill="black" fill-opacity="75%" />
	<circle cx="551.315537" cy="477.770789" r="1.000000" stroke="red" fill="black" fill-opacity="75%" />
	<circle cx="482.500000" cy="451.554446" r="1.000000" stroke="red" fill="black" fill-opacity="75%" />
	<circle cx="431.455840" cy="400.658224" r="1.000000" stroke="red" fill="black" fill-opacity="75%" />
	<circle cx="406.160277" cy="334.825208" r="1.000000" stroke="red" fill="black" fill-opacity="75%" />
	<circle cx="409.828330" cy="265.954461" r="1.000000" stroke="red" fill="black" fill-opacity="75%" />
	<circle cx="440.557281" cy="205.954360" r="1.000000" stroke="red" fill="black" fill-opacity="75%" />
	<circle cx="491.875000" cy="164.683531" r="1.000000" stroke="red" fill="black" fill-opacity="75%" />
	<circle cx="554.059409" cy="148.335411" r="1.000000" stroke="red" fill="black" fill-opacity="75%" />
	<circle cx="615.966278" cy="158.530343" r="1.000000" stroke="red" fill="black" fill-opacity="75%" />
	<circle cx="667.023938" cy="192.244000" r="1.000000" stroke="red" fill="black" fill-opacity="75%" />
	<circle cx="699.038296" cy="242.548449" r="1.000000" stroke="red" fill="black" fill-opacity="75%" />
	<circle cx="676.199659" cy="252.716865" r="1.000000" stroke="red" fill="black" fill-opacity="75%" />
	<circle cx="650.295673" cy="210.822621" r="1.000000" stroke="red" fill="black" fill-opacity="75%" />
	<circle cx="608.240853" cy="182.306756" r="1.000000" stroke="red" fill="black" fill-opacity="75%" />
	<circle cx="556.672621" cy="173.198458" r="1.000000" stroke="red" fill="black" fill-opacity="75%" />
	<circle cx="504.375000" cy="186.334166" r="1.000000" stroke="red" fill="black" fill-opacity="75%" />
	<circle cx="460.782706" cy="220.648991" r="1.000000" stroke="red" fill="black" fill-opacity="75%" />
	<circle cx="434.282020" cy="271.152253" r="1.000000" stroke="red" fill="black" fill-opacity="75%" />
	<circle cx="430.613967" cy="329.627416" r="1.000000" stroke="red" fill="black" fill-opacity="75%" />
	<circle cx="451.681265" cy="385.963593" r="1.000000" stroke="red" fill="black" fill-opacity="75%" />
	<circle cx="495.000000" cy="429.903811" r="1.000000" stroke="red" fill="black" fill-opacity="75%" />
	<circle cx="553.928749" cy="452.907741" r="1.000000" stroke="red" fill="black" fill-opacity="75%" />
	<circle cx="618.670177" cy="449.791401" r="1.000000" stroke="red" fill="black" fill-opacity="75%" />
	<circle cx="677.897310" cy="419.832103" r="1.000000" stroke="red" fill="black" fill-opacity="75%" />
	<circle cx="720.735001" cy="367.111546" r="1.000000" stroke="red" fill="black" fill-opacity="75%" />
	<circle cx="738.750000" cy="300.000000" r="1.000000" stroke="red" fill="black" fill-opacity="75%" />
	<circle cx="727.586591" cy="229.837929" r="1.000000" stroke="red" fill="black" fill-opacity="75%" />
	<circle cx="687.934269" cy="169.020725" r="1.000000" stroke="red" fill="black" fill-opacity="75%" />
	<circle cx="625.623059" cy="128.809827" r="1.000000" stroke="red" fill="black" fill-opacity="75%" />
	<circle cx="550.792895" cy="117.256602" r="1.000000" stroke="red" fill="black" fill-opacity="75%" />
	<circle cx="476.250000" cy="137.620237" r="1.000000" stroke="red" fill="black" fill-opacity="75%" />
	<circle cx="415.275500" cy="187.586070" r="1.000000" stroke="red" fill="black" fill-opacity="75%" />
	<circle cx="379.261218" cy="259.457220" r="1.000000" stroke="red" fill="black" fill-opacity="75%" />
	<circle cx="375.593164" cy="341.322449" r="1.000000" stroke="red" fill="black" fill-opacity="75%" />
	<circle cx="406.174059" cy="419.026514" r="1.000000" stroke="red" fill="black" fill-opacity="75%" />
	<circle cx="466.875000" cy="478.617740" r="1.000000" stroke="red" fill="black" fill-opacity="75%" />
	<circle cx="548.049023" cy="508.849598" r="1.000000" stroke="red" fill="black" fill-opacity="75%" />
	<circle cx="636.052383" cy="503.288330" r="1.000000" stroke="red" fill="black" fill-opacity="75%" />
	<circle cx="715.535907" cy="461.634000" r="1.000000" stroke="red" fill="black" fill-opacity="75%" />
	<circle cx="772.121933" cy="389.990482" r="1.000000" stroke="red" fill="black" fill-opacity="75%" />
	<circle cx="795.000000" cy="300.000000" r="1.000000" stroke="red" fill="black" fill-opacity="75%" />
	<line id="119" x1="820.000000" y1="300.000000" x2="794.960569" y2="400.158898" stroke="#002255" />
	<line id="120" x1="794.960569" y1="400.158898" x2="732.264172" y2="480.212620" stroke="#002255" />
	<line id="121" x1="732.264172" y1="480.212620" x2="643.777807" y2="527.064743" stroke="#002255" />
	<line id="122" x1="643.777807" y1="527.064743" x2="545.435811" y2="533.712645" stroke="#002255" />
	<line id="123" x1="545.435811" y1="533.712645" x2="454.375000" y2="500.268375" stroke="#002255" />
	<line id="124" x1="454.375000" y1="500.268375" x2="385.948634" y2="433.721145" stroke="#002255" />
	<line id="125" x1="385.948634" y1="433.721145" x2="351.139474" y2="346.520241" stroke="#002255" />
	<line id="126" x1="351.139474" y1="346.520241" x2="354.807528" y2="254.259428" stroke="#002255" />
	<line id="127" x1="354.807528" y1="254.259428" x2="395.050075" y2="172.891439" stroke="#002255" />
	<line id="128" x1="395.050075" y1="172.891439" x2="463.750000" y2="115.969602" stroke="#002255" />
	<line id="129" x1="463.750000" y1="115.969602" x2="548.179683" y2="92.393554" stroke="#002255" />
	<line id="130" x1="548.179683" y1="92.393554" x2="633.348484" y2="105.033414" stroke="#002255" />
	<line id="131" x1="633.348484" y1="105.033414" x2="704.662535" y2="150.442104" stroke="#002255" />
	<line id="132" x1="704.662535" y1="150.442104" x2="750.425228" y2="219.669513" stroke="#002255" />
	<line id="133" x1="750.425228" y1="219.669513" x2="763.750000" y2="300.000000" stroke="#002255" />
	<line id="134" x1="763.750000" y1="300.000000" x2="743.573637" y2="377.279962" stroke="#002255" />
	<line id="135" x1="743.573637" y1="377.279962" x2="694.625575" y2="438.410724" stroke="#002255" />
	<line id="136" x1="694.625575" y1="438.410724" x2="626.395601" y2="473.567814" stroke="#002255" />
	<line id="137" x1="626.395601" y1="473.567814" x2="551.315537" y2="477.770789" stroke="#002255" />
	<line id="138" x1="551.315537" y1="477.770789" x2="482.500000" y2="451.554446" stroke="#002255" />
	<line id="139" x1="482.500000" y1="451.554446" x2="431.455840" y2="400.658224" stroke="#002255" />
	<line id="140" x1="431.455840" y1="400.658224" x2="406.160277" y2="334.825208" stroke="#002255" />
	<line id="141" x1="406.160277" y1="334.825208" x2="409.828330" y2="265.954461" stroke="#002255" />
	<line id="142" x1="409.828330" y1="265.954461" x2="440.557281" y2="205.954360" stroke="#002255" />
	<line id="143" x1="440.557281" y1="205.954360" x2="491.875000" y2="164.683531" stroke="#002255" />
	<line id="144" x1="491.875000" y1="164.683531" x2="554.059409" y2="148.335411" stroke="#002255" />
	<line id="145" x1="554.059409" y1="148.335411" x2="615.966278" y2="158.530343" stroke="#002255" />
	<line id="146" x1="615.966278" y1="158.530343" x2="667.023938" y2="192.244000" stroke="#002255" />
	<line id="147" x1="667.023938" y1="192.244000" x2="699.038296" y2="242.548449" stroke="#002255" />
	<line id="148" x1="699.038296" y1="242.548449" x2="676.199659" y2="252.716865" stroke="#002255" />
	<line id="149" x1="676.199659" y1="252.716865" x2="650.295673" y2="210.822621" stroke="#002255" />
	<line id="150" x1="650.295673" y1="210.822621" x2="608.240853" y2="182.306756" stroke="#002255" />
	<line id="151" x1="608.240853" y1="182.306756" x2="556.672621" y2="173.198458" stroke="#002255" />
	<line id="152" x1="556.672621" y1="173.198458" x2="504.375000" y2="186.334166" stroke="#002255" />
	<line id="153" x1="504.375000" y1="186.334166" x2="460.782706" y2="220.648991" stroke="#002255" />
	<line id="154" x1="460.782706" y1="220.648991" x2="434.282020" y2="271.152253" stroke="#002255" />
	<line id="155" x1="434.282020" y1="271.152253" x2="430.613967" y2="329.627416" stroke="#002255" />
	<line id="156" x1="430.613967" y1="329.627416" x2="451.681265" y2="385.963593" stroke="#002255" />
	<line id="157" x1="451.681265" y1="385.963593" x2="495.000000" y2="429.903811" stroke="#002255" />
	<line id="158" x1="495.000000" y1="429.903811" x2="553.928749" y2="452.907741" stroke="#002255" />
	<line id="159" x1="553.928749" y1="452.907741" x2="618.670177" y2="449.791401" stroke="#002255" />
	<line id="160" x1="618.670177" y1="449.791401" x2="677.897310" y2="419.832103" stroke="#002255" />
	<line id="161" x1="677.897310" y1="419.832103" x2="720.735001" y2="367.111546" stroke="#002255" />
	<line id="162" x1="720.735001" y1="367.111546" x2="738.750000" y2="300.000000" stroke="#002255" />
	<line id="163" x1="738.750000" y1="300.000000" x2="727.586591" y2="229.837929" stroke="#002255" />
	<line id="164" x1="727.586591" y1="229.837929" x2="687.934269" y2="169.020725" stroke="#002255" />
	<line id="165" x1="687.934269" y1="169.020725" x2="625.623059" y2="128.809827" stroke="#002255" />
	<line id="166" x1="625.623059" y1="128.809827" x2="550.792895" y2="117.256602" stroke="#002255" />
	<line id="167" x1="550.792895" y1="117.256602" x2="476.250000" y2="137.620237" stroke="#002255" />
	<line id="168" x1="476.250000" y1="137.620237" x2="415.275500" y2="187.586070" stroke="#002255" />
	<line id="169" x1="415.275500" y1="187.586070" x2="379.261218" y2="259.457220" stroke="#002255" />
	<line id="170" x1="379.261218" y1="259.457220" x2="375.593164" y2="341.322449" stroke="#002255" />
	<line id="171" x1="375.593164" y1="341.322449" x2="406.174059" y2="419.026514" stroke="#002255" />
	<line id="172" x1="406.174059" y1="419.026514" x2="466.875000" y2="478.617740" stroke="#002255" />
	<line id="173" x1="466.875000" y1="478.617740" x2="548.049023" y2="508.849598" stroke="#002255" />
	<line id="174" x1="548.049023" y1="508.849598" x2="636.052383" y2="503.288330" stroke="#002255" />
	<line id="175" x1="636.052383" y1="503.288330" x2="715.535907" y2="461.634000" stroke="#002255" />
	<line id="176" x1="715.535907" y1="461.634000" x2="772.121933" y2="389.990482" stroke="#002255" />
	<line id="177" x1="772.121933" y1="389.990482" x2="795.000000" y2="300.000000" stroke="#002255" />
	<line id="178" x1="795.000000" y1="300.000000" x2="820.000000" y2="300.000000" stroke="#002255" />
	<line id="119" x1="820.000000" y1="300.000000" x2="794.960569" y2="400.158898" stroke="#FFCCAA" />
	<line id="120" x1="794.960569" y1="400.158898" x2="732.264172" y2="480.212620" stroke="#FFCCAA" />
	<line id="121" x1="732.264172" y1="480.212620" x2="643.777807" y2="527.064743" stroke="#FFCCAA" />
	<line id="122" x1="643.777807" y1="527.064743" x2="545.435811" y2="533.712645" stroke="#FFCCAA" />
	<line id="123" x1="545.435811" y1="533.712645" x2="454.375000" y2="500.268375" stroke="#FFCCAA" />
	<line id="124" x1="454.375000" y1="500.268375" x2="385.948634" y2="433.721145" stroke="#FFCCAA" />
	<line id="125" x1="385.948634" y1="433.721145" x2="351.139474" y2="346.520241" stroke="#FFCCAA" />
	<line id="126" x1="351.139474" y1="346.520241" x2="354.807528" y2="254.259428" stroke="#FFCCAA" />
	<line id="127" x1="354.807528" y1="254.259428" x2="395.050075" y2="172.891439" stroke="#FFCCAA" />
	<line id="128" x1="395.050075" y1="172.891439" x2="463.750000" y2="115.969602" stroke="#FFCCAA" />
	<line id="129" x1="463.750000" y1="115.969602" x2="548.179683" y2="92.393554" stroke="#FFCCAA" />
	<line id="130" x1="548.179683" y1="92.393554" x2="633.348484" y2="105.033414" stroke="#FFCCAA" />
	<line id="131" x1="633.348484" y1="105.033414" x2="704.662535" y2="150.442104" stroke="#FFCCAA" />
	<line id="132" x1="704.662535" y1="150.442104" x2="750.425228" y2="219.669513" stroke="#FFCCAA" />
	<line id="133" x1="750.425228" y1="219.669513" x2="763.750000" y2="300.000000" stroke="#FFCCAA" />
	<line id="134" x1="763.750000" y1="300.000000" x2="743.573637" y2="377.279962" stroke="#FFCCAA" />
	<line id="135" x1="743.573637" y1="377.279962" x2="694.625575" y2="438.410724" stroke="#FFCCAA" />
	<line id="136" x1="694.625575" y1="438.410724" x2="820.000000" y2="300.000000" stroke="#FFCCAA" />
</svg>