<svg xmlns="http://www.w3.org/2000/svg">
	<rect id="5" x="32.700000" y="42.000000" width="5.200000" height="10.600000" stroke="#c87137" fill="#ffb380" fill-opacity="50%" />
	<rect id="7" x="24.800000" y="50.000000" width="21.200000" height="37.200000" stroke="black" fill="white" fill-opacity="50%" />
	<rect id="8" x="24.800000" y="87.200000" width="21.200000" height="17.200000" stroke="black" fill="white" fill-opacity="50%" />
	<rect id="10" x="24.800000" y="61.100000" width="21.200000" height="4.500000" stroke="red" fill="red" fill-opacity="50%" />
	<rect id="11" x="24.800000" y="68.000000" width="21.200000" height="4.500000" stroke="black" fill="black" fill-opacity="50%" />
	<circle id="6" cx="35.300000" cy="28.300000" r="15.000000" stroke="#c87137" fill="#ffb380" fill-opacity="50%" />
	<line id="1" x1="8.140000" y1="41.400000" x2="23.500000" y2="60.600000" stroke="#c87137" />
	<line id="2" x1="47.300000" y1="60.600000" x2="74.100000" y2="42.800000" stroke="#c87137" />
	<line id="3" x1="30.300000" y1="104.800000" x2="23.800000" y2="150.500000" stroke="#c87137" />
	<line id="4" x1="41.200000" y1="106.100000" x2="50.800000" y2="150.400000" stroke="#c87137" />
	<line id="9" x1="35.400000" y1="96.000000" x2="35.400000" y2="104.000000" stroke="black" />
	<rect x="8.140000" y="13.300000" width="21.986667" height="45.733333" stroke="red" fill="white" fill-opacity="3%" />
	<rect x="30.126667" y="13.300000" width="21.986667" height="45.733333" stroke="red" fill="white" fill-opacity="3%" />
	<circle cx="32.700000" cy="42.000000" r="1.750000" stroke="red" fill="white" fill-opacity="25%" />
	<circle cx="35.300000" cy="28.300000" r="1.750000" stroke="red" fill="white" fill-opacity="25%" />
	<rect id="111" x="98.660000" y="179.200000" width="5.200000" height="10.600000" stroke="#800080" fill="#FF00FF" fill-opacity="40%" />
	<circle id="112" cx="101.260000" cy="165.500000" r="15.000000" stroke="#800080" fill="#FF00FF" fill-opacity="40%" />
	<rect x="8.140000" y="59.033333" width="21.986667" height="45.733333" stroke="red" fill="white" fill-opacity="3%" />
	<circle cx="8.140000" cy="41.400000" r="1.750000" stroke="red" fill="white" fill-opacity="25%" />
	<rect id="111" x="98.660000" y="179.200000" width="5.200000" height="10.600000" stroke="#800080" fill="#FF00FF" fill-opacity="40%" />
	<circle id="112" cx="101.260000" cy="165.500000" r="15.000000" stroke="#800080" fill="#FF00FF" fill-opacity="40%" />
	<line id="113" x1="74.100000" y1="178.600000" x2="89.460000" y2="197.800000" stroke="#800080" fill-opacity="50%" />
	<rect x="30.126667" y="59.033333" width="21.986667" height="45.733333" stroke="red" fill="white" fill-opacity="3%" />
	<circle cx="32.700000" cy="42.000000" r="1.750000" stroke="red" fill="white" fill-opacity="25%" />
	<circle cx="24.800000" cy="50.000000" r="1.750000" stroke="red" fill="white" fill-opacity="25%" />
	<circle cx="24.800000" cy="87.200000" r="1.750000" stroke="red" fill="white" fill-opacity="25%" />
	<circle cx="24.800000" cy="61.100000" r="1.750000" stroke="red" fill="white" fill-opacity="25%" />
	<circle cx="24.800000" cy="68.000000" r="1.750000" stroke="red" fill="white" fill-opacity="25%" />
	<circle cx="35.300000" cy="28.300000" r="1.750000" stroke="red" fill="white" fill-opacity="25%" />
	<circle cx="8.140000" cy="41.400000" r="1.750000" stroke="red" fill="white" fill-opacity="25%" />
	<circle cx="35.400000" cy="96.000000" r="1.750000" stroke="red" fill="white" fill-opacity="25%" />
	<rect id="111" x="98.660000" y="179.200000" width="5.200000" height="10.600000" stroke="#800080" fill="#FF00FF" fill-opacity="40%" />
	<rect id="112" x="98.660000" y="179.200000" width="5.200000" height="10.600000" stroke="#800080" fill="#FF00FF" fill-opacity="40%" />
	<rect id="113" x="90.760000" y="187.200000" width="21.200000" height="37.200000" stroke="#800080" fill="#FF00FF" fill-opacity="40%" />
	<rect id="114" x="90.760000" y="224.400000" width="21.200000" height="17.200000" stroke="#800080" fill="#FF00FF" fill-opacity="40%" />
	<rect id="115" x="90.760000" y="198.300000" width="21.200000" height="4.500000" stroke="#800080" fill="#FF00FF" fill-opacity="40%" />
	<rect id="116" x="90.760000" y="205.200000" width="21.200000" height="4.500000" stroke="#800080" fill="#FF00FF" fill-opacity="40%" />
	<circle id="117" cx="101.260000" cy="165.500000" r="15.000000" stroke="#800080" fill="#FF00FF" fill-opacity="40%" />
	<circle id="118" cx="101.260000" cy="165.500000" r="15.000000" stroke="#800080" fill="#FF00FF" fill-opacity="40%" />
	<line id="119" x1="74.100000" y1="178.600000" x2="89.460000" y2="197.800000" stroke="#800080" fill-opacity="50%" />
	<line id="120" x1="74.100000" y1="178.600000" x2="89.460000" y2="197.800000" stroke="#800080" fill-opacity="50%" />
	<line id="121" x1="101.360000" y1="233.200000" x2="101.360000" y2="241.200000" stroke="#800080" fill-opacity="50%" />
	<rect id="5" x="32.700000" y="42.000000" width="5.200000" height="10.600000" stroke="#c87137" fill="#ffb380" fill-opacity="50%" />
	<rect id="5" x="32.700000" y="42.000000" width="5.200000" height="10.600000" stroke="#c87137" fill="#ffb380" fill-opacity="50%" />
	<rect id="7" x="24.800000" y="50.000000" width="21.200000" height="37.200000" stroke="black" fill="white" fill-opacity="50%" />
	<rect id="8" x="24.800000" y="87.200000" width="21.200000" height="17.200000" stroke="black" fill="white" fill-opacity="50%" />
	<rect id="10" x="24.800000" y="61.100000" width="21.200000" height="4.500000" stroke="red" fill="red" fill-opacity="50%" />
	<rect id="11" x="24.800000" y="68.000000" width="21.200000" height="4.500000" stroke="black" fill="black" fill-opacity="50%" />
	<circle id="6" cx="35.300000" cy="28.300000" r="15.000000" stroke="#c87137" fill="#ffb380" fill-opacity="50%" />
	<circle id="6" cx="35.300000" cy="28.300000" r="15.000000" stroke="#c87137" fill="#ffb380" fill-opacity="50%" />
</svg>