<svg xmlns="http://www.w3.org/2000/svg">
	<circle cx="115.000000" cy="60.000000" r="1.000000" stroke="red" fill="black" fill-opacity="75%" />
	<circle cx="98.890873" cy="98.890873" r="1.000000" stroke="red" fill="black" fill-opacity="75%" />
	<circle cx="60.000000" cy="115.000000" r="1.000000" stroke="red" fill="black" fill-opacity="75%" />
	<circle cx="21.109127" cy="98.890873" r="1.000000" stroke="red" fill="black" fill-opacity="75%" />
	<circle cx="5.000000" cy="60.000000" r="1.000000" stroke="red" fill="black" fill-opacity="75%" />
	<circle cx="21.109127" cy="21.109127" r="1.000000" stroke="red" fill="black" fill-opacity="75%" />
	<circle cx="60.000000" cy="5.000000" r="1.000000" stroke="red" fill="black" fill-opacity="75%" />
	<circle cx="98.890873" cy="21.109127" r="1.000000" stroke="red" fill="black" fill-opacity="75%" />
	<line id="27" x1="115.000000" y1="60.000000" x2="98.890873" y2="98.890873" stroke="#002255" />
	<line id="28" x1="98.890873" y1="98.890873" x2="60.000000" y2="115.000000" stroke="#002255" />
	<line id="29" x1="60.000000" y1="115.000000" x2="21.109127" y2="98.890873" stroke="#002255" />
	<line id="30" x1="21.109127" y1="98.890873" x2="5.000000" y2="60.000000" stroke="#002255" />
	<line id="31" x1="5.000000" y1="60.000000" x2="21.109127" y2="21.109127" stroke="#002255" />
	<line id="32" x1="21.109127" y1="21.109127" x2="60.000000" y2="5.000000" stroke="#002255" />
	<line id="33" x1="60.000000" y1="5.000000" x2="98.890873" y2="21.109127" stroke="#002255" />
	<line id="34" x1="98.890873" y1="21.109127" x2="115.000000" y2="60.000000" stroke="#002255" />
	<line id="34" x1="5.000000" y1="13.000000" x2="115.000000" y2="13.000000" stroke="#FFCCAA" stroke-width="1.500000" />
	<line id="35" x1="5.000000" y1="21.000000" x2="115.000000" y2="21.000000" stroke="#FFCCAA" stroke-width="1.500000" />
	<line id="36" x1="5.000000" y1="29.000000" x2="115.000000" y2="29.000000" stroke="#FFCCAA" stroke-width="1.500000" />
	<line id="37" x1="5.000000" y1="37.000000" x2="115.000000" y2="37.000000" stroke="#FFCCAA" stroke-width="1.500000" />
	<line id="38" x1="5.000000" y1="45.000000" x2="115.000000" y2="45.000000" stroke="#FFCCAA" stroke-width="1.500000" />
	<line id="39" x1="5.000000" y1="53.000000" x2="115.000000" y2="53.000000" stroke="#FFCCAA" stroke-width="1.500000" />
	<line id="40" x1="5.000000" y1="61.000000" x2="115.000000" y2="61.000000" stroke="#FFCCAA" stroke-width="1.500000" />
	<line id="41" x1="5.000000" y1="69.000000" x2="115.000000" y2="69.000000" stroke="#FFCCAA" stroke-width="1.500000" />
	<line id="42" x1="5.000000" y1="77.000000" x2="115.000000" y2="77.000000" stroke="#FFCCAA" stroke-width="1.500000" />
	<line id="43" x1="5.000000" y1="85.000000" x2="115.000000" y2="85.000000" stroke="#FFCCAA" stroke-width="1.500000" />
	<line id="44" x1="5.000000" y1="93.000000" x2="115.000000" y2="93.000000" stroke="#FFCCAA" stroke-width="1.500000" />
	<line id="45" x1="5.000000" y1="101.000000" x2="115.000000" y2="101.000000" stroke="#FFCCAA" stroke-width="1.500000" />
	<line id="46" x1="5.000000" y1="109.000000" x2="115.000000" y2="109.000000" stroke="#FFCCAA" stroke-width="1.500000" />
	<text id="10" x="115.000000" y="60.000000" text-anchor="start" stroke="#000000" fill="#B30000" fill-opacity="50%" > Que ostentas dignamente</text>
	<text id="11" x="98.890873" y="98.890873" text-anchor="start" stroke="#CC2200" fill="#CC2200" fill-opacity="50%" > Que te amam eternamente</text>
	<text id="12" x="60.000000" y="115.000000" text-anchor="start" stroke="#B30000" fill="#B30000" fill-opacity="50%" > Salve o tricolor paulista</text>
	<text id="13" x="21.109127" y="98.890873" text-anchor="start" stroke="#FFFFFF" fill="#B30000" fill-opacity="50%" > Clube bem amado</text>
	<text id="14" x="5.000000" y="60.000000" text-anchor="start" stroke="#CC2200" fill="#FFFFFF" fill-opacity="50%" > Sao teus guias brasileiros</text>
	<text id="15" x="21.109127" y="21.109127" text-anchor="start" stroke="#000000" fill="#000000" fill-opacity="50%" > Tu es forte, tu es grande</text>
	<text id="16" x="60.000000" y="5.000000" text-anchor="start" stroke="#CC2200" fill="#CC2200" fill-opacity="50%" > De Sao Paulo tens o nome</text>
	<text id="17" x="98.890873" y="21.109127" text-anchor="start" stroke="#CC2200" fill="#CC2200" fill-opacity="50%" > Que ostentas dignamente</text>
</svg>