<svg xmlns="http://www.w3.org/2000/svg">
	<rect id="1" x="30.800000" y="41.100000" width="14.000000" height="29.000000" stroke="#800080" fill="#ff00ff" fill-opacity="50%" />
	<rect id="17" x="80.800000" y="51.100000" width="14.000000" height="29.000000" stroke="#800080" fill="#ff00ff" fill-opacity="50%" />
	<circle id="5" cx="54.000000" cy="25.000000" r="5.000000" stroke="#FF00FF" fill="#FF0000" fill-opacity="50%" />
	<circle id="6" cx="37.000000" cy="17.000000" r="5.000000" stroke="#FF00FF" fill="#FF0000" fill-opacity="50%" />
	<circle id="7" cx="17.000000" cy="22.000000" r="5.000000" stroke="#FF00FF" fill="#FF0000" fill-opacity="50%" />
	<circle id="21" cx="104.000000" cy="35.000000" r="5.000000" stroke="#FF00FF" fill="#FF0000" fill-opacity="50%" />
	<circle id="22" cx="87.000000" cy="27.000000" r="5.000000" stroke="#FF00FF" fill="#FF0000" fill-opacity="50%" />
	<circle id="23" cx="67.000000" cy="32.000000" r="5.000000" stroke="#FF00FF" fill="#FF0000" fill-opacity="50%" />
	<line id="2" x1="41.100000" y1="42.400000" x2="53.900000" y2="25.100000" stroke="#008000" fill-opacity="50%" />
	<line id="3" x1="37.100000" y1="40.600000" x2="37.600000" y2="22.300000" stroke="#008000" fill-opacity="50%" />
	<line id="4" x1="32.100000" y1="40.800000" x2="20.700000" y2="26.800000" stroke="#008000" fill-opacity="50%" />
	<line id="18" x1="91.100000" y1="52.400000" x2="103.900000" y2="35.100000" stroke="#008000" fill-opacity="50%" />
	<line id="19" x1="87.100000" y1="50.600000" x2="87.600000" y2="32.300000" stroke="#008000" fill-opacity="50%" />
	<line id="20" x1="82.100000" y1="50.800000" x2="70.700000" y2="36.800000" stroke="#008000" fill-opacity="50%" />
	<rect x="12.000000" y="12.000000" width="48.500000" height="34.050000" stroke="red" fill="white" fill-opacity="3%" />
	<circle cx="54.000000" cy="25.000000" r="1.750000" stroke="red" fill="white" fill-opacity="25%" />
	<circle cx="37.000000" cy="17.000000" r="1.750000" stroke="red" fill="white" fill-opacity="25%" />
	<circle cx="17.000000" cy="22.000000" r="1.750000" stroke="red" fill="white" fill-opacity="25%" />
	<circle cx="41.100000" cy="42.400000" r="1.750000" stroke="red" fill="white" fill-opacity="25%" />
	<circle cx="37.100000" cy="40.600000" r="1.750000" stroke="red" fill="white" fill-opacity="25%" />
	<circle cx="32.100000" cy="40.800000" r="1.750000" stroke="red" fill="white" fill-opacity="25%" />
	<circle id="17" cx="151.000000" cy="93.100000" r="5.000000" stroke="#800080" fill="#FF00FF" fill-opacity="40%" />
	<circle id="18" cx="134.000000" cy="85.100000" r="5.000000" stroke="#800080" fill="#FF00FF" fill-opacity="40%" />
	<circle id="19" cx="114.000000" cy="90.100000" r="5.000000" stroke="#800080" fill="#FF00FF" fill-opacity="40%" />
	<line id="20" x1="138.100000" y1="110.500000" x2="150.900000" y2="93.200000" stroke="#800080" fill-opacity="50%" />
	<line id="21" x1="134.100000" y1="108.700000" x2="134.600000" y2="90.400000" stroke="#800080" fill-opacity="50%" />
	<line id="22" x1="129.100000" y1="108.900000" x2="117.700000" y2="94.900000" stroke="#800080" fill-opacity="50%" />
</svg>