<svg xmlns="http://www.w3.org/2000/svg">
	<text x="55.000000" y="47.500000" stroke="red" font-size="20" fill="red" >*</text>
	<text x="55.000000" y="47.500000" stroke="red" font-size="20" fill="red" >*</text>
	<text x="55.000000" y="47.500000" stroke="red" font-size="20" fill="red" >*</text>
	<text x="55.000000" y="47.500000" stroke="red" font-size="20" fill="red" >*</text>
	<text x="55.000000" y="47.500000" stroke="red" font-size="20" fill="red" >*</text>
	<text x="180.000000" y="47.500000" stroke="grey" font-size="14" fill="grey">*</text>
	<text x="305.000000" y="47.500000" stroke="grey" font-size="14" fill="grey">*</text>
	<text x="430.000000" y="47.500000" stroke="grey" font-size="14" fill="grey">*</text>
	<text x="55.000000" y="157.500000" stroke="red" font-size="20" fill="red" >*</text>
	<text x="55.000000" y="157.500000" stroke="red" font-size="20" fill="red" >*</text>
	<text x="55.000000" y="157.500000" stroke="red" font-size="20" fill="red" >*</text>
	<text x="55.000000" y="157.500000" stroke="red" font-size="20" fill="red" >*</text>
	<text x="55.000000" y="157.500000" stroke="red" font-size="20" fill="red" >*</text>
	<text x="180.000000" y="157.500000" stroke="grey" font-size="14" fill="grey">*</text>
	<text x="305.000000" y="157.500000" stroke="red" font-size="20" fill="red" >*</text>
	<text x="305.000000" y="157.500000" stroke="red" font-size="20" fill="red" >*</text>
	<text x="305.000000" y="157.500000" stroke="red" font-size="20" fill="red" >*</text>
	<text x="305.000000" y="157.500000" stroke="red" font-size="20" fill="red" >*</text>
	<text x="305.000000" y="157.500000" stroke="red" font-size="20" fill="red" >*</text>
	<text x="430.000000" y="157.500000" stroke="grey" font-size="14" fill="grey">*</text>
	<rect id="6" x="180.287078" y="52.468850" width="10.000000" height="5.000000" stroke="gray" fill="#FFCC00" fill-opacity="25%" />
	<rect id="30" x="180.258985" y="160.197869" width="15.000000" height="10.000000" stroke="gray" fill="#8800AA" fill-opacity="25%" />
	<rect id="7" x="181.588106" y="48.215075" width="10.000000" height="5.000000" stroke="gray" fill="#FFCC00" fill-opacity="25%" />
	<rect id="10" x="180.915348" y="48.846118" width="10.000000" height="5.000000" stroke="gray" fill="#FFCC00" fill-opacity="25%" />
	<rect id="11" x="307.285023" y="47.684018" width="5.000000" height="15.000000" stroke="gray" fill="#338000" fill-opacity="25%" />
	<rect id="12" x="309.912969" y="48.109817" width="5.000000" height="15.000000" stroke="gray" fill="#338000" fill-opacity="25%" />
	<rect id="8" x="182.095845" y="51.052973" width="10.000000" height="5.000000" stroke="gray" fill="#FFCC00" fill-opacity="25%" />
	<rect id="9" x="181.828187" y="51.586892" width="10.000000" height="5.000000" stroke="gray" fill="#FFCC00" fill-opacity="25%" />
	<rect id="13" x="305.049475" y="50.175268" width="5.000000" height="15.000000" stroke="gray" fill="#338000" fill-opacity="25%" />
	<rect id="14" x="307.135729" y="50.525701" width="5.000000" height="15.000000" stroke="gray" fill="#338000" fill-opacity="25%" />
	<rect id="17" x="432.018480" y="50.184502" width="15.000000" height="15.000000" stroke="gray" fill="#800080" fill-opacity="25%" />
	<rect id="18" x="431.037838" y="50.670736" width="15.000000" height="15.000000" stroke="gray" fill="#800080" fill-opacity="25%" />
	<rect id="16" x="434.837671" y="52.416300" width="15.000000" height="15.000000" stroke="gray" fill="#800080" fill-opacity="25%" />
	<rect id="19" x="432.180716" y="51.287349" width="15.000000" height="15.000000" stroke="gray" fill="#800080" fill-opacity="25%" />
	<rect id="20" x="431.895532" y="51.514471" width="15.000000" height="15.000000" stroke="gray" fill="#800080" fill-opacity="25%" />
	<rect id="15" x="308.977186" y="52.494555" width="5.000000" height="15.000000" stroke="gray" fill="#338000" fill-opacity="25%" />
	<rect id="26" x="180.816863" y="160.606984" width="15.000000" height="10.000000" stroke="gray" fill="#8800AA" fill-opacity="25%" />
	<rect id="28" x="183.862277" y="160.198926" width="15.000000" height="10.000000" stroke="gray" fill="#8800AA" fill-opacity="25%" />
	<rect id="29" x="182.381406" y="160.179445" width="15.000000" height="10.000000" stroke="gray" fill="#8800AA" fill-opacity="25%" />
	<rect id="27" x="182.082997" y="162.254439" width="15.000000" height="10.000000" stroke="gray" fill="#8800AA" fill-opacity="25%" />
</svg>