<svg xmlns="http://www.w3.org/2000/svg">
	<text id="1" x="55.000000" y="47.500000" text-anchor="middle" stroke="black" fill="black" fill-opacity="60%" > {+]</text>
	<circle id="21" cx="54.240766" cy="156.241064" r="2.500000" stroke="#FF6600" fill="brown" fill-opacity="25%" />
	<circle id="25" cx="54.206116" cy="157.440962" r="2.500000" stroke="#FF6600" fill="brown" fill-opacity="25%" />
	<text id="2" x="55.000000" y="47.500000" text-anchor="middle" stroke="black" fill="black" fill-opacity="60%" > {+]</text>
	<text id="3" x="55.000000" y="47.500000" text-anchor="middle" stroke="black" fill="black" fill-opacity="60%" > {+]</text>
	<text id="4" x="55.000000" y="47.500000" text-anchor="middle" stroke="black" fill="black" fill-opacity="60%" > {+]</text>
	<text id="5" x="55.000000" y="47.500000" text-anchor="middle" stroke="black" fill="black" fill-opacity="60%" > {+]</text>
	<rect id="6" x="180.287078" y="52.468850" width="10.000000" height="5.000000" stroke="gray" fill="#FFCC00" fill-opacity="25%" />
	<circle id="22" cx="55.288239" cy="157.204721" r="2.500000" stroke="#FF6600" fill="brown" fill-opacity="25%" />
	<circle id="23" cx="55.369319" cy="157.245523" r="2.500000" stroke="#FF6600" fill="brown" fill-opacity="25%" />
	<circle id="24" cx="55.739815" cy="157.527331" r="2.500000" stroke="#FF6600" fill="brown" fill-opacity="25%" />
	<rect id="30" x="180.258985" y="160.197869" width="15.000000" height="10.000000" stroke="gray" fill="#8800AA" fill-opacity="25%" />
	<rect id="7" x="181.588106" y="48.215075" width="10.000000" height="5.000000" stroke="gray" fill="#FFCC00" fill-opacity="25%" />
	<rect id="10" x="180.915348" y="48.846118" width="10.000000" height="5.000000" stroke="gray" fill="#FFCC00" fill-opacity="25%" />
	<rect id="11" x="307.285023" y="47.684018" width="5.000000" height="15.000000" stroke="gray" fill="#338000" fill-opacity="25%" />
	<rect id="12" x="309.912969" y="48.109817" width="5.000000" height="15.000000" stroke="gray" fill="#338000" fill-opacity="25%" />
	<rect id="8" x="182.095845" y="51.052973" width="10.000000" height="5.000000" stroke="gray" fill="#FFCC00" fill-opacity="25%" />
	<rect id="9" x="181.828187" y="51.586892" width="10.000000" height="5.000000" stroke="gray" fill="#FFCC00" fill-opacity="25%" />
	<rect id="13" x="305.049475" y="50.175268" width="5.000000" height="15.000000" stroke="gray" fill="#338000" fill-opacity="25%" />
	<rect id="14" x="307.135729" y="50.525701" width="5.000000" height="15.000000" stroke="gray" fill="#338000" fill-opacity="25%" />
	<rect id="17" x="432.018480" y="50.184502" width="15.000000" height="15.000000" stroke="gray" fill="#800080" fill-opacity="25%" />
	<rect id="18" x="431.037838" y="50.670736" width="15.000000" height="15.000000" stroke="gray" fill="#800080" fill-opacity="25%" />
	<rect id="16" x="434.837671" y="52.416300" width="15.000000" height="15.000000" stroke="gray" fill="#800080" fill-opacity="25%" />
	<rect id="19" x="432.180716" y="51.287349" width="15.000000" height="15.000000" stroke="gray" fill="#800080" fill-opacity="25%" />
	<rect id="20" x="431.895532" y="51.514471" width="15.000000" height="15.000000" stroke="gray" fill="#800080" fill-opacity="25%" />
	<rect id="15" x="308.977186" y="52.494555" width="5.000000" height="15.000000" stroke="gray" fill="#338000" fill-opacity="25%" />
	<rect id="26" x="180.816863" y="160.606984" width="15.000000" height="10.000000" stroke="gray" fill="#8800AA" fill-opacity="25%" />
	<rect id="28" x="183.862277" y="160.198926" width="15.000000" height="10.000000" stroke="gray" fill="#8800AA" fill-opacity="25%" />
	<rect id="29" x="182.381406" y="160.179445" width="15.000000" height="10.000000" stroke="gray" fill="#8800AA" fill-opacity="25%" />
	<line id="31" x1="305.000000" y1="157.500000" x2="316.265863" y2="185.304322" stroke="#000080" />
	<line id="32" x1="305.000000" y1="157.500000" x2="329.314085" y2="175.073425" stroke="#000080" />
	<line id="33" x1="305.000000" y1="157.500000" x2="310.735007" y2="186.946726" stroke="#000080" />
	<line id="34" x1="305.000000" y1="157.500000" x2="324.215278" y2="180.538514" stroke="#000080" />
	<line id="35" x1="305.000000" y1="157.500000" x2="313.130120" y2="186.377347" stroke="#000080" />
	<rect id="27" x="182.082997" y="162.254439" width="15.000000" height="10.000000" stroke="gray" fill="#8800AA" fill-opacity="25%" />
</svg>