<svg xmlns="http://www.w3.org/2000/svg">
<rect x="9.968653" y="7.256606" width="309.281019" height="303.437008" fill="none" stroke="red" />
	<circle cx="9.968653" cy="57.567031" r="1.750000" stroke="red" fill="red" fill-opacity="25%" />
	<circle cx="18.280065" cy="64.625268" r="1.750000" stroke="red" fill="red" fill-opacity="25%" />
	<circle cx="33.439643" cy="293.028149" r="1.750000" stroke="red" fill="red" fill-opacity="25%" />
	<circle cx="21.709892" cy="7.256606" r="1.750000" stroke="red" fill="red" fill-opacity="25%" />
	<circle cx="57.889940" cy="293.525380" r="1.750000" stroke="red" fill="red" fill-opacity="25%" />
	<circle cx="51.694187" cy="132.463649" r="1.750000" stroke="red" fill="red" fill-opacity="25%" />
	<circle cx="79.674714" cy="110.178392" r="1.750000" stroke="red" fill="red" fill-opacity="25%" />
	<circle cx="93.806269" cy="16.731903" r="1.750000" stroke="red" fill="red" fill-opacity="25%" />
	<circle cx="113.272994" cy="94.771572" r="1.750000" stroke="red" fill="red" fill-opacity="25%" />
	<circle cx="116.588578" cy="99.082661" r="1.750000" stroke="red" fill="red" fill-opacity="25%" />
	<circle cx="133.963056" cy="33.367326" r="1.750000" stroke="red" fill="red" fill-opacity="25%" />
	<circle cx="115.712683" cy="158.138480" r="1.750000" stroke="red" fill="red" fill-opacity="25%" />
	<circle cx="83.966829" cy="146.861956" r="1.750000" stroke="red" fill="red" fill-opacity="25%" />
	<circle cx="71.310060" cy="258.139601" r="1.750000" stroke="red" fill="red" fill-opacity="25%" />
	<circle cx="76.133523" cy="295.276955" r="1.750000" stroke="red" fill="red" fill-opacity="25%" />
	<circle cx="76.238867" cy="287.558066" r="1.750000" stroke="red" fill="red" fill-opacity="25%" />
	<circle cx="100.330018" cy="260.144337" r="1.750000" stroke="red" fill="red" fill-opacity="25%" />
	<circle cx="102.565548" cy="281.909874" r="1.750000" stroke="red" fill="red" fill-opacity="25%" />
	<circle cx="131.773979" cy="175.669548" r="1.750000" stroke="red" fill="red" fill-opacity="25%" />
	<circle cx="60.993492" cy="162.099775" r="1.750000" stroke="red" fill="red" fill-opacity="25%" />
	<circle cx="141.068899" cy="161.372150" r="1.750000" stroke="red" fill="red" fill-opacity="25%" />
	<circle cx="140.030473" cy="41.225701" r="1.750000" stroke="red" fill="red" fill-opacity="25%" />
	<circle cx="192.959991" cy="66.967924" r="1.750000" stroke="red" fill="red" fill-opacity="25%" />
	<circle cx="170.627915" cy="43.418108" r="1.750000" stroke="red" fill="red" fill-opacity="25%" />
	<circle cx="160.625872" cy="69.607739" r="1.750000" stroke="red" fill="red" fill-opacity="25%" />
	<circle cx="254.669618" cy="16.875625" r="1.750000" stroke="red" fill="red" fill-opacity="25%" />
	<circle cx="227.400594" cy="152.577524" r="1.750000" stroke="red" fill="red" fill-opacity="25%" />
	<circle cx="290.441408" cy="116.484367" r="1.750000" stroke="red" fill="red" fill-opacity="25%" />
	<circle cx="267.677447" cy="77.877962" r="1.750000" stroke="red" fill="red" fill-opacity="25%" />
	<circle cx="296.067976" cy="29.902708" r="1.750000" stroke="red" fill="red" fill-opacity="25%" />
	<circle cx="241.963210" cy="141.934185" r="1.750000" stroke="red" fill="red" fill-opacity="25%" />
	<circle cx="403.455133" cy="164.329772" r="1.750000" stroke="red" fill="red" fill-opacity="25%" />
	<circle cx="241.045018" cy="134.652382" r="1.750000" stroke="red" fill="red" fill-opacity="25%" />
	<circle cx="193.521974" cy="18.596473" r="1.750000" stroke="red" fill="red" fill-opacity="25%" />
	<circle cx="137.366666" cy="519.157048" r="1.750000" stroke="red" fill="red" fill-opacity="25%" />
	<circle cx="154.293318" cy="209.828765" r="1.750000" stroke="red" fill="red" fill-opacity="25%" />
	<circle cx="167.451141" cy="220.726899" r="1.750000" stroke="red" fill="red" fill-opacity="25%" />
	<circle cx="165.179069" cy="279.527760" r="1.750000" stroke="red" fill="red" fill-opacity="25%" />
	<circle cx="154.007714" cy="251.294424" r="1.750000" stroke="red" fill="red" fill-opacity="25%" />
	<circle cx="149.794125" cy="292.520780" r="1.750000" stroke="red" fill="red" fill-opacity="25%" />
	<circle cx="175.498847" cy="172.762769" r="1.750000" stroke="red" fill="red" fill-opacity="25%" />
	<circle cx="184.986802" cy="184.922451" r="1.750000" stroke="red" fill="red" fill-opacity="25%" />
	<circle cx="245.625744" cy="165.075037" r="1.750000" stroke="red" fill="red" fill-opacity="25%" />
	<circle cx="210.027969" cy="182.171146" r="1.750000" stroke="red" fill="red" fill-opacity="25%" />
	<circle cx="275.194326" cy="186.271129" r="1.750000" stroke="red" fill="red" fill-opacity="25%" />
	<circle cx="282.822890" cy="187.535551" r="1.750000" stroke="red" fill="red" fill-opacity="25%" />
	<circle cx="312.468613" cy="201.550571" r="1.750000" stroke="red" fill="red" fill-opacity="25%" />
	<circle cx="256.963321" cy="182.046016" r="1.750000" stroke="red" fill="red" fill-opacity="25%" />
	<circle cx="575.352175" cy="191.552076" r="1.750000" stroke="red" fill="red" fill-opacity="25%" />
	<circle cx="597.713618" cy="190.700944" r="1.750000" stroke="red" fill="red" fill-opacity="25%" />
	<circle cx="208.777933" cy="175.718749" r="1.750000" stroke="red" fill="red" fill-opacity="25%" />
	<circle cx="186.661826" cy="318.984266" r="1.750000" stroke="red" fill="red" fill-opacity="25%" />
	<circle cx="190.348891" cy="255.049080" r="1.750000" stroke="red" fill="red" fill-opacity="25%" />
	<circle cx="224.372015" cy="260.458394" r="1.750000" stroke="red" fill="red" fill-opacity="25%" />
	<circle cx="227.620243" cy="287.830753" r="1.750000" stroke="red" fill="red" fill-opacity="25%" />
	<circle cx="241.871260" cy="492.610260" r="1.750000" stroke="red" fill="red" fill-opacity="25%" />
	<circle cx="278.390573" cy="453.991803" r="1.750000" stroke="red" fill="red" fill-opacity="25%" />
	<circle cx="327.484196" cy="526.838100" r="1.750000" stroke="red" fill="red" fill-opacity="25%" />
	<circle cx="302.729479" cy="235.611707" r="1.750000" stroke="red" fill="red" fill-opacity="25%" />
	<circle cx="551.957904" cy="263.787638" r="1.750000" stroke="red" fill="red" fill-opacity="25%" />
	<circle cx="445.095312" cy="293.284171" r="1.750000" stroke="red" fill="red" fill-opacity="25%" />
	<circle cx="502.733364" cy="369.999564" r="1.750000" stroke="red" fill="red" fill-opacity="25%" />
	<circle cx="415.554356" cy="401.437791" r="1.750000" stroke="red" fill="red" fill-opacity="25%" />
	<circle cx="387.471066" cy="433.702655" r="1.750000" stroke="red" fill="red" fill-opacity="25%" />
	<circle cx="494.184111" cy="453.968585" r="1.750000" stroke="red" fill="red" fill-opacity="25%" />
	<circle cx="528.669459" cy="434.220566" r="1.750000" stroke="red" fill="red" fill-opacity="25%" />
	<circle cx="464.555263" cy="421.028269" r="1.750000" stroke="red" fill="red" fill-opacity="25%" />
	<circle cx="581.499321" cy="440.531500" r="1.750000" stroke="red" fill="red" fill-opacity="25%" />
	<circle cx="533.865343" cy="474.448298" r="1.750000" stroke="red" fill="red" fill-opacity="25%" />
	<circle cx="514.456071" cy="488.800690" r="1.750000" stroke="red" fill="red" fill-opacity="25%" />
	<circle cx="443.520319" cy="469.409191" r="1.750000" stroke="red" fill="red" fill-opacity="25%" />
	<circle cx="421.066183" cy="595.209309" r="1.750000" stroke="red" fill="red" fill-opacity="25%" />
	<circle cx="503.213046" cy="514.520932" r="1.750000" stroke="red" fill="red" fill-opacity="25%" />
	<circle cx="598.885748" cy="495.269411" r="1.750000" stroke="red" fill="red" fill-opacity="25%" />
	<circle cx="182.935030" cy="221.211915" r="1.750000" stroke="red" fill="red" fill-opacity="25%" />
	<circle cx="135.552574" cy="165.021298" r="1.750000" stroke="red" fill="red" fill-opacity="25%" />
	<circle cx="60.609493" cy="14.639953" r="1.750000" stroke="red" fill="red" fill-opacity="25%" />
<rect x="133.681060" y="128.631409" width="309.281019" height="303.437008" fill="none" stroke="red" />
	<circle cx="141.068899" cy="161.372150" r="1.750000" stroke="red" fill="red" fill-opacity="25%" />
	<circle cx="227.400594" cy="152.577524" r="1.750000" stroke="red" fill="red" fill-opacity="25%" />
	<circle cx="335.033697" cy="160.119573" r="1.750000" stroke="red" fill="red" fill-opacity="25%" />
	<circle cx="241.963210" cy="141.934185" r="1.750000" stroke="red" fill="red" fill-opacity="25%" />
	<circle cx="403.455133" cy="164.329772" r="1.750000" stroke="red" fill="red" fill-opacity="25%" />
	<circle cx="360.706370" cy="142.545734" r="1.750000" stroke="red" fill="red" fill-opacity="25%" />
	<circle cx="421.309538" cy="144.352676" r="1.750000" stroke="red" fill="red" fill-opacity="25%" />
	<circle cx="241.045018" cy="134.652382" r="1.750000" stroke="red" fill="red" fill-opacity="25%" />
	<circle cx="137.366666" cy="519.157048" r="1.750000" stroke="red" fill="red" fill-opacity="25%" />
	<circle cx="154.293318" cy="209.828765" r="1.750000" stroke="red" fill="red" fill-opacity="25%" />
	<circle cx="167.451141" cy="220.726899" r="1.750000" stroke="red" fill="red" fill-opacity="25%" />
	<circle cx="165.179069" cy="279.527760" r="1.750000" stroke="red" fill="red" fill-opacity="25%" />
	<circle cx="154.007714" cy="251.294424" r="1.750000" stroke="red" fill="red" fill-opacity="25%" />
	<circle cx="149.794125" cy="292.520780" r="1.750000" stroke="red" fill="red" fill-opacity="25%" />
	<circle cx="172.980248" cy="385.254653" r="1.750000" stroke="red" fill="red" fill-opacity="25%" />
	<circle cx="174.056970" cy="342.673044" r="1.750000" stroke="red" fill="red" fill-opacity="25%" />
	<circle cx="159.377778" cy="387.113110" r="1.750000" stroke="red" fill="red" fill-opacity="25%" />
	<circle cx="146.406393" cy="317.372171" r="1.750000" stroke="red" fill="red" fill-opacity="25%" />
	<circle cx="180.140182" cy="392.739402" r="1.750000" stroke="red" fill="red" fill-opacity="25%" />
	<circle cx="175.498847" cy="172.762769" r="1.750000" stroke="red" fill="red" fill-opacity="25%" />
	<circle cx="184.986802" cy="184.922451" r="1.750000" stroke="red" fill="red" fill-opacity="25%" />
	<circle cx="245.625744" cy="165.075037" r="1.750000" stroke="red" fill="red" fill-opacity="25%" />
	<circle cx="210.027969" cy="182.171146" r="1.750000" stroke="red" fill="red" fill-opacity="25%" />
	<circle cx="275.194326" cy="186.271129" r="1.750000" stroke="red" fill="red" fill-opacity="25%" />
	<circle cx="282.822890" cy="187.535551" r="1.750000" stroke="red" fill="red" fill-opacity="25%" />
	<circle cx="312.468613" cy="201.550571" r="1.750000" stroke="red" fill="red" fill-opacity="25%" />
	<circle cx="256.963321" cy="182.046016" r="1.750000" stroke="red" fill="red" fill-opacity="25%" />
	<circle cx="316.362032" cy="217.303446" r="1.750000" stroke="red" fill="red" fill-opacity="25%" />
	<circle cx="575.352175" cy="191.552076" r="1.750000" stroke="red" fill="red" fill-opacity="25%" />
	<circle cx="597.713618" cy="190.700944" r="1.750000" stroke="red" fill="red" fill-opacity="25%" />
	<circle cx="432.804361" cy="186.923976" r="1.750000" stroke="red" fill="red" fill-opacity="25%" />
	<circle cx="340.455266" cy="205.503526" r="1.750000" stroke="red" fill="red" fill-opacity="25%" />
	<circle cx="359.680443" cy="204.804605" r="1.750000" stroke="red" fill="red" fill-opacity="25%" />
	<circle cx="397.575739" cy="216.053825" r="1.750000" stroke="red" fill="red" fill-opacity="25%" />
	<circle cx="421.774293" cy="213.550081" r="1.750000" stroke="red" fill="red" fill-opacity="25%" />
	<circle cx="366.233493" cy="200.474726" r="1.750000" stroke="red" fill="red" fill-opacity="25%" />
	<circle cx="333.387874" cy="195.701471" r="1.750000" stroke="red" fill="red" fill-opacity="25%" />
	<circle cx="208.777933" cy="175.718749" r="1.750000" stroke="red" fill="red" fill-opacity="25%" />
	<circle cx="186.661826" cy="318.984266" r="1.750000" stroke="red" fill="red" fill-opacity="25%" />
	<circle cx="202.547166" cy="331.666303" r="1.750000" stroke="red" fill="red" fill-opacity="25%" />
	<circle cx="190.348891" cy="255.049080" r="1.750000" stroke="red" fill="red" fill-opacity="25%" />
	<circle cx="183.587471" cy="340.209934" r="1.750000" stroke="red" fill="red" fill-opacity="25%" />
	<circle cx="211.319790" cy="402.599457" r="1.750000" stroke="red" fill="red" fill-opacity="25%" />
	<circle cx="224.372015" cy="260.458394" r="1.750000" stroke="red" fill="red" fill-opacity="25%" />
	<circle cx="212.213522" cy="308.385074" r="1.750000" stroke="red" fill="red" fill-opacity="25%" />
	<circle cx="227.620243" cy="287.830753" r="1.750000" stroke="red" fill="red" fill-opacity="25%" />
	<circle cx="241.871260" cy="492.610260" r="1.750000" stroke="red" fill="red" fill-opacity="25%" />
	<circle cx="227.600325" cy="363.527152" r="1.750000" stroke="red" fill="red" fill-opacity="25%" />
	<circle cx="264.631816" cy="332.574535" r="1.750000" stroke="red" fill="red" fill-opacity="25%" />
	<circle cx="278.390573" cy="453.991803" r="1.750000" stroke="red" fill="red" fill-opacity="25%" />
	<circle cx="296.412220" cy="386.669388" r="1.750000" stroke="red" fill="red" fill-opacity="25%" />
	<circle cx="256.421765" cy="361.265259" r="1.750000" stroke="red" fill="red" fill-opacity="25%" />
	<circle cx="246.038747" cy="327.644862" r="1.750000" stroke="red" fill="red" fill-opacity="25%" />
	<circle cx="243.001730" cy="313.089746" r="1.750000" stroke="red" fill="red" fill-opacity="25%" />
	<circle cx="327.484196" cy="526.838100" r="1.750000" stroke="red" fill="red" fill-opacity="25%" />
	<circle cx="311.832520" cy="367.407155" r="1.750000" stroke="red" fill="red" fill-opacity="25%" />
	<circle cx="302.729479" cy="235.611707" r="1.750000" stroke="red" fill="red" fill-opacity="25%" />
	<circle cx="366.461326" cy="227.422056" r="1.750000" stroke="red" fill="red" fill-opacity="25%" />
	<circle cx="371.610747" cy="252.310561" r="1.750000" stroke="red" fill="red" fill-opacity="25%" />
	<circle cx="551.957904" cy="263.787638" r="1.750000" stroke="red" fill="red" fill-opacity="25%" />
	<circle cx="445.095312" cy="293.284171" r="1.750000" stroke="red" fill="red" fill-opacity="25%" />
	<circle cx="502.733364" cy="369.999564" r="1.750000" stroke="red" fill="red" fill-opacity="25%" />
	<circle cx="415.554356" cy="401.437791" r="1.750000" stroke="red" fill="red" fill-opacity="25%" />
	<circle cx="387.471066" cy="433.702655" r="1.750000" stroke="red" fill="red" fill-opacity="25%" />
	<circle cx="494.184111" cy="453.968585" r="1.750000" stroke="red" fill="red" fill-opacity="25%" />
	<circle cx="528.669459" cy="434.220566" r="1.750000" stroke="red" fill="red" fill-opacity="25%" />
	<circle cx="464.555263" cy="421.028269" r="1.750000" stroke="red" fill="red" fill-opacity="25%" />
	<circle cx="581.499321" cy="440.531500" r="1.750000" stroke="red" fill="red" fill-opacity="25%" />
	<circle cx="533.865343" cy="474.448298" r="1.750000" stroke="red" fill="red" fill-opacity="25%" />
	<circle cx="514.456071" cy="488.800690" r="1.750000" stroke="red" fill="red" fill-opacity="25%" />
	<circle cx="443.520319" cy="469.409191" r="1.750000" stroke="red" fill="red" fill-opacity="25%" />
	<circle cx="385.731386" cy="411.864542" r="1.750000" stroke="red" fill="red" fill-opacity="25%" />
	<circle cx="421.066183" cy="595.209309" r="1.750000" stroke="red" fill="red" fill-opacity="25%" />
	<circle cx="503.213046" cy="514.520932" r="1.750000" stroke="red" fill="red" fill-opacity="25%" />
	<circle cx="598.885748" cy="495.269411" r="1.750000" stroke="red" fill="red" fill-opacity="25%" />
	<circle cx="379.188231" cy="346.976924" r="1.750000" stroke="red" fill="red" fill-opacity="25%" />
	<circle cx="370.805698" cy="244.894507" r="1.750000" stroke="red" fill="red" fill-opacity="25%" />
	<circle cx="348.395063" cy="238.885918" r="1.750000" stroke="red" fill="red" fill-opacity="25%" />
	<circle cx="329.101672" cy="232.491211" r="1.750000" stroke="red" fill="red" fill-opacity="25%" />
	<circle cx="182.935030" cy="221.211915" r="1.750000" stroke="red" fill="red" fill-opacity="25%" />
	<circle cx="135.552574" cy="165.021298" r="1.750000" stroke="red" fill="red" fill-opacity="25%" />
<rect x="257.393468" y="250.006213" width="309.281019" height="303.437008" fill="none" stroke="red" />
	<circle cx="141.068899" cy="161.372150" r="1.750000" stroke="red" fill="red" fill-opacity="25%" />
	<circle cx="403.455133" cy="164.329772" r="1.750000" stroke="red" fill="red" fill-opacity="25%" />
	<circle cx="137.366666" cy="519.157048" r="1.750000" stroke="red" fill="red" fill-opacity="25%" />
	<circle cx="210.027969" cy="182.171146" r="1.750000" stroke="red" fill="red" fill-opacity="25%" />
	<circle cx="575.352175" cy="191.552076" r="1.750000" stroke="red" fill="red" fill-opacity="25%" />
	<circle cx="597.713618" cy="190.700944" r="1.750000" stroke="red" fill="red" fill-opacity="25%" />
	<circle cx="186.661826" cy="318.984266" r="1.750000" stroke="red" fill="red" fill-opacity="25%" />
	<circle cx="241.871260" cy="492.610260" r="1.750000" stroke="red" fill="red" fill-opacity="25%" />
	<circle cx="264.631816" cy="332.574535" r="1.750000" stroke="red" fill="red" fill-opacity="25%" />
	<circle cx="278.390573" cy="453.991803" r="1.750000" stroke="red" fill="red" fill-opacity="25%" />
	<circle cx="296.412220" cy="386.669388" r="1.750000" stroke="red" fill="red" fill-opacity="25%" />
	<circle cx="327.484196" cy="526.838100" r="1.750000" stroke="red" fill="red" fill-opacity="25%" />
	<circle cx="311.832520" cy="367.407155" r="1.750000" stroke="red" fill="red" fill-opacity="25%" />
	<circle cx="309.065161" cy="540.478608" r="1.750000" stroke="red" fill="red" fill-opacity="25%" />
	<circle cx="352.984754" cy="524.920093" r="1.750000" stroke="red" fill="red" fill-opacity="25%" />
	<circle cx="374.594250" cy="512.424334" r="1.750000" stroke="red" fill="red" fill-opacity="25%" />
	<circle cx="551.957904" cy="263.787638" r="1.750000" stroke="red" fill="red" fill-opacity="25%" />
	<circle cx="445.095312" cy="293.284171" r="1.750000" stroke="red" fill="red" fill-opacity="25%" />
	<circle cx="502.733364" cy="369.999564" r="1.750000" stroke="red" fill="red" fill-opacity="25%" />
	<circle cx="415.554356" cy="401.437791" r="1.750000" stroke="red" fill="red" fill-opacity="25%" />
	<circle cx="387.471066" cy="433.702655" r="1.750000" stroke="red" fill="red" fill-opacity="25%" />
	<circle cx="494.184111" cy="453.968585" r="1.750000" stroke="red" fill="red" fill-opacity="25%" />
	<circle cx="528.669459" cy="434.220566" r="1.750000" stroke="red" fill="red" fill-opacity="25%" />
	<circle cx="464.555263" cy="421.028269" r="1.750000" stroke="red" fill="red" fill-opacity="25%" />
	<circle cx="581.499321" cy="440.531500" r="1.750000" stroke="red" fill="red" fill-opacity="25%" />
	<circle cx="533.865343" cy="474.448298" r="1.750000" stroke="red" fill="red" fill-opacity="25%" />
	<circle cx="514.456071" cy="488.800690" r="1.750000" stroke="red" fill="red" fill-opacity="25%" />
	<circle cx="443.520319" cy="469.409191" r="1.750000" stroke="red" fill="red" fill-opacity="25%" />
	<circle cx="385.731386" cy="411.864542" r="1.750000" stroke="red" fill="red" fill-opacity="25%" />
	<circle cx="421.066183" cy="595.209309" r="1.750000" stroke="red" fill="red" fill-opacity="25%" />
	<circle cx="503.213046" cy="514.520932" r="1.750000" stroke="red" fill="red" fill-opacity="25%" />
	<circle cx="598.885748" cy="495.269411" r="1.750000" stroke="red" fill="red" fill-opacity="25%" />
	<circle cx="385.437116" cy="493.513779" r="1.750000" stroke="red" fill="red" fill-opacity="25%" />
	<circle cx="379.188231" cy="346.976924" r="1.750000" stroke="red" fill="red" fill-opacity="25%" />
<rect x="381.105875" y="371.381016" width="309.281019" height="303.437008" fill="none" stroke="red" />
	<circle cx="141.068899" cy="161.372150" r="1.750000" stroke="red" fill="red" fill-opacity="25%" />
	<circle cx="403.455133" cy="164.329772" r="1.750000" stroke="red" fill="red" fill-opacity="25%" />
	<circle cx="137.366666" cy="519.157048" r="1.750000" stroke="red" fill="red" fill-opacity="25%" />
	<circle cx="210.027969" cy="182.171146" r="1.750000" stroke="red" fill="red" fill-opacity="25%" />
	<circle cx="575.352175" cy="191.552076" r="1.750000" stroke="red" fill="red" fill-opacity="25%" />
	<circle cx="597.713618" cy="190.700944" r="1.750000" stroke="red" fill="red" fill-opacity="25%" />
	<circle cx="186.661826" cy="318.984266" r="1.750000" stroke="red" fill="red" fill-opacity="25%" />
	<circle cx="241.871260" cy="492.610260" r="1.750000" stroke="red" fill="red" fill-opacity="25%" />
	<circle cx="278.390573" cy="453.991803" r="1.750000" stroke="red" fill="red" fill-opacity="25%" />
	<circle cx="327.484196" cy="526.838100" r="1.750000" stroke="red" fill="red" fill-opacity="25%" />
	<circle cx="551.957904" cy="263.787638" r="1.750000" stroke="red" fill="red" fill-opacity="25%" />
	<circle cx="445.095312" cy="293.284171" r="1.750000" stroke="red" fill="red" fill-opacity="25%" />
	<circle cx="502.733364" cy="369.999564" r="1.750000" stroke="red" fill="red" fill-opacity="25%" />
	<circle cx="415.554356" cy="401.437791" r="1.750000" stroke="red" fill="red" fill-opacity="25%" />
	<circle cx="387.471066" cy="433.702655" r="1.750000" stroke="red" fill="red" fill-opacity="25%" />
	<circle cx="494.184111" cy="453.968585" r="1.750000" stroke="red" fill="red" fill-opacity="25%" />
	<circle cx="528.669459" cy="434.220566" r="1.750000" stroke="red" fill="red" fill-opacity="25%" />
	<circle cx="464.555263" cy="421.028269" r="1.750000" stroke="red" fill="red" fill-opacity="25%" />
	<circle cx="581.499321" cy="440.531500" r="1.750000" stroke="red" fill="red" fill-opacity="25%" />
	<circle cx="533.865343" cy="474.448298" r="1.750000" stroke="red" fill="red" fill-opacity="25%" />
	<circle cx="514.456071" cy="488.800690" r="1.750000" stroke="red" fill="red" fill-opacity="25%" />
	<circle cx="443.520319" cy="469.409191" r="1.750000" stroke="red" fill="red" fill-opacity="25%" />
	<circle cx="385.731386" cy="411.864542" r="1.750000" stroke="red" fill="red" fill-opacity="25%" />
	<circle cx="421.066183" cy="595.209309" r="1.750000" stroke="red" fill="red" fill-opacity="25%" />
	<circle cx="503.213046" cy="514.520932" r="1.750000" stroke="red" fill="red" fill-opacity="25%" />
	<circle cx="598.885748" cy="495.269411" r="1.750000" stroke="red" fill="red" fill-opacity="25%" />
	<circle cx="385.437116" cy="493.513779" r="1.750000" stroke="red" fill="red" fill-opacity="25%" />
<rect x="504.818283" y="492.755819" width="309.281019" height="303.437008" fill="none" stroke="red" />
	<circle cx="141.068899" cy="161.372150" r="1.750000" stroke="red" fill="red" fill-opacity="25%" />
	<circle cx="403.455133" cy="164.329772" r="1.750000" stroke="red" fill="red" fill-opacity="25%" />
	<circle cx="137.366666" cy="519.157048" r="1.750000" stroke="red" fill="red" fill-opacity="25%" />
	<circle cx="210.027969" cy="182.171146" r="1.750000" stroke="red" fill="red" fill-opacity="25%" />
	<circle cx="575.352175" cy="191.552076" r="1.750000" stroke="red" fill="red" fill-opacity="25%" />
	<circle cx="597.713618" cy="190.700944" r="1.750000" stroke="red" fill="red" fill-opacity="25%" />
	<circle cx="186.661826" cy="318.984266" r="1.750000" stroke="red" fill="red" fill-opacity="25%" />
	<circle cx="241.871260" cy="492.610260" r="1.750000" stroke="red" fill="red" fill-opacity="25%" />
	<circle cx="278.390573" cy="453.991803" r="1.750000" stroke="red" fill="red" fill-opacity="25%" />
	<circle cx="327.484196" cy="526.838100" r="1.750000" stroke="red" fill="red" fill-opacity="25%" />
	<circle cx="551.957904" cy="263.787638" r="1.750000" stroke="red" fill="red" fill-opacity="25%" />
	<circle cx="445.095312" cy="293.284171" r="1.750000" stroke="red" fill="red" fill-opacity="25%" />
	<circle cx="502.733364" cy="369.999564" r="1.750000" stroke="red" fill="red" fill-opacity="25%" />
	<circle cx="415.554356" cy="401.437791" r="1.750000" stroke="red" fill="red" fill-opacity="25%" />
	<circle cx="387.471066" cy="433.702655" r="1.750000" stroke="red" fill="red" fill-opacity="25%" />
	<circle cx="494.184111" cy="453.968585" r="1.750000" stroke="red" fill="red" fill-opacity="25%" />
	<circle cx="528.669459" cy="434.220566" r="1.750000" stroke="red" fill="red" fill-opacity="25%" />
	<circle cx="464.555263" cy="421.028269" r="1.750000" stroke="red" fill="red" fill-opacity="25%" />
	<circle cx="581.499321" cy="440.531500" r="1.750000" stroke="red" fill="red" fill-opacity="25%" />
	<circle cx="533.865343" cy="474.448298" r="1.750000" stroke="red" fill="red" fill-opacity="25%" />
	<circle cx="514.456071" cy="488.800690" r="1.750000" stroke="red" fill="red" fill-opacity="25%" />
	<circle cx="443.520319" cy="469.409191" r="1.750000" stroke="red" fill="red" fill-opacity="25%" />
	<circle cx="421.066183" cy="595.209309" r="1.750000" stroke="red" fill="red" fill-opacity="25%" />
	<circle cx="503.213046" cy="514.520932" r="1.750000" stroke="red" fill="red" fill-opacity="25%" />
	<circle cx="598.885748" cy="495.269411" r="1.750000" stroke="red" fill="red" fill-opacity="25%" />
	<rect id="52" x="11.884287" y="455.093448" width="5.000000" height="15.000000" stroke="gray" fill="#338000" fill-opacity="25%" />
	<text id="25" x="9.968653" y="57.567031" text-anchor="middle" stroke="black" fill="black" fill-opacity="60%" > {+]</text>
	<text id="21" x="18.280065" y="64.625268" text-anchor="middle" stroke="black" fill="black" fill-opacity="60%" > {+]</text>
	<rect id="84" x="49.509893" y="323.379650" width="15.000000" height="15.000000" stroke="gray" fill="#800080" fill-opacity="25%" />
	<rect id="71" x="44.259696" y="456.684763" width="5.000000" height="15.000000" stroke="gray" fill="#338000" fill-opacity="25%" />
	<rect id="62" x="44.214298" y="382.449570" width="5.000000" height="15.000000" stroke="gray" fill="#338000" fill-opacity="25%" />
	<rect id="54" x="33.439643" y="293.028149" width="5.000000" height="15.000000" stroke="gray" fill="#338000" fill-opacity="25%" />
	<text id="16" x="21.709892" y="7.256606" text-anchor="middle" stroke="black" fill="black" fill-opacity="60%" > {+]</text>
	<rect id="98" x="60.076082" y="324.418813" width="15.000000" height="15.000000" stroke="gray" fill="#800080" fill-opacity="25%" />
	<rect id="97" x="57.889940" y="293.525380" width="15.000000" height="15.000000" stroke="gray" fill="#800080" fill-opacity="25%" />
	<text id="8" x="51.694187" y="132.463649" text-anchor="middle" stroke="black" fill="black" fill-opacity="60%" > {+]</text>
	<text id="13" x="79.674714" y="110.178392" text-anchor="middle" stroke="black" fill="black" fill-opacity="60%" > {+]</text>
	<text id="24" x="93.806269" y="16.731903" text-anchor="middle" stroke="black" fill="black" fill-opacity="60%" > {+]</text>
	<text id="14" x="113.272994" y="94.771572" text-anchor="middle" stroke="black" fill="black" fill-opacity="60%" > {+]</text>
	<text id="11" x="116.588578" y="99.082661" text-anchor="middle" stroke="black" fill="black" fill-opacity="60%" > {+]</text>
	<text id="10" x="133.963056" y="33.367326" text-anchor="middle" stroke="black" fill="black" fill-opacity="60%" > {+]</text>
	<text id="22" x="115.712683" y="158.138480" text-anchor="middle" stroke="black" fill="black" fill-opacity="60%" > {+]</text>
	<text id="5" x="83.966829" y="146.861956" text-anchor="middle" stroke="black" fill="black" fill-opacity="60%" > {+]</text>
	<rect id="90" x="71.310060" y="258.139601" width="15.000000" height="15.000000" stroke="gray" fill="#800080" fill-opacity="25%" />
	<rect id="95" x="76.133523" y="295.276955" width="15.000000" height="15.000000" stroke="gray" fill="#800080" fill-opacity="25%" />
	<rect id="83" x="76.238867" y="287.558066" width="15.000000" height="15.000000" stroke="gray" fill="#800080" fill-opacity="25%" />
	<rect id="81" x="71.542837" y="443.192634" width="15.000000" height="15.000000" stroke="gray" fill="#800080" fill-opacity="25%" />
	<rect id="88" x="85.733160" y="310.488823" width="15.000000" height="15.000000" stroke="gray" fill="#800080" fill-opacity="25%" />
	<rect id="82" x="90.590394" y="302.327764" width="15.000000" height="15.000000" stroke="gray" fill="#800080" fill-opacity="25%" />
	<rect id="77" x="83.360916" y="387.155150" width="15.000000" height="15.000000" stroke="gray" fill="#800080" fill-opacity="25%" />
	<rect id="56" x="79.622155" y="375.421121" width="5.000000" height="15.000000" stroke="gray" fill="#338000" fill-opacity="25%" />
	<rect id="66" x="100.330018" y="260.144337" width="5.000000" height="15.000000" stroke="gray" fill="#338000" fill-opacity="25%" />
	<rect id="94" x="111.701185" y="300.218703" width="15.000000" height="15.000000" stroke="gray" fill="#800080" fill-opacity="25%" />
	<rect id="61" x="102.565548" y="281.909874" width="5.000000" height="15.000000" stroke="gray" fill="#338000" fill-opacity="25%" />
	<rect id="63" x="104.483033" y="359.380405" width="5.000000" height="15.000000" stroke="gray" fill="#338000" fill-opacity="25%" />
	<rect id="92" x="120.553902" y="359.213066" width="15.000000" height="15.000000" stroke="gray" fill="#800080" fill-opacity="25%" />
	<rect id="89" x="119.999705" y="365.213994" width="15.000000" height="15.000000" stroke="gray" fill="#800080" fill-opacity="25%" />
	<rect id="64" x="121.293092" y="428.887688" width="5.000000" height="15.000000" stroke="gray" fill="#338000" fill-opacity="25%" />
	<rect id="55" x="110.854659" y="454.080089" width="5.000000" height="15.000000" stroke="gray" fill="#338000" fill-opacity="25%" />
	<rect id="53" x="96.337784" y="300.610341" width="5.000000" height="15.000000" stroke="gray" fill="#338000" fill-opacity="25%" />
	<rect id="75" x="132.972178" y="384.022374" width="5.000000" height="15.000000" stroke="gray" fill="#338000" fill-opacity="25%" />
	<text id="7" x="131.773979" y="175.669548" text-anchor="middle" stroke="black" fill="black" fill-opacity="60%" > {+]</text>
	<text id="3" x="60.993492" y="162.099775" text-anchor="middle" stroke="black" fill="black" fill-opacity="60%" > {+]</text>
	<line id="150" x1="141.068899" y1="161.372150" x2="160.422145" y2="184.294887" stroke="#000080" />
	<text id="12" x="140.030473" y="41.225701" text-anchor="middle" stroke="black" fill="black" fill-opacity="60%" > {+]</text>
	<text id="17" x="192.959991" y="66.967924" text-anchor="middle" stroke="black" fill="black" fill-opacity="60%" > {+]</text>
	<text id="9" x="170.627915" y="43.418108" text-anchor="middle" stroke="black" fill="black" fill-opacity="60%" > {+]</text>
	<text id="6" x="160.625872" y="69.607739" text-anchor="middle" stroke="black" fill="black" fill-opacity="60%" > {+]</text>
	<rect id="26" x="254.669618" y="16.875625" width="10.000000" height="5.000000" stroke="gray" fill="#FFCC00" fill-opacity="25%" />
	<circle id="105" cx="227.400594" cy="152.577524" r="2.500000" stroke="#FF6600" fill="brown" fill-opacity="25%" />
	<rect id="42" x="290.441408" y="116.484367" width="10.000000" height="5.000000" stroke="gray" fill="#FFCC00" fill-opacity="25%" />
	<rect id="29" x="267.677447" y="77.877962" width="10.000000" height="5.000000" stroke="gray" fill="#FFCC00" fill-opacity="25%" />
	<rect id="38" x="413.958762" y="26.843108" width="10.000000" height="5.000000" stroke="gray" fill="#FFCC00" fill-opacity="25%" />
	<rect id="47" x="338.260982" y="105.085393" width="10.000000" height="5.000000" stroke="gray" fill="#FFCC00" fill-opacity="25%" />
	<rect id="36" x="381.631865" y="71.095941" width="10.000000" height="5.000000" stroke="gray" fill="#FFCC00" fill-opacity="25%" />
	<rect id="48" x="445.677633" y="51.286023" width="10.000000" height="5.000000" stroke="gray" fill="#FFCC00" fill-opacity="25%" />
	<rect id="41" x="446.120551" y="115.378597" width="10.000000" height="5.000000" stroke="gray" fill="#FFCC00" fill-opacity="25%" />
	<rect id="32" x="485.173636" y="134.470563" width="10.000000" height="5.000000" stroke="gray" fill="#FFCC00" fill-opacity="25%" />
	<rect id="31" x="433.276030" y="37.291867" width="10.000000" height="5.000000" stroke="gray" fill="#FFCC00" fill-opacity="25%" />
	<rect id="27" x="296.067976" y="29.902708" width="10.000000" height="5.000000" stroke="gray" fill="#FFCC00" fill-opacity="25%" />
	<circle id="122" cx="335.033697" cy="160.119573" r="2.500000" stroke="#FF6600" fill="brown" fill-opacity="25%" />
	<circle id="107" cx="241.963210" cy="141.934185" r="2.500000" stroke="#FF6600" fill="brown" fill-opacity="25%" />
	<line id="143" x1="403.455133" y1="164.329772" x2="414.964185" y2="192.034315" stroke="#000080" />
	<circle id="103" cx="360.706370" cy="142.545734" r="2.500000" stroke="#FF6600" fill="brown" fill-opacity="25%" />
	<rect id="50" x="421.309538" y="144.352676" width="10.000000" height="5.000000" stroke="gray" fill="#FFCC00" fill-opacity="25%" />
	<rect id="46" x="440.442859" y="143.966323" width="10.000000" height="5.000000" stroke="gray" fill="#FFCC00" fill-opacity="25%" />
	<text id="18" x="241.045018" y="134.652382" text-anchor="middle" stroke="black" fill="black" fill-opacity="60%" > {+]</text>
	<text id="4" x="193.521974" y="18.596473" text-anchor="middle" stroke="black" fill="black" fill-opacity="60%" > {+]</text>
	<line id="140" x1="137.366666" y1="519.157048" x2="167.082638" y2="523.275423" stroke="#000080" />
	<circle id="123" cx="154.293318" cy="209.828765" r="2.500000" stroke="#FF6600" fill="brown" fill-opacity="25%" />
	<circle id="113" cx="167.451141" cy="220.726899" r="2.500000" stroke="#FF6600" fill="brown" fill-opacity="25%" />
	<rect id="87" x="165.179069" y="279.527760" width="15.000000" height="15.000000" stroke="gray" fill="#800080" fill-opacity="25%" />
	<rect id="86" x="154.007714" y="251.294424" width="15.000000" height="15.000000" stroke="gray" fill="#800080" fill-opacity="25%" />
	<rect id="79" x="149.794125" y="292.520780" width="15.000000" height="15.000000" stroke="gray" fill="#800080" fill-opacity="25%" />
	<rect id="99" x="172.980248" y="385.254653" width="15.000000" height="15.000000" stroke="gray" fill="#800080" fill-opacity="25%" />
	<rect id="68" x="174.056970" y="342.673044" width="5.000000" height="15.000000" stroke="gray" fill="#338000" fill-opacity="25%" />
	<circle id="121" cx="166.947653" cy="449.001750" r="2.500000" stroke="#FF6600" fill="brown" fill-opacity="25%" />
	<rect id="96" x="170.656583" y="436.975725" width="15.000000" height="15.000000" stroke="gray" fill="#800080" fill-opacity="25%" />
	<rect id="65" x="159.377778" y="387.113110" width="5.000000" height="15.000000" stroke="gray" fill="#338000" fill-opacity="25%" />
	<rect id="57" x="146.406393" y="317.372171" width="5.000000" height="15.000000" stroke="gray" fill="#338000" fill-opacity="25%" />
	<rect id="67" x="180.140182" y="392.739402" width="5.000000" height="15.000000" stroke="gray" fill="#338000" fill-opacity="25%" />
	<text id="20" x="175.498847" y="172.762769" text-anchor="middle" stroke="black" fill="black" fill-opacity="60%" > {+]</text>
	<circle id="116" cx="184.986802" cy="184.922451" r="2.500000" stroke="#FF6600" fill="brown" fill-opacity="25%" />
	<text id="23" x="245.625744" y="165.075037" text-anchor="middle" stroke="black" fill="black" fill-opacity="60%" > {+]</text>
	<line id="126" x1="210.027969" y1="182.171146" x2="239.691865" y2="186.649236" stroke="#000080" />
	<circle id="114" cx="275.194326" cy="186.271129" r="2.500000" stroke="#FF6600" fill="brown" fill-opacity="25%" />
	<circle id="111" cx="282.822890" cy="187.535551" r="2.500000" stroke="#FF6600" fill="brown" fill-opacity="25%" />
	<circle id="102" cx="312.468613" cy="201.550571" r="2.500000" stroke="#FF6600" fill="brown" fill-opacity="25%" />
	<rect id="43" x="256.963321" y="182.046016" width="10.000000" height="5.000000" stroke="gray" fill="#FFCC00" fill-opacity="25%" />
	<rect id="34" x="316.362032" y="217.303446" width="10.000000" height="5.000000" stroke="gray" fill="#FFCC00" fill-opacity="25%" />
	<line id="144" x1="575.352175" y1="191.552076" x2="588.761751" y2="218.388306" stroke="#000080" />
	<line id="133" x1="597.713618" y1="190.700944" x2="622.294033" y2="207.899874" stroke="#000080" />
	<rect id="45" x="432.804361" y="186.923976" width="10.000000" height="5.000000" stroke="gray" fill="#FFCC00" fill-opacity="25%" />
	<circle id="106" cx="340.455266" cy="205.503526" r="2.500000" stroke="#FF6600" fill="brown" fill-opacity="25%" />
	<rect id="39" x="359.680443" y="204.804605" width="10.000000" height="5.000000" stroke="gray" fill="#FFCC00" fill-opacity="25%" />
	<rect id="49" x="397.575739" y="216.053825" width="10.000000" height="5.000000" stroke="gray" fill="#FFCC00" fill-opacity="25%" />
	<rect id="40" x="421.774293" y="213.550081" width="10.000000" height="5.000000" stroke="gray" fill="#FFCC00" fill-opacity="25%" />
	<rect id="33" x="366.233493" y="200.474726" width="10.000000" height="5.000000" stroke="gray" fill="#FFCC00" fill-opacity="25%" />
	<rect id="30" x="333.387874" y="195.701471" width="10.000000" height="5.000000" stroke="gray" fill="#FFCC00" fill-opacity="25%" />
	<text id="19" x="208.777933" y="175.718749" text-anchor="middle" stroke="black" fill="black" fill-opacity="60%" > {+]</text>
	<line id="142" x1="186.661826" y1="318.984266" x2="214.278486" y2="330.702632" stroke="#000080" />
	<circle id="112" cx="202.547166" cy="331.666303" r="2.500000" stroke="#FF6600" fill="brown" fill-opacity="25%" />
	<rect id="78" x="190.348891" y="255.049080" width="15.000000" height="15.000000" stroke="gray" fill="#800080" fill-opacity="25%" />
	<rect id="80" x="190.534731" y="450.200959" width="15.000000" height="15.000000" stroke="gray" fill="#800080" fill-opacity="25%" />
	<rect id="73" x="183.587471" y="340.209934" width="5.000000" height="15.000000" stroke="gray" fill="#338000" fill-opacity="25%" />
	<rect id="72" x="183.105649" y="456.139753" width="5.000000" height="15.000000" stroke="gray" fill="#338000" fill-opacity="25%" />
	<rect id="70" x="211.319790" y="402.599457" width="5.000000" height="15.000000" stroke="gray" fill="#338000" fill-opacity="25%" />
	<rect id="93" x="224.869313" y="458.486346" width="15.000000" height="15.000000" stroke="gray" fill="#800080" fill-opacity="25%" />
	<rect id="74" x="212.213522" y="308.385074" width="5.000000" height="15.000000" stroke="gray" fill="#338000" fill-opacity="25%" />
	<rect id="59" x="212.066708" y="491.555106" width="5.000000" height="15.000000" stroke="gray" fill="#338000" fill-opacity="25%" />
	<line id="137" x1="241.871260" y1="492.610260" x2="259.098717" y2="517.170690" stroke="#000080" />
	<rect id="85" x="240.491929" y="433.511881" width="15.000000" height="15.000000" stroke="gray" fill="#800080" fill-opacity="25%" />
	<rect id="58" x="227.600325" y="363.527152" width="5.000000" height="15.000000" stroke="gray" fill="#338000" fill-opacity="25%" />
	<rect id="100" x="243.529170" y="450.992439" width="15.000000" height="15.000000" stroke="gray" fill="#800080" fill-opacity="25%" />
	<circle id="109" cx="264.631816" cy="332.574535" r="2.500000" stroke="#FF6600" fill="brown" fill-opacity="25%" />
	<line id="131" x1="278.390573" y1="453.991803" x2="303.340018" y2="470.650890" stroke="#000080" />
	<circle id="124" cx="296.412220" cy="386.669388" r="2.500000" stroke="#FF6600" fill="brown" fill-opacity="25%" />
	<circle id="104" cx="256.421765" cy="361.265259" r="2.500000" stroke="#FF6600" fill="brown" fill-opacity="25%" />
	<rect id="91" x="248.286166" y="482.805503" width="15.000000" height="15.000000" stroke="gray" fill="#800080" fill-opacity="25%" />
	<rect id="60" x="246.038747" y="327.644862" width="5.000000" height="15.000000" stroke="gray" fill="#338000" fill-opacity="25%" />
	<rect id="51" x="243.001730" y="313.089746" width="5.000000" height="15.000000" stroke="gray" fill="#338000" fill-opacity="25%" />
	<line id="139" x1="327.484196" y1="526.838100" x2="354.160924" y2="540.562246" stroke="#000080" />
	<circle id="115" cx="311.832520" cy="367.407155" r="2.500000" stroke="#FF6600" fill="brown" fill-opacity="25%" />
	<circle id="101" cx="309.065161" cy="540.478608" r="2.500000" stroke="#FF6600" fill="brown" fill-opacity="25%" />
	<circle id="110" cx="366.461326" cy="227.422056" r="2.500000" stroke="#FF6600" fill="brown" fill-opacity="25%" />
	<circle id="125" cx="352.984754" cy="524.920093" r="2.500000" stroke="#FF6600" fill="brown" fill-opacity="25%" />
	<circle id="119" cx="374.594250" cy="512.424334" r="2.500000" stroke="#FF6600" fill="brown" fill-opacity="25%" />
	<circle id="118" cx="371.610747" cy="252.310561" r="2.500000" stroke="#FF6600" fill="brown" fill-opacity="25%" />
	<line id="135" x1="551.957904" y1="263.787638" x2="577.603500" y2="279.353736" stroke="#000080" />
	<line id="128" x1="445.095312" y1="293.284171" x2="460.094258" y2="319.265542" stroke="#000080" />
	<line id="149" x1="502.733364" y1="369.999564" x2="508.429952" y2="399.453747" stroke="#000080" />
	<line id="136" x1="415.554356" y1="401.437791" x2="434.629714" y2="424.592288" stroke="#000080" />
	<line id="148" x1="387.471066" y1="433.702655" x2="409.790655" y2="453.748502" stroke="#000080" />
	<line id="147" x1="494.184111" y1="453.968585" x2="519.532686" y2="470.013826" stroke="#000080" />
	<line id="138" x1="528.669459" y1="434.220566" x2="558.614314" y2="436.038715" stroke="#000080" />
	<line id="134" x1="464.555263" y1="421.028269" x2="493.581146" y2="428.611020" stroke="#000080" />
	<line id="129" x1="581.499321" y1="440.531500" x2="604.667522" y2="459.590210" stroke="#000080" />
	<line id="145" x1="533.865343" y1="474.448298" x2="563.787213" y2="476.612008" stroke="#000080" />
	<line id="141" x1="514.456071" y1="488.800690" x2="528.093623" y2="515.521790" stroke="#000080" />
	<line id="127" x1="443.520319" y1="469.409191" x2="465.132322" y2="490.215952" stroke="#000080" />
	<circle id="120" cx="385.731386" cy="411.864542" r="2.500000" stroke="#FF6600" fill="brown" fill-opacity="25%" />
	<line id="146" x1="421.066183" y1="595.209309" x2="444.346730" y2="614.130622" stroke="#000080" />
	<line id="132" x1="503.213046" y1="514.520932" x2="523.936880" y2="536.212467" stroke="#000080" />
	<line id="130" x1="598.885748" y1="495.269411" x2="628.530690" y2="499.871304" stroke="#000080" />
	<circle id="117" cx="385.437116" cy="493.513779" r="2.500000" stroke="#FF6600" fill="brown" fill-opacity="25%" />
	<circle id="108" cx="379.188231" cy="346.976924" r="2.500000" stroke="#FF6600" fill="brown" fill-opacity="25%" />
	<rect id="44" x="370.805698" y="244.894507" width="10.000000" height="5.000000" stroke="gray" fill="#FFCC00" fill-opacity="25%" />
	<rect id="37" x="348.395063" y="238.885918" width="10.000000" height="5.000000" stroke="gray" fill="#FFCC00" fill-opacity="25%" />
	<rect id="28" x="329.101672" y="232.491211" width="10.000000" height="5.000000" stroke="gray" fill="#FFCC00" fill-opacity="25%" />
	<text id="15" x="182.935030" y="221.211915" text-anchor="middle" stroke="black" fill="black" fill-opacity="60%" > {+]</text>
	<text id="2" x="135.552574" y="165.021298" text-anchor="middle" stroke="black" fill="black" fill-opacity="60%" > {+]</text>
	<text id="1" x="60.609493" y="14.639953" text-anchor="middle" stroke="black" fill="black" fill-opacity="60%" > {+]</text>
</svg>